<svg xmlns="http://www.w3.org/2000/svg" width="33" height="33">
    <path fill-rule="evenodd" d="M17.069 33H0V0h33v33H17.069zM15.931 1.138H1.138v14.793h14.793V1.138zm0 15.931H1.138v14.793h14.793V17.069zM31.862 1.138H17.069v14.793h14.793V1.138zm0 15.931H17.069v14.793h14.793V17.069zm-10.81 5.12h6.827a.57.57 0 0 1 0 1.139h-6.827a.569.569 0 1 1 0-1.139zm0 3.415h6.827a.568.568 0 1 1 0 1.137h-6.827a.569.569 0 1 1 0-1.137zm0-17.639h6.827a.57.57 0 0 1 0 1.139h-6.827a.57.57 0 0 1 0-1.139zM5.288 21.219a.567.567 0 0 1 .804 0l2.443 2.442 2.442-2.442a.568.568 0 1 1 .805.804l-2.443 2.442 2.443 2.443a.57.57 0 0 1-.805.805L8.535 25.27l-2.443 2.443a.567.567 0 0 1-.804 0 .568.568 0 0 1 0-.805l2.442-2.443-2.442-2.442a.567.567 0 0 1 0-.804zM5.121 7.965h2.845V5.121a.568.568 0 1 1 1.138 0v2.844h2.844a.57.57 0 0 1 0 1.139H9.104v2.844a.569.569 0 1 1-1.138 0V9.104H5.121a.57.57 0 0 1 0-1.139z"/>
</svg>
