<svg 
 xmlns="http://www.w3.org/2000/svg"
 xmlns:xlink="http://www.w3.org/1999/xlink"
 width="21px" height="22px">
<path fill-rule="evenodd"  fill="rgb(255, 255, 255)"
 d="M21.000,14.239 L20.993,6.030 C20.993,4.570 19.814,3.381 18.366,3.381 C17.833,3.380 17.325,3.538 16.895,3.833 C16.826,2.434 15.675,1.315 14.271,1.314 C13.666,1.315 13.108,1.521 12.664,1.869 C12.310,0.828 11.330,0.074 10.177,0.073 C8.902,0.073 7.838,0.992 7.603,2.207 C7.162,1.890 6.636,1.720 6.085,1.720 C4.638,1.719 3.461,2.905 3.462,4.364 L3.465,6.997 L1.998,8.475 C-0.031,10.521 -0.028,13.853 2.004,15.902 L6.043,19.973 C7.246,21.186 8.845,21.855 10.546,21.857 L13.441,21.859 C15.461,21.861 17.361,21.069 18.789,19.630 C20.217,18.190 21.002,16.275 21.000,14.239 ZM13.440,20.692 L10.546,20.690 C9.154,20.689 7.845,20.141 6.861,19.148 L2.822,15.077 C1.241,13.484 1.239,10.892 2.817,9.301 L3.466,8.647 L3.467,10.539 C3.467,10.861 3.727,11.123 4.046,11.123 C4.206,11.123 4.350,11.058 4.455,10.952 C4.560,10.846 4.625,10.701 4.625,10.540 L4.620,4.365 C4.620,3.971 4.772,3.599 5.049,3.320 C5.325,3.041 5.694,2.887 6.086,2.888 C6.871,2.889 7.554,3.578 7.555,4.369 L7.556,6.417 C7.557,6.739 7.816,7.000 8.136,7.001 C8.295,7.000 8.440,6.935 8.545,6.829 C8.650,6.724 8.715,6.579 8.715,6.417 L8.712,2.718 C8.711,1.903 9.369,1.239 10.178,1.240 C10.987,1.241 11.647,1.905 11.647,2.721 L11.649,6.420 C11.650,6.742 11.909,7.004 12.229,7.004 C12.389,7.004 12.533,6.938 12.638,6.833 C12.743,6.727 12.808,6.582 12.808,6.420 L12.806,3.960 C12.805,3.565 12.958,3.193 13.235,2.914 C13.511,2.636 13.880,2.482 14.272,2.482 C15.080,2.483 15.740,3.148 15.741,3.963 L15.743,6.424 C15.743,6.746 16.003,7.007 16.322,7.008 C16.481,7.007 16.626,6.942 16.731,6.836 C16.836,6.731 16.901,6.586 16.901,6.424 L16.901,6.026 C16.900,5.211 17.558,4.547 18.367,4.548 C19.152,4.549 19.835,5.238 19.836,6.029 L19.843,14.238 C19.844,15.963 19.179,17.585 17.970,18.804 C16.761,20.023 15.151,20.694 13.440,20.692 Z"/>
</svg>