<svg id="file-copy-2-fill" xmlns="http://www.w3.org/2000/svg" width="27" height="27" viewBox="0 0 27 27">
  <path id="Path" d="M0,0H27V27H0Z" fill="none"/>
  <path id="Shape" d="M1.111,22A1.108,1.108,0,0,1,0,20.9L0,5.5A1.111,1.111,0,0,1,1.122,4.4H4.444V1.1A1.107,1.107,0,0,1,5.556,0H18.889A1.107,1.107,0,0,1,20,1.1V16.5a1.107,1.107,0,0,1-1.111,1.1H15.556v3.3A1.111,1.111,0,0,1,14.437,22H1.111Zm3.333-7.7v2.2h6.667V14.3ZM6.667,2.2V4.4h8.889v11h2.222V2.2ZM4.444,9.9v2.2h6.667V9.9Z" transform="translate(3 2)" fill="#f31752"/>
</svg>
