<svg 
 xmlns="http://www.w3.org/2000/svg"
 xmlns:xlink="http://www.w3.org/1999/xlink"
 width="20px" height="24px">
<path fill-rule="evenodd"  fill="rgb(255, 255, 255)"
 d="M18.000,4.000 C17.636,4.000 17.294,4.097 17.000,4.268 L17.000,3.000 C17.000,1.897 16.103,1.000 15.000,1.000 C14.588,1.000 14.206,1.125 13.888,1.338 C13.614,0.560 12.871,-0.000 12.000,-0.000 C11.129,-0.000 10.386,0.560 10.112,1.338 C9.794,1.125 9.412,1.000 9.000,1.000 C7.897,1.000 7.000,1.897 7.000,3.000 L7.000,15.382 C7.000,15.634 6.834,15.763 6.763,15.807 C6.691,15.851 6.499,15.942 6.276,15.829 L3.065,14.224 C2.773,14.077 2.445,14.000 2.118,14.000 C0.950,14.000 0.000,14.950 0.000,16.118 L0.000,16.500 C0.000,16.639 0.058,16.771 0.159,16.866 L5.930,22.252 C7.138,23.379 8.713,24.000 10.365,24.000 L13.500,24.000 C17.084,24.000 20.000,21.084 20.000,17.500 L20.000,6.000 C20.000,4.897 19.103,4.000 18.000,4.000 ZM19.000,17.500 C19.000,20.533 16.533,23.000 13.500,23.000 L10.365,23.000 C8.967,23.000 7.634,22.475 6.612,21.521 L1.000,16.283 L1.000,16.118 C1.000,15.501 1.501,15.000 2.118,15.000 C2.291,15.000 2.464,15.041 2.618,15.118 L5.829,16.724 C6.296,16.959 6.843,16.933 7.289,16.658 C7.734,16.383 8.000,15.906 8.000,15.382 L8.000,3.000 C8.000,2.449 8.449,2.000 9.000,2.000 C9.551,2.000 10.000,2.449 10.000,3.000 L10.000,9.500 C10.000,9.777 10.224,10.000 10.500,10.000 C10.776,10.000 11.000,9.777 11.000,9.500 L11.000,2.000 C11.000,1.449 11.449,1.000 12.000,1.000 C12.551,1.000 13.000,1.449 13.000,2.000 L13.000,9.500 C13.000,9.777 13.224,10.000 13.500,10.000 C13.776,10.000 14.000,9.777 14.000,9.500 L14.000,3.000 C14.000,2.449 14.449,2.000 15.000,2.000 C15.551,2.000 16.000,2.449 16.000,3.000 L16.000,11.000 C16.000,11.190 16.109,11.363 16.278,11.448 C16.279,11.448 16.279,11.449 16.280,11.450 C16.281,11.450 16.282,11.450 16.283,11.451 C16.286,11.452 16.288,11.453 16.290,11.454 C16.291,11.454 16.291,11.455 16.292,11.455 L16.293,11.455 C16.293,11.455 16.294,11.456 16.294,11.456 C16.295,11.456 16.295,11.456 16.295,11.456 C16.296,11.457 16.296,11.457 16.297,11.457 L16.298,11.457 C16.299,11.457 16.299,11.458 16.300,11.458 C16.301,11.460 16.302,11.459 16.302,11.459 C16.543,11.564 16.829,11.464 16.949,11.225 C16.992,11.138 17.008,11.045 17.000,10.956 L17.000,6.000 C17.000,5.449 17.449,5.000 18.000,5.000 C18.551,5.000 19.000,5.449 19.000,6.000 L19.000,17.500 Z"/>
</svg>