<svg xmlns="http://www.w3.org/2000/svg" width="30" height="25">
    <path fill="#fff" fill-rule="evenodd" d="M24.925 11.955l3.916 3.964c.21.213.21.556 0 .769a.532.532 0 0 1-.759 0l-3.917-3.964-3.916 3.964a.532.532 0 0 1-.759 0 .548.548 0 0 1 0-.769l3.916-3.964L19.49 7.99a.548.548 0 0 1 0-.769.532.532 0 0 1 .759 0l3.916 3.965 3.917-3.965a.532.532 0 0 1 .759 0c.21.213.21.557 0 .769l-3.916 3.965zm-9.672 12.828a1.635 1.635 0 0 1-.81.219c-.293 0-.585-.081-.849-.243a.493.493 0 0 1-.087-.065l-7.273-6.762-5.698.002a.533.533 0 0 1-.38-.159.545.545 0 0 1-.157-.384V7.062c0-.3.24-.543.537-.543h5.711L13.523.287a.602.602 0 0 1 .071-.05 1.61 1.61 0 0 1 1.659-.024c.536.307.857.867.857 1.498v21.574c0 .631-.321 1.191-.857 1.498zm-.217-23.072a.625.625 0 0 0-.311-.551.555.555 0 0 0-.546-.01L6.981 7.315V9.78a.54.54 0 0 1-.538.544.54.54 0 0 1-.537-.544V7.606H1.073v9.241l4.833-.002v-2.172a.54.54 0 0 1 .537-.544.54.54 0 0 1 .538.544v2.476l7.207 6.702a.554.554 0 0 0 .537-.014.625.625 0 0 0 .311-.552V1.711z"/>
</svg>
