<svg 
xmlns="http://www.w3.org/2000/svg"
xmlns:xlink="http://www.w3.org/1999/xlink"
width="36px" height="13px">
<path fill-rule="evenodd"  fill="rgb(255, 255, 255)"
d="M35.673,7.044 L30.195,12.522 C30.117,12.600 30.027,12.639 29.925,12.639 C29.823,12.639 29.733,12.600 29.654,12.522 L29.067,11.934 C28.988,11.855 28.949,11.765 28.949,11.663 C28.949,11.562 28.988,11.472 29.067,11.393 L32.460,8.000 L1.000,8.000 C0.448,8.000 -0.000,7.552 -0.000,7.000 C-0.000,6.448 0.448,6.000 1.000,6.000 L32.913,6.000 L29.067,2.154 C28.988,2.075 28.949,1.985 28.949,1.883 C28.949,1.782 28.988,1.691 29.067,1.613 L29.654,1.025 C29.733,0.947 29.823,0.908 29.925,0.908 C30.027,0.908 30.117,0.947 30.195,1.025 L35.673,6.503 C35.751,6.581 35.790,6.672 35.790,6.773 C35.790,6.875 35.751,6.966 35.673,7.044 Z"/>
</svg>