<svg xmlns="http://www.w3.org/2000/svg" width="675" height="676">
    <path fill="#FFF" fill-rule="evenodd" d="M595.803 529.708L342.986 659.825c-71.611 36.856-159.853 8.577-196.707-63.037L16.169 343.957c-36.853-71.614-8.577-159.861 63.034-196.717L332.02 17.123c71.61-36.855 159.853-8.577 196.706 63.037l130.11 252.831c36.854 71.615 8.577 159.862-63.033 196.717zm62.078-196.225l-130.11-252.83C491.188 9.564 403.595-18.506 332.512 18.079L79.695 148.196C8.611 184.78-19.458 272.378 17.125 343.465l130.109 252.831c36.583 71.088 124.176 99.158 195.26 62.574l252.817-130.117c71.083-36.585 99.152-124.183 62.57-195.27zm-94.508 194.822a132.289 132.289 0 0 1-12.644 5.688L312.2 626.671c-32.743 12.722-68.479 11.93-100.626-2.227-32.148-14.158-56.858-39.988-69.579-72.732L49.321 313.169c-12.72-32.744-11.93-68.482 2.227-100.631s39.985-56.858 72.729-69.583l238.529-92.678c32.742-12.722 68.479-11.931 100.626 2.227 32.147 14.158 56.858 39.988 69.578 72.732l92.674 238.543c24.568 63.237-3.275 134.142-62.311 164.526zm61.31-164.138l-92.674-238.541c-12.617-32.477-37.126-58.096-69.01-72.139-31.885-14.042-67.33-14.827-99.804-2.208l-238.53 92.677a133.158 133.158 0 0 0-12.675 5.703c-26.457 13.617-47.299 35.699-59.458 63.312-14.042 31.887-14.826 67.333-2.209 99.809l92.674 238.543c12.616 32.476 37.125 58.095 69.01 72.138 31.884 14.042 67.329 14.826 99.804 2.208l238.529-92.677a131.449 131.449 0 0 0 12.54-5.642c58.547-30.138 86.168-100.466 61.803-163.183zM533.08 524.624a118.461 118.461 0 0 1-23.103 8.966l-222.218 60.512c-30.518 8.31-62.445 4.238-89.9-11.466-27.454-15.703-47.151-41.16-55.46-71.679l-60.511-222.23c-17.153-63.002 20.147-128.212 83.141-145.369l222.218-60.512c62.998-17.155 128.207 20.144 145.361 83.144l60.509 222.23c14.934 54.85-11.401 111.372-60.037 136.404zm59-136.12l-60.509-222.231c-8.234-30.242-27.752-55.467-54.958-71.029-27.206-15.561-58.843-19.596-89.083-11.361l-222.219 60.512a117.34 117.34 0 0 0-22.895 8.885c-48.19 24.802-74.288 80.817-59.491 135.164l60.51 222.23c16.998 62.43 81.614 99.39 144.041 82.391l222.219-60.512c62.426-16.998 99.384-81.619 82.385-144.049zM505.155 519a106.262 106.262 0 0 1-31.622 10.395L268.94 562.651c-28.111 4.57-56.319-2.082-79.428-18.729-23.108-16.648-38.351-41.298-42.92-69.41l-33.255-204.605c-4.569-28.113 2.082-56.322 18.729-79.432 16.646-23.11 41.296-38.353 69.406-42.922l204.594-33.257c28.111-4.57 56.319 2.082 79.428 18.73 23.108 16.647 38.35 41.298 42.92 69.41l33.255 204.605c7.593 46.718-16.54 91.386-56.514 111.959zm36.913-33.156c16.479-22.876 23.063-50.801 18.54-78.63l-33.255-204.605c-4.523-27.829-19.612-52.232-42.488-68.711-22.875-16.48-50.798-23.065-78.626-18.542l-204.594 33.258a105.127 105.127 0 0 0-31.303 10.29c-39.567 20.363-63.46 64.588-55.944 110.83l33.255 204.605c4.523 27.83 19.613 52.232 42.488 68.711s50.799 23.065 78.626 18.541l204.593-33.257c27.828-4.523 52.23-19.613 68.708-42.49zm-287.019 46.887c-52.859 2.986-98.291-37.591-101.276-90.452l-10.518-186.264c-1.445-25.607 7.167-50.244 24.25-69.373 17.082-19.132 40.592-30.462 66.198-31.907l186.254-10.52c25.606-1.445 50.242 7.167 69.37 24.252 19.128 17.084 30.459 40.595 31.905 66.202l10.518 186.265c2.205 39.036-19.342 74.017-52.05 90.851-11.584 5.962-24.573 9.648-38.397 10.429l-186.254 10.517zm275.629-111.737l-10.519-186.265c-1.43-25.32-12.634-48.568-31.548-65.461-18.914-16.893-43.274-25.409-68.594-23.979l-186.253 10.519c-13.502.762-26.411 4.303-38.084 10.311-10.218 5.259-19.49 12.41-27.374 21.238-16.892 18.915-25.407 43.277-23.978 68.597l10.518 186.264c2.952 52.269 47.876 92.392 100.142 89.44l186.254-10.518c52.265-2.954 92.387-47.877 89.436-100.146zm-117.554 91.758l-167.7-8.108c-23.069-1.116-44.323-11.148-59.847-28.25-15.524-17.101-23.459-39.225-22.343-62.295l8.107-167.709c1.115-23.071 11.148-44.326 28.249-59.85 17.1-15.526 39.223-23.46 62.292-22.345l167.7 8.108c23.069 1.115 44.323 11.148 59.846 28.25 15.524 17.102 23.459 39.226 22.344 62.296l-8.107 167.71c-1.116 23.069-11.148 44.325-28.249 59.85a86.963 86.963 0 0 1-18.657 12.958c-13.322 6.856-28.269 10.129-43.635 9.385zm61.57-23.139c16.889-15.332 26.796-36.323 27.897-59.106l8.108-167.709c1.101-22.784-6.735-44.633-22.066-61.522-15.331-16.89-36.321-26.799-59.103-27.899l-167.7-8.108c-15.176-.734-29.935 2.497-43.092 9.269a85.898 85.898 0 0 0-18.426 12.797c-16.889 15.332-26.796 36.323-27.897 59.107l-8.109 167.709c-1.101 22.783 6.736 44.632 22.067 61.522 15.331 16.889 36.32 26.797 59.103 27.899l167.7 8.108c22.781 1.1 44.631-6.735 61.518-22.067zm-85.908 12.019l-149.34-23.034c-20.558-3.17-38.651-14.158-50.945-30.937-12.295-16.779-17.319-37.342-14.148-57.902l23.033-149.348c3.171-20.558 14.157-38.652 30.936-50.947 16.778-12.293 37.339-17.32 57.898-14.149l149.34 23.035c20.558 3.17 38.65 14.157 50.945 30.936 12.294 16.78 17.319 37.343 14.148 57.903L477.62 436.536c-3.171 20.559-14.157 38.653-30.936 50.948a78.926 78.926 0 0 1-10.533 6.518c-14.501 7.463-30.935 10.165-47.365 7.63zm57.263-15.015c16.547-12.126 27.382-29.97 30.509-50.245l23.034-149.348c3.126-20.274-1.829-40.554-13.954-57.102-12.125-16.548-29.968-27.384-50.242-30.51l-149.34-23.035c-16.616-2.563-32.831.431-46.747 7.593-21.135 10.877-36.969 31.368-40.861 56.606l-23.034 149.348c-3.127 20.275 1.829 40.554 13.954 57.102 12.125 16.547 29.967 27.384 50.242 30.51l149.34 23.035c20.274 3.127 40.55-1.827 57.099-13.954zm-78.006 2.772L236.54 454.722c-37.398-9.86-59.803-48.307-49.944-85.707l34.665-131.509c9.859-37.4 48.304-59.806 85.702-49.948l131.503 34.668c37.398 9.859 59.802 48.307 49.944 85.707l-34.665 131.51c-5.269 19.987-18.699 35.689-35.773 44.477-14.874 7.654-32.518 10.059-49.929 5.469zm84.662-50.221l34.666-131.51c4.703-17.838 2.177-36.442-7.112-52.381-9.289-15.94-24.228-27.309-42.067-32.012l-131.503-34.667c-17.147-4.521-34.515-2.153-49.164 5.386-16.811 8.652-30.038 24.116-35.225 43.795l-34.665 131.51c-9.707 36.827 12.354 74.686 49.179 84.395l131.503 34.667c36.824 9.707 74.681-12.356 84.388-49.183zm-216.526-6.092c-15.779-5.985-28.284-17.756-35.21-33.145-6.927-15.391-7.446-32.557-1.462-48.337l43.399-114.449c5.985-15.78 17.755-28.289 33.144-35.213 15.389-6.927 32.554-7.446 48.333-1.461l114.444 43.402c32.573 12.353 49.025 48.905 36.672 81.48L432.1 439.803c-5.753 15.168-16.75 26.84-30.15 33.737-15.378 7.914-33.922 9.539-51.327 2.938l-114.444-43.402zm194.916 6.346l43.399-114.45c12.143-32.02-4.028-67.951-36.048-80.095l-114.444-43.402c-17.112-6.489-35.336-4.893-50.455 2.888-13.17 6.779-23.983 18.254-29.636 33.162l-43.399 114.45c-5.882 15.512-5.372 32.386 1.437 47.514 6.809 15.129 19.1 26.699 34.611 32.581l114.443 43.403c32.019 12.143 67.948-4.03 80.092-36.051zM212.705 337.21l49.612-98.357c14.133-28.022 48.429-39.318 76.449-25.184l98.352 49.615c28.02 14.134 39.317 48.432 25.183 76.453l-49.612 98.357c-5.472 10.85-14.059 19.477-24.658 24.932a57.681 57.681 0 0 1-8.351 3.495c-14.44 4.757-29.867 3.605-43.44-3.242l-98.352-49.615c-28.02-14.135-39.318-48.432-25.183-76.454zm25.666 75.495l98.352 49.614c13.318 6.718 28.454 7.848 42.621 3.181 14.169-4.666 25.668-14.573 32.386-27.89l49.611-98.356c6.718-13.319 7.848-28.455 3.181-42.623-4.666-14.168-14.571-25.67-27.888-32.388l-98.352-49.615c-16.578-8.363-35.39-7.653-50.758.257a55.555 55.555 0 0 0-24.248 24.452l-49.612 98.357c-13.867 27.493-2.783 61.142 24.707 75.011zm41.161-170.501c7.413-11.518 18.868-19.46 32.254-22.362 13.385-2.902 27.1-.417 38.617 6.997l83.365 53.661c23.775 15.304 30.667 47.098 15.364 70.875l-53.658 83.369c-4.938 7.673-11.668 13.756-19.569 17.823a51.58 51.58 0 0 1-12.685 4.539c-13.385 2.902-27.1.417-38.617-6.996l-83.365-53.662c-11.517-7.414-19.458-18.869-22.36-32.255-2.902-13.387-.417-27.102 6.995-38.62l53.659-83.369zm-59.604 121.761c2.841 13.106 10.616 24.321 21.892 31.579l83.365 53.662c11.275 7.258 24.702 9.69 37.807 6.85 13.107-2.843 24.321-10.616 31.579-21.893l53.658-83.369c14.982-23.279 8.234-54.407-15.043-69.391l-83.365-53.661c-11.275-7.258-24.703-9.691-37.808-6.85a50.465 50.465 0 0 0-12.418 4.444c-7.735 3.981-14.325 9.938-19.159 17.45l-53.659 83.369c-7.258 11.276-9.69 24.704-6.849 37.81zm74.701-117.147c15.952-19.865 45.092-23.047 64.956-7.093l69.568 55.873c9.623 7.728 15.661 18.74 17 31.01 1.34 12.269-2.178 24.326-9.906 33.95l-55.87 69.572a45.949 45.949 0 0 1-14.823 12.119c-15.739 8.101-35.466 6.755-50.133-5.026l-69.569-55.873c-19.864-15.954-23.046-45.094-7.094-64.959l55.871-69.573zm-48.105 133.694l69.569 55.874c19.402 15.582 47.865 12.475 63.446-6.929l55.87-69.573c15.582-19.402 12.474-47.866-6.928-63.449l-69.569-55.873c-14.328-11.507-33.593-12.821-48.967-4.909a44.874 44.874 0 0 0-14.478 11.837l-55.871 69.573c-15.581 19.404-12.473 47.866 6.928 63.449zm61.188-128.148c16.167-16.299 42.582-16.408 58.883-.238l57.014 56.556c7.895 7.832 12.269 18.271 12.313 29.393.046 11.122-4.243 21.597-12.075 29.493l-56.553 57.016a41.447 41.447 0 0 1-10.48 7.689c-15.608 8.034-35.283 5.564-48.403-7.451l-57.014-56.556c-16.3-16.169-16.407-42.585-.238-58.886l56.553-57.016zm-55.558 115.14l57.014 56.556c15.879 15.752 41.608 15.648 57.363-.233l56.553-57.016c7.63-7.692 11.808-17.896 11.764-28.731-.044-10.836-4.305-21.006-11.997-28.635l-57.013-56.557c-12.782-12.68-31.947-15.085-47.154-7.259a40.422 40.422 0 0 0-10.209 7.492l-56.554 57.016c-15.75 15.88-15.646 41.615.233 57.367zm10.768-63.236l55.982-45.713c7.764-6.339 17.533-9.277 27.506-8.269 9.973 1.007 18.957 5.838 25.297 13.603l45.711 55.985c13.086 16.03 10.694 39.718-5.334 52.806l-55.982 45.713a37.941 37.941 0 0 1-6.625 4.345c-6.379 3.283-13.576 4.662-20.881 3.924-9.973-1.008-18.957-5.839-25.298-13.603l-45.71-55.985c-13.086-16.029-10.694-39.718 5.334-52.806zm-4.501 52.126l45.711 55.986c6.157 7.542 14.884 12.235 24.571 13.213 9.689.98 19.176-1.874 26.719-8.033l55.982-45.713c15.569-12.713 17.893-35.723 5.181-51.292l-45.711-55.986c-11.067-13.555-29.938-17.071-44.911-9.365a36.418 36.418 0 0 0-6.379 4.184L263.602 305.1c-15.57 12.714-17.893 35.724-5.181 51.294zm15.515-55.598l54.409-35.65c7.559-4.956 16.592-6.664 25.438-4.821 8.845 1.843 16.444 7.02 21.396 14.579l35.647 54.411c10.223 15.602 5.846 36.614-9.756 46.837l-54.409 35.649a34.124 34.124 0 0 1-3.115 1.817c-6.861 3.531-14.663 4.601-22.323 3.005-8.846-1.843-16.444-7.021-21.396-14.579l-35.648-54.411c-4.952-7.558-6.664-16.593-4.821-25.44 1.843-8.846 7.02-16.445 14.578-21.397zm-8.858 46.248l35.647 54.411c4.795 7.319 12.152 12.331 20.717 14.116 8.565 1.784 17.312.127 24.63-4.669l54.409-35.649c15.106-9.899 19.344-30.242 9.447-45.348l-35.648-54.413c-4.794-7.318-12.152-12.331-20.717-14.115-7.417-1.545-14.97-.509-21.615 2.91a33.637 33.637 0 0 0-3.015 1.758l-54.408 35.65c-7.318 4.794-12.331 12.153-14.115 20.718-1.784 8.565-.127 17.313 4.668 24.631zm19.048-48.323l52.053-26.79c14.953-7.696 33.379-1.791 41.075 13.163l26.788 52.055c7.695 14.954 1.791 33.382-13.162 41.078l-52.053 26.789c-14.953 7.697-33.38 1.791-41.075-13.162l-26.788-52.056c-7.696-14.954-1.791-33.381 13.162-41.077zm-12.207 40.586l26.788 52.055c7.425 14.427 25.202 20.124 39.628 12.699l52.053-26.79c14.426-7.425 20.123-25.202 12.698-39.63l-26.788-52.055c-7.424-14.427-25.201-20.124-39.627-12.699l-52.053 26.79c-14.427 7.425-20.123 25.202-12.699 39.63zm21.528-41.486l49.111-19.082c14.136-5.492 30.104 1.54 35.596 15.677l19.081 49.114c2.66 6.848 2.494 14.321-.466 21.045-2.564 5.822-6.958 10.478-12.537 13.349a27.64 27.64 0 0 1-2.674 1.202l-49.11 19.083c-14.136 5.492-30.104-1.541-35.596-15.677l-19.081-49.114c-5.492-14.136 1.547-30.103 15.676-35.597zm-14.675 35.208l19.081 49.114c5.277 13.583 20.622 20.342 34.206 15.065l49.111-19.082c6.576-2.558 11.77-7.523 14.615-13.985 2.846-6.459 3.005-13.642.448-20.223l-19.08-49.113c-2.557-6.58-7.523-11.772-13.984-14.617-6.46-2.845-13.642-3.004-20.222-.447l-49.111 19.081a26.77 26.77 0 0 0-2.541 1.144c-11.863 6.105-17.459 20.356-12.523 33.063zm23.108-35.139l45.753-12.459c13.197-3.595 26.858 4.219 30.452 17.418l12.458 45.755c3.129 11.492-2.387 23.333-12.578 28.577a24.94 24.94 0 0 1-4.839 1.878l-45.753 12.458a24.64 24.64 0 0 1-18.833-2.402c-5.752-3.29-9.878-8.622-11.619-15.016l-12.459-45.756c-3.594-13.198 4.222-26.857 17.418-30.453zm-16.38 30.171l12.458 45.756a23.576 23.576 0 0 0 11.115 14.365 23.57 23.57 0 0 0 18.017 2.298l45.754-12.459c12.628-3.433 20.1-16.506 16.663-29.133l-12.459-45.757c-3.438-12.626-16.507-20.102-29.133-16.663l-45.753 12.459a23.907 23.907 0 0 0-4.67 1.811c-4.034 2.077-7.389 5.273-9.695 9.305-3.147 5.503-3.964 11.902-2.297 18.018zm23.927-29.317l42.124-6.847c5.9-.96 11.821.437 16.671 3.93a22.24 22.24 0 0 1 9.009 14.569l6.847 42.127c1.593 9.806-3.473 19.181-11.863 23.499a22.291 22.291 0 0 1-6.636 2.182l-42.124 6.848a22.235 22.235 0 0 1-16.672-3.931 22.238 22.238 0 0 1-9.008-14.569l-6.847-42.127a22.234 22.234 0 0 1 3.931-16.672 22.237 22.237 0 0 1 14.568-9.009zm-17.438 25.508l6.846 42.127a21.162 21.162 0 0 0 8.577 13.869 21.16 21.16 0 0 0 15.87 3.743l42.124-6.847c11.597-1.883 19.496-12.853 17.611-24.448l-6.847-42.127a21.172 21.172 0 0 0-8.576-13.87 21.165 21.165 0 0 0-15.87-3.742l-42.124 6.848a21.312 21.312 0 0 0-6.356 2.086 21.226 21.226 0 0 0-7.513 6.49 21.167 21.167 0 0 0-3.742 15.871zm24.118-24.034l38.349-2.166c11.117-.627 20.673 7.907 21.301 19.026l2.165 38.35c.464 8.21-4.068 15.568-10.948 19.109a20.074 20.074 0 0 1-8.076 2.194l-38.347 2.165a20.064 20.064 0 0 1-14.592-5.101 20.062 20.062 0 0 1-6.71-13.924l-2.166-38.351a20.06 20.06 0 0 1 5.101-14.591 20.059 20.059 0 0 1 13.923-6.711zm-17.951 21.241l2.165 38.351a19.005 19.005 0 0 0 6.354 13.184 18.993 18.993 0 0 0 13.815 4.828l38.347-2.165c10.528-.594 18.607-9.642 18.013-20.168l-2.166-38.351c-.594-10.527-9.642-18.608-20.168-18.013l-38.348 2.165a19.062 19.062 0 0 0-7.67 2.078 19.114 19.114 0 0 0-5.513 4.277 18.994 18.994 0 0 0-4.829 13.814zm23.798-19.294l34.528 1.67a18.108 18.108 0 0 1 12.617 5.956 18.113 18.113 0 0 1 4.711 13.133l-1.67 34.53c-.326 6.738-4.288 12.455-9.896 15.34a18.114 18.114 0 0 1-9.192 1.989l-34.528-1.67a18.11 18.11 0 0 1-12.617-5.955 18.115 18.115 0 0 1-4.711-13.134l1.67-34.53a18.112 18.112 0 0 1 5.955-12.618 18.11 18.11 0 0 1 13.133-4.711zm-19.684 51.91a17.044 17.044 0 0 0 4.432 12.36 17.046 17.046 0 0 0 11.874 5.605l34.528 1.67c9.448.454 17.506-6.859 17.963-16.308l1.669-34.53a17.047 17.047 0 0 0-4.432-12.359 17.042 17.042 0 0 0-11.874-5.605l-34.528-1.669a17.062 17.062 0 0 0-12.359 4.433 17.041 17.041 0 0 0-5.604 11.874l-1.669 34.529zm12.501-46.625a16.359 16.359 0 0 1 12.238-2.99l30.748 4.742a16.352 16.352 0 0 1 10.768 6.54 16.346 16.346 0 0 1 2.99 12.238l-4.742 30.749c-.834 5.408-4.228 9.801-8.758 12.133a16.37 16.37 0 0 1-10.018 1.627l-30.748-4.743a16.352 16.352 0 0 1-10.768-6.539 16.354 16.354 0 0 1-2.991-12.239l4.743-30.749a16.355 16.355 0 0 1 6.538-10.769zm-10.219 41.682a15.282 15.282 0 0 0 2.796 11.44 15.283 15.283 0 0 0 10.065 6.112l30.748 4.743c8.383 1.292 16.258-4.476 17.55-12.862l4.743-30.749a15.287 15.287 0 0 0-2.796-11.439 15.28 15.28 0 0 0-10.065-6.113l-30.748-4.743a15.28 15.28 0 0 0-11.439 2.796 15.289 15.289 0 0 0-6.112 10.066l-4.742 30.749zm15.496-40.612a14.765 14.765 0 0 1 11.276-1.531l27.075 7.137c7.927 2.091 12.676 10.241 10.587 18.169l-7.138 27.077a14.769 14.769 0 0 1-7.589 9.438 14.759 14.759 0 0 1-10.577 1.149l-27.075-7.138c-7.928-2.09-12.677-10.24-10.587-18.167l7.137-27.077a14.768 14.768 0 0 1 6.891-9.057zm-11.569 46.868a13.706 13.706 0 0 0 8.401 6.394l27.076 7.138c3.562.939 7.276.437 10.461-1.42a13.703 13.703 0 0 0 6.392-8.403l7.138-27.076c1.939-7.355-2.468-14.916-9.822-16.855l-27.075-7.138a13.693 13.693 0 0 0-10.461 1.421 13.704 13.704 0 0 0-6.393 8.402l-7.137 27.076a13.704 13.704 0 0 0 1.42 10.461z" opacity=".102"/>
</svg>
