<svg 
 xmlns="http://www.w3.org/2000/svg"
 xmlns:xlink="http://www.w3.org/1999/xlink"
 width="364px" height="364px">
<path fill-rule="evenodd"  fill="#534853"
 d="M363.240,183.376 C363.746,182.880 364.000,182.442 364.000,182.004 C364.000,181.566 363.746,181.129 363.240,180.633 C333.703,151.709 336.360,157.085 338.762,152.790 C340.799,149.147 343.761,143.840 346.302,139.748 C346.838,138.885 347.133,138.410 347.133,137.976 C347.133,137.900 347.126,137.829 347.110,137.762 C347.090,137.696 347.061,137.631 347.023,137.566 C346.806,137.190 346.313,136.926 345.418,136.447 C341.171,134.173 335.953,131.058 332.366,128.922 C328.139,126.403 328.525,132.387 339.644,92.570 C339.835,91.887 339.836,91.381 339.616,91.002 C339.398,90.623 338.960,90.370 338.273,90.194 C298.232,79.915 303.221,83.241 303.153,78.321 C303.096,74.147 303.007,68.070 303.162,63.256 C303.195,62.241 303.213,61.682 302.995,61.306 C302.958,61.240 302.916,61.183 302.869,61.133 C302.819,61.086 302.761,61.044 302.696,61.006 C302.320,60.789 301.761,60.807 300.746,60.839 C295.931,60.994 289.855,60.905 285.681,60.848 C280.761,60.781 284.087,65.770 273.808,25.728 C273.632,25.041 273.380,24.603 273.000,24.384 C272.621,24.165 272.116,24.165 271.433,24.356 C231.617,35.475 237.601,35.862 235.082,31.635 C232.946,28.048 229.831,22.830 227.557,18.582 C227.079,17.687 226.814,17.195 226.438,16.977 C226.373,16.939 226.307,16.911 226.242,16.891 C226.175,16.875 226.104,16.868 226.029,16.868 C225.594,16.868 225.119,17.162 224.256,17.698 C220.165,20.239 214.858,23.201 211.214,25.239 C206.920,27.640 212.295,30.298 183.373,0.760 C182.877,0.254 182.439,-0.000 182.001,-0.000 C181.563,-0.000 181.126,0.254 180.630,0.760 C151.707,30.298 157.082,27.640 152.788,25.239 C149.144,23.201 143.838,20.239 139.746,17.698 C138.883,17.162 138.408,16.868 137.974,16.868 C137.898,16.868 137.828,16.875 137.760,16.891 C137.695,16.911 137.630,16.939 137.564,16.977 C137.188,17.195 136.924,17.687 136.444,18.582 C134.171,22.830 131.057,28.048 128.920,31.635 C126.401,35.862 132.385,35.475 92.569,24.356 C91.887,24.165 91.381,24.165 91.002,24.384 C90.622,24.603 90.370,25.041 90.194,25.728 C79.915,65.770 83.241,60.781 78.322,60.848 C74.147,60.905 68.071,60.994 63.256,60.839 C62.241,60.807 61.682,60.789 61.306,61.006 C61.241,61.044 61.183,61.086 61.133,61.133 C61.086,61.183 61.044,61.240 61.007,61.306 C60.789,61.682 60.807,62.241 60.839,63.256 C60.994,68.070 60.905,74.147 60.849,78.321 C60.781,83.241 65.770,79.915 25.729,90.194 C25.043,90.370 24.605,90.623 24.385,91.002 C24.167,91.381 24.167,91.887 24.358,92.570 C35.477,132.387 35.863,126.403 31.635,128.922 C28.049,131.058 22.831,134.173 18.584,136.447 C17.689,136.926 17.196,137.190 16.979,137.566 C16.941,137.631 16.912,137.696 16.892,137.762 C16.877,137.829 16.869,137.900 16.869,137.976 C16.869,138.410 17.164,138.885 17.700,139.748 C20.241,143.840 23.203,149.147 25.240,152.790 C27.642,157.085 30.299,151.709 0.762,180.633 C0.256,181.129 0.002,181.566 0.002,182.004 C0.002,182.442 0.256,182.880 0.762,183.376 C30.299,212.299 27.642,206.924 25.240,211.218 C23.203,214.862 20.241,220.169 17.700,224.261 C17.164,225.123 16.869,225.599 16.869,226.033 C16.869,226.108 16.877,226.179 16.892,226.246 C16.912,226.312 16.941,226.377 16.979,226.443 C17.196,226.819 17.689,227.083 18.584,227.562 C22.831,229.835 28.049,232.950 31.635,235.087 C35.863,237.605 35.477,231.621 24.358,271.439 C24.167,272.121 24.167,272.627 24.385,273.006 C24.605,273.385 25.043,273.638 25.729,273.814 C65.770,284.093 60.781,280.767 60.849,285.687 C60.905,289.862 60.994,295.938 60.839,300.753 C60.807,301.768 60.789,302.327 61.007,302.703 C61.044,302.768 61.086,302.826 61.133,302.876 C61.183,302.923 61.241,302.964 61.306,303.002 C61.682,303.220 62.241,303.202 63.256,303.169 C68.071,303.014 74.147,303.103 78.322,303.160 C83.241,303.228 79.915,298.238 90.194,338.281 C90.370,338.968 90.622,339.406 91.002,339.625 C91.381,339.843 91.887,339.843 92.569,339.652 C132.385,328.533 126.401,328.147 128.920,332.374 C131.057,335.961 134.171,341.179 136.444,345.426 C136.924,346.321 137.188,346.814 137.564,347.031 C137.630,347.069 137.695,347.098 137.760,347.118 C137.828,347.133 137.898,347.141 137.974,347.141 C138.408,347.141 138.883,346.846 139.746,346.311 C143.838,343.769 149.144,340.807 152.788,338.770 C157.082,336.368 151.707,333.710 180.630,363.249 C181.126,363.755 181.563,364.008 182.001,364.008 C182.439,364.008 182.877,363.755 183.373,363.249 C212.295,333.710 206.920,336.368 211.214,338.770 C214.858,340.807 220.165,343.769 224.256,346.311 C225.119,346.846 225.594,347.141 226.029,347.141 C226.104,347.141 226.175,347.133 226.242,347.118 C226.307,347.098 226.373,347.069 226.438,347.031 C226.814,346.814 227.079,346.321 227.557,345.426 C229.831,341.179 232.946,335.961 235.082,332.374 C237.601,328.147 231.617,328.533 271.433,339.652 C272.116,339.843 272.621,339.843 273.000,339.625 C273.380,339.406 273.632,338.968 273.808,338.281 C284.087,298.238 280.761,303.228 285.681,303.160 C289.855,303.103 295.931,303.014 300.746,303.169 C301.761,303.202 302.320,303.220 302.696,303.002 C302.761,302.964 302.819,302.923 302.869,302.876 C302.916,302.826 302.958,302.768 302.995,302.703 C303.213,302.327 303.195,301.768 303.162,300.753 C303.007,295.938 303.096,289.862 303.153,285.687 C303.221,280.767 298.232,284.093 338.273,273.814 C338.960,273.638 339.398,273.385 339.616,273.006 C339.836,272.627 339.835,272.121 339.644,271.439 C328.525,231.621 328.139,237.605 332.366,235.087 C335.953,232.950 341.171,229.835 345.418,227.562 C346.313,227.083 346.806,226.819 347.023,226.443 C347.061,226.377 347.090,226.312 347.110,226.246 C347.126,226.179 347.133,226.108 347.133,226.033 C347.133,225.599 346.838,225.123 346.302,224.261 C343.761,220.169 340.799,214.862 338.762,211.218 C336.360,206.924 333.703,212.299 363.240,183.376 ZM360.397,180.857 L353.351,180.857 C352.319,180.857 351.324,180.473 350.560,179.782 C331.202,162.288 332.100,164.655 336.121,157.334 C341.055,161.816 356.595,176.548 360.397,180.857 ZM325.819,182.004 C320.053,186.121 323.161,186.180 314.342,182.004 C323.161,177.828 320.053,177.888 325.819,182.004 ZM323.019,177.418 C327.669,172.243 325.080,170.573 336.598,180.857 C330.594,180.857 328.514,180.855 327.776,180.856 C327.477,180.857 327.193,180.744 326.970,180.545 C326.158,179.820 324.843,178.871 323.019,177.418 ZM326.970,183.463 C327.193,183.264 327.477,183.151 327.776,183.152 C328.514,183.154 330.594,183.151 336.598,183.151 C325.080,193.435 327.669,191.765 323.019,186.590 C324.843,185.137 326.158,184.189 326.970,183.463 ZM338.104,184.387 C339.072,183.588 340.287,183.151 341.542,183.151 L348.629,183.151 C348.563,183.240 348.490,183.325 348.407,183.403 L331.949,198.773 L328.150,192.678 C328.240,192.533 335.023,186.934 338.104,184.387 ZM341.542,180.857 C340.287,180.857 339.072,180.421 338.104,179.621 C335.023,177.075 328.240,171.476 328.150,171.330 L331.949,165.235 L348.407,180.606 C348.490,180.684 348.563,180.768 348.629,180.857 L341.542,180.857 ZM302.321,180.689 L301.667,177.936 C321.618,176.562 325.422,165.511 338.264,142.348 C338.678,141.601 339.375,141.049 340.201,140.835 C341.335,140.542 342.460,140.219 343.579,139.871 C324.161,174.805 323.010,181.927 302.321,180.689 ZM257.242,291.740 C240.615,279.560 254.069,279.002 254.321,264.242 C261.270,276.452 254.041,278.660 257.242,291.740 ZM227.190,315.374 C221.421,303.895 216.740,308.498 220.725,300.292 C234.710,317.563 238.936,309.031 229.835,327.276 C230.337,322.904 229.320,319.610 227.190,315.374 ZM221.467,294.408 C243.004,304.907 240.775,303.330 236.955,314.129 C231.538,306.015 221.611,303.551 221.467,294.408 ZM217.060,285.756 C229.967,292.917 237.178,281.545 239.412,302.035 C229.685,292.723 224.159,297.878 217.060,285.756 ZM209.549,320.101 C209.822,324.835 210.589,328.196 213.209,331.731 C196.206,320.480 204.131,325.757 207.608,303.807 C215.161,308.920 208.806,307.276 209.549,320.101 ZM156.394,303.807 C159.871,325.757 167.797,320.480 150.793,331.731 C153.413,328.196 154.180,324.835 154.453,320.101 C155.196,307.276 148.841,308.920 156.394,303.807 ZM134.166,327.276 C125.066,309.031 129.293,317.563 143.277,300.292 C147.263,308.498 142.581,303.895 136.812,315.374 C134.682,319.610 133.666,322.904 134.166,327.276 ZM127.047,314.129 C123.227,303.330 120.998,304.907 142.535,294.408 C142.391,303.551 132.465,306.015 127.047,314.129 ZM124.590,302.035 C126.824,281.545 134.035,292.917 146.942,285.756 C139.844,297.878 134.318,292.723 124.590,302.035 ZM109.682,264.242 C109.933,279.002 123.388,279.560 106.760,291.740 C109.960,278.660 102.733,276.452 109.682,264.242 ZM106.760,72.268 C123.388,84.448 109.933,85.006 109.682,99.766 C102.733,87.556 109.960,85.348 106.760,72.268 ZM136.812,48.634 C142.581,60.113 147.263,55.511 143.277,63.716 C129.293,46.445 125.066,54.978 134.166,36.732 C133.666,41.104 134.682,44.398 136.812,48.634 ZM142.535,69.600 C120.998,59.101 123.227,60.679 127.047,49.880 C132.465,57.994 142.391,60.457 142.535,69.600 ZM146.942,78.253 C134.035,71.091 126.824,82.464 124.590,61.974 C134.318,71.285 139.844,66.130 146.942,78.253 ZM154.453,43.908 C154.180,39.174 153.413,35.813 150.793,32.277 C167.797,43.528 159.871,38.252 156.394,60.201 C148.841,55.088 155.196,56.733 154.453,43.908 ZM207.608,60.201 C204.131,38.252 196.206,43.528 213.209,32.277 C210.589,35.813 209.822,39.174 209.549,43.908 C208.806,56.733 215.161,55.088 207.608,60.201 ZM229.835,36.732 C238.936,54.978 234.710,46.445 220.725,63.716 C216.740,55.511 221.421,60.113 227.190,48.634 C229.320,44.398 230.337,41.104 229.835,36.732 ZM236.955,49.880 C240.775,60.679 243.004,59.101 221.467,69.600 C221.611,60.457 231.538,57.994 236.955,49.880 ZM239.412,61.974 C237.178,82.464 229.967,71.091 217.060,78.253 C224.159,66.130 229.685,71.285 239.412,61.974 ZM254.321,99.766 C254.069,85.006 240.615,84.448 257.242,72.268 C254.041,85.348 261.270,87.556 254.321,99.766 ZM187.761,283.173 C192.022,279.124 192.143,276.056 193.023,273.130 L198.122,274.257 C198.135,281.364 191.387,291.230 183.148,292.234 L183.148,285.582 C184.754,285.381 186.271,284.589 187.761,283.173 ZM183.148,283.419 L183.148,276.865 C183.888,276.564 184.586,275.971 185.156,275.075 C186.144,273.519 186.779,271.730 187.529,270.043 C190.385,271.871 191.063,272.248 191.012,272.624 C189.678,279.678 185.994,282.741 183.148,283.419 ZM183.034,252.831 C189.235,252.218 195.746,247.476 196.291,241.521 C199.111,251.000 199.470,251.447 198.531,252.183 C191.686,257.537 194.289,268.471 201.983,268.910 C202.526,268.941 203.068,269.063 203.551,269.313 C203.858,269.473 204.134,269.677 204.337,269.972 C204.790,270.633 204.855,271.482 204.899,272.259 C204.904,272.325 204.916,272.387 204.934,272.449 C202.870,272.809 200.785,272.679 198.506,272.252 C189.314,270.528 184.128,267.066 183.034,252.831 ZM176.241,80.835 C171.980,84.885 171.859,87.952 170.979,90.878 L165.880,89.752 C165.868,82.645 172.616,72.778 180.854,71.774 L180.854,78.427 C179.248,78.628 177.731,79.419 176.241,80.835 ZM180.854,80.590 L180.854,87.143 C180.113,87.445 179.415,88.037 178.846,88.934 C177.858,90.489 177.223,92.279 176.473,93.966 C173.616,92.138 172.940,91.760 172.991,91.384 C174.324,84.330 178.008,81.267 180.854,80.590 ZM180.968,111.178 C174.767,111.791 168.256,116.533 167.710,122.488 C164.892,113.009 164.532,112.561 165.472,111.826 C172.316,106.471 169.713,95.538 162.019,95.098 C161.476,95.067 160.934,94.946 160.451,94.695 C160.144,94.536 159.868,94.331 159.666,94.036 C159.212,93.375 159.147,92.526 159.102,91.750 C159.099,91.684 159.086,91.621 159.069,91.559 C161.132,91.199 163.217,91.329 165.496,91.757 C174.688,93.481 179.874,96.943 180.968,111.178 ZM283.413,180.857 L276.859,180.857 C276.557,180.117 275.965,179.419 275.069,178.849 C273.513,177.861 271.723,177.227 270.037,176.476 C271.865,173.620 272.242,172.942 272.619,172.993 C279.673,174.327 282.735,178.011 283.413,180.857 ZM273.124,170.982 L274.251,165.883 C281.357,165.870 291.224,172.618 292.228,180.857 L285.576,180.857 C285.375,179.251 284.583,177.734 283.167,176.244 C279.117,171.983 276.051,171.862 273.124,170.982 ZM274.505,182.004 C274.505,182.423 274.276,182.842 273.824,183.129 C267.811,186.966 267.679,185.358 261.040,182.004 C267.679,178.650 267.811,177.043 273.824,180.879 C274.276,181.167 274.505,181.585 274.505,182.004 ZM272.246,165.499 C270.522,174.691 267.060,179.877 252.826,180.971 C252.213,174.770 247.470,168.259 241.516,167.713 C250.995,164.894 251.442,164.534 252.177,165.474 C257.532,172.319 268.465,169.716 268.905,162.022 C268.936,161.479 269.057,160.937 269.308,160.454 C269.467,160.147 269.671,159.870 269.967,159.668 C270.627,159.214 271.476,159.150 272.253,159.105 C272.319,159.101 272.382,159.088 272.443,159.071 C272.803,161.134 272.673,163.220 272.246,165.499 ZM233.170,211.548 C234.443,209.345 232.516,205.294 225.277,203.056 C228.759,201.094 228.584,201.089 230.697,202.049 C237.348,205.049 238.563,210.206 236.633,213.547 C234.704,216.889 229.632,218.415 223.708,214.156 C221.820,212.805 221.912,212.954 221.870,208.958 C227.427,214.108 231.899,213.752 233.170,211.548 ZM221.748,204.953 C221.924,204.647 222.285,204.449 222.703,204.576 C227.109,205.915 232.901,208.000 231.285,210.459 C229.964,213.088 225.262,209.115 221.900,205.969 C221.580,205.670 221.572,205.258 221.748,204.953 ZM216.831,200.205 C216.866,199.538 217.040,198.863 217.187,198.142 C220.970,198.465 226.521,198.928 227.839,194.287 C229.019,189.608 223.980,187.234 220.542,185.622 C220.775,184.924 220.962,184.253 221.265,183.658 C222.430,181.376 232.879,187.232 230.551,195.013 C228.677,202.917 216.699,202.763 216.831,200.205 ZM182.001,219.380 C175.491,219.248 174.910,210.679 176.550,210.233 C179.096,209.541 180.886,208.155 182.001,206.007 C183.116,208.155 184.906,209.541 187.452,210.233 C189.092,210.679 188.511,219.248 182.001,219.380 ZM182.805,228.541 C183.849,233.025 184.939,239.084 182.001,238.914 C179.064,239.084 180.153,233.025 181.197,228.541 C181.296,228.114 181.649,227.901 182.001,227.901 C182.353,227.901 182.706,228.114 182.805,228.541 ZM130.831,211.548 C132.103,213.752 136.575,214.108 142.133,208.958 C142.090,212.954 142.182,212.805 140.294,214.156 C134.370,218.415 129.298,216.889 127.369,213.547 C125.440,210.206 126.654,205.049 133.304,202.049 C135.418,201.089 135.243,201.094 138.725,203.056 C131.486,205.294 129.559,209.345 130.831,211.548 ZM142.103,205.969 C138.741,209.115 134.038,213.088 132.717,210.459 C131.101,208.000 136.893,205.915 141.298,204.576 C141.717,204.449 142.078,204.647 142.254,204.953 C142.430,205.258 142.423,205.670 142.103,205.969 ZM133.451,195.013 C131.123,187.232 141.572,181.376 142.737,183.658 C143.041,184.253 143.227,184.924 143.460,185.622 C140.023,187.234 134.984,189.608 136.163,194.287 C137.481,198.928 143.032,198.465 146.815,198.142 C146.962,198.863 147.136,199.538 147.171,200.205 C147.303,202.763 135.326,202.917 133.451,195.013 ZM130.831,152.461 C129.559,154.664 131.486,158.715 138.725,160.953 C135.243,162.914 135.418,162.919 133.304,161.960 C126.654,158.959 125.440,153.803 127.369,150.461 C129.298,147.120 134.370,145.593 140.294,149.853 C142.182,151.203 142.090,151.054 142.133,155.051 C136.575,149.900 132.103,150.257 130.831,152.461 ZM142.254,159.056 C142.078,159.361 141.717,159.560 141.298,159.433 C136.893,158.094 131.101,156.008 132.717,153.549 C134.038,150.920 138.741,154.894 142.103,158.040 C142.423,158.339 142.430,158.751 142.254,159.056 ZM147.171,163.804 C147.136,164.471 146.962,165.145 146.815,165.866 C143.032,165.544 137.481,165.080 136.163,169.722 C134.984,174.400 140.023,176.774 143.460,178.387 C143.227,179.084 143.041,179.756 142.737,180.351 C141.572,182.633 131.123,176.777 133.451,168.995 C135.326,161.091 147.303,161.245 147.171,163.804 ZM182.001,144.629 C188.511,144.760 189.092,153.330 187.452,153.776 C184.906,154.468 183.116,155.854 182.001,158.002 C180.886,155.854 179.096,154.468 176.550,153.776 C174.910,153.330 175.491,144.760 182.001,144.629 ZM181.197,135.468 C180.153,130.983 179.064,124.924 182.001,125.095 C184.939,124.924 183.849,130.983 182.805,135.468 C182.706,135.894 182.353,136.108 182.001,136.108 C181.649,136.108 181.296,135.894 181.197,135.468 ZM233.170,152.461 C231.899,150.257 227.427,149.900 221.870,155.051 C221.912,151.054 221.820,151.203 223.708,149.853 C229.632,145.593 234.704,147.120 236.633,150.461 C238.563,153.803 237.348,158.959 230.697,161.960 C228.584,162.919 228.759,162.914 225.277,160.953 C232.516,158.715 234.443,154.664 233.170,152.461 ZM221.900,158.040 C225.262,154.894 229.964,150.920 231.285,153.549 C232.901,156.008 227.109,158.094 222.703,159.433 C222.285,159.560 221.924,159.361 221.748,159.056 C221.572,158.751 221.580,158.339 221.900,158.040 ZM230.551,168.995 C232.879,176.777 222.430,182.633 221.265,180.351 C220.962,179.756 220.775,179.084 220.542,178.387 C223.980,176.774 229.019,174.400 227.839,169.722 C226.521,165.080 220.970,165.544 217.187,165.866 C217.040,165.145 216.866,164.471 216.831,163.804 C216.699,161.245 228.677,161.091 230.551,168.995 ZM228.536,181.200 C233.020,180.157 239.080,179.066 238.909,182.004 C239.080,184.942 233.020,183.852 228.536,182.808 C228.110,182.709 227.896,182.357 227.896,182.004 C227.896,181.652 228.110,181.300 228.536,181.200 ZM204.617,204.610 C211.155,206.262 212.927,206.728 214.697,209.235 C215.802,210.800 215.307,212.682 213.993,213.997 C212.677,215.311 210.795,215.806 209.232,214.702 C206.725,212.932 206.258,211.159 204.606,204.621 C204.611,204.623 204.616,204.624 204.621,204.625 C204.620,204.620 204.618,204.615 204.617,204.610 ZM203.722,200.839 C204.395,198.288 204.090,196.045 202.787,194.006 C205.204,194.114 207.300,193.257 209.172,191.398 C210.379,190.200 217.509,194.988 214.368,200.692 C210.999,206.264 203.288,202.483 203.722,200.839 ZM192.493,192.544 C192.514,192.548 192.534,192.553 192.554,192.557 C192.549,192.537 192.545,192.517 192.540,192.497 C194.342,192.902 196.219,193.619 198.230,192.575 C200.895,192.812 203.485,198.868 201.149,201.153 C198.864,203.488 192.809,200.899 192.571,198.233 C193.616,196.223 192.898,194.345 192.493,192.544 ZM192.571,165.775 C192.809,163.109 198.864,160.520 201.150,162.855 C203.485,165.141 200.895,171.197 198.230,171.434 C196.219,170.389 194.342,171.107 192.540,171.511 C192.545,171.491 192.549,171.471 192.554,171.451 C192.534,171.455 192.514,171.460 192.493,171.465 C192.898,169.664 193.616,167.785 192.571,165.775 ZM203.722,163.169 C203.288,161.526 210.999,157.744 214.368,163.316 C217.509,169.020 210.379,173.808 209.172,172.610 C207.300,170.752 205.204,169.895 202.787,170.003 C204.090,167.963 204.395,165.720 203.722,163.169 ZM204.606,159.387 C206.258,152.850 206.725,151.077 209.232,149.307 C210.795,148.202 212.677,148.697 213.993,150.012 C215.307,151.327 215.802,153.209 214.697,154.773 C212.927,157.280 211.155,157.746 204.617,159.398 C204.618,159.393 204.620,159.389 204.621,159.384 C204.616,159.385 204.611,159.386 204.606,159.387 ZM208.158,174.995 C209.038,178.142 203.768,182.092 201.340,180.964 C200.122,179.054 198.137,178.737 196.375,178.187 C196.388,178.172 196.403,178.157 196.417,178.141 C196.397,178.135 196.377,178.129 196.358,178.123 C197.609,176.766 199.169,175.498 199.269,173.234 C200.808,171.044 207.347,171.830 208.158,174.995 ZM199.190,182.004 C199.198,183.403 195.135,184.865 188.772,182.004 C195.135,179.144 199.198,180.605 199.190,182.004 ZM196.887,173.409 C197.594,174.617 194.806,177.914 187.865,178.619 C191.946,172.959 196.195,172.194 196.887,173.409 ZM185.387,176.140 C186.091,169.199 189.388,166.411 190.596,167.118 C191.811,167.810 191.045,172.059 185.387,176.140 ZM187.865,185.390 C194.806,186.094 197.594,189.392 196.887,190.599 C196.195,191.814 191.946,191.049 187.865,185.390 ZM190.596,196.891 C189.388,197.597 186.091,194.809 185.387,187.868 C191.045,191.949 191.811,196.198 190.596,196.891 ZM199.269,190.774 C199.169,188.510 197.609,187.242 196.358,185.885 C196.377,185.879 196.397,185.873 196.417,185.867 C196.403,185.852 196.388,185.837 196.375,185.821 C198.137,185.272 200.122,184.954 201.340,183.044 C203.768,181.916 209.038,185.866 208.158,189.013 C207.347,192.178 200.808,192.964 199.269,190.774 ZM212.886,190.288 C212.890,190.287 212.896,190.285 212.901,190.284 C212.897,190.280 212.893,190.277 212.890,190.273 C219.378,188.435 221.146,187.953 223.932,189.239 C225.670,190.041 226.183,191.918 225.703,193.714 C225.221,195.510 223.837,196.880 221.932,196.705 C218.876,196.426 217.585,195.124 212.886,190.288 ZM210.229,187.455 C209.537,184.909 208.151,183.119 206.003,182.004 C208.151,180.889 209.537,179.099 210.229,176.553 C210.675,174.913 219.244,175.494 219.376,182.004 C219.244,188.514 210.675,189.095 210.229,187.455 ZM212.890,173.736 C212.893,173.732 212.897,173.728 212.901,173.724 C212.896,173.723 212.890,173.722 212.886,173.720 C217.585,168.884 218.876,167.583 221.932,167.303 C223.837,167.128 225.221,168.498 225.703,170.294 C226.183,172.090 225.670,173.968 223.932,174.770 C221.146,176.056 219.378,175.574 212.890,173.736 ZM215.177,160.940 C214.617,160.576 214.120,160.088 213.570,159.600 C215.740,156.485 218.918,151.909 215.556,148.447 C212.095,145.087 207.519,148.264 204.404,150.435 C203.916,149.884 203.428,149.386 203.065,148.826 C201.671,146.677 211.967,140.555 217.542,146.462 C223.450,152.037 217.328,162.333 215.177,160.940 ZM204.572,141.301 C205.911,136.895 207.996,131.102 210.455,132.719 C213.085,134.040 209.111,138.742 205.965,142.104 C205.666,142.424 205.254,142.432 204.949,142.256 C204.644,142.080 204.445,141.719 204.572,141.301 ZM208.954,142.134 C214.104,136.577 213.748,132.105 211.544,130.833 C209.340,129.560 205.290,131.488 203.052,138.727 C201.090,135.244 201.085,135.419 202.045,133.306 C205.045,126.656 210.202,125.441 213.543,127.370 C216.884,129.299 218.411,134.372 214.152,140.296 C212.801,142.183 212.950,142.092 208.954,142.134 ZM200.835,160.283 C198.285,159.609 196.042,159.915 194.002,161.217 C194.110,158.800 193.253,156.705 191.395,154.832 C190.197,153.626 194.984,146.495 200.688,149.636 C206.261,153.005 202.479,160.717 200.835,160.283 ZM196.701,142.072 C196.422,145.129 195.120,146.419 190.285,151.119 C190.283,151.113 190.282,151.109 190.281,151.104 C190.276,151.107 190.273,151.111 190.269,151.114 C188.431,144.627 187.949,142.858 189.235,140.071 C190.037,138.334 191.915,137.821 193.711,138.302 C195.506,138.784 196.876,140.166 196.701,142.072 ZM189.010,155.846 C192.175,156.658 192.961,163.197 190.770,164.735 C188.507,164.836 187.239,166.396 185.882,167.647 C185.876,167.628 185.870,167.608 185.863,167.588 C185.848,167.603 185.833,167.616 185.818,167.630 C185.269,165.868 184.950,163.883 183.040,162.664 C181.913,160.237 185.863,154.966 189.010,155.846 ZM182.001,175.233 C179.141,168.869 180.602,164.806 182.001,164.815 C183.400,164.806 184.861,168.869 182.001,175.233 ZM182.001,199.194 C180.602,199.202 179.141,195.139 182.001,188.776 C184.861,195.139 183.400,199.202 182.001,199.194 ZM180.961,162.664 C179.052,163.883 178.734,165.868 178.184,167.630 C178.169,167.616 178.154,167.603 178.139,167.588 C178.132,167.608 178.127,167.628 178.120,167.647 C176.763,166.396 175.495,164.836 173.231,164.735 C171.041,163.197 171.828,156.658 174.993,155.846 C178.139,154.966 182.089,160.237 180.961,162.664 ZM171.431,198.233 C171.194,200.899 165.138,203.488 162.853,201.153 C160.517,198.868 163.106,192.812 165.772,192.575 C167.783,193.619 169.661,192.902 171.462,192.497 C171.458,192.517 171.452,192.537 171.448,192.557 C171.469,192.553 171.489,192.548 171.509,192.544 C171.104,194.345 170.386,196.223 171.431,198.233 ZM160.281,200.839 C160.715,202.483 153.003,206.264 149.634,200.692 C146.493,194.988 153.623,190.200 154.830,191.398 C156.702,193.257 158.797,194.114 161.215,194.006 C159.913,196.045 159.607,198.288 160.281,200.839 ZM159.396,204.621 C157.744,211.159 157.277,212.932 154.770,214.702 C153.207,215.806 151.325,215.311 150.009,213.997 C148.695,212.682 148.201,210.800 149.305,209.235 C151.075,206.728 152.847,206.262 159.385,204.610 C159.383,204.615 159.382,204.620 159.381,204.625 C159.386,204.624 159.391,204.623 159.396,204.621 ZM159.385,159.398 C152.847,157.746 151.075,157.280 149.305,154.773 C148.201,153.209 148.695,151.327 150.009,150.012 C151.325,148.697 153.207,148.202 154.770,149.307 C157.277,151.077 157.744,152.850 159.396,159.387 C159.391,159.386 159.386,159.385 159.381,159.384 C159.382,159.389 159.383,159.393 159.385,159.398 ZM160.281,163.169 C159.607,165.720 159.913,167.963 161.215,170.003 C158.797,169.895 156.702,170.752 154.830,172.610 C153.623,173.808 146.493,169.020 149.634,163.316 C153.003,157.744 160.715,161.526 160.281,163.169 ZM171.509,171.465 C171.489,171.460 171.469,171.455 171.448,171.451 C171.452,171.471 171.458,171.491 171.462,171.511 C169.661,171.107 167.783,170.389 165.772,171.434 C163.106,171.197 160.517,165.141 162.853,162.855 C165.138,160.520 171.194,163.109 171.431,165.775 C170.386,167.785 171.104,169.664 171.509,171.465 ZM167.115,173.409 C167.807,172.194 172.056,172.959 176.137,178.619 C169.196,177.914 166.408,174.617 167.115,173.409 ZM175.230,182.004 C168.867,184.865 164.804,183.403 164.812,182.004 C164.804,180.605 168.867,179.144 175.230,182.004 ZM164.733,173.234 C164.833,175.498 166.393,176.766 167.645,178.123 C167.625,178.129 167.606,178.135 167.586,178.141 C167.600,178.157 167.613,178.172 167.627,178.187 C165.865,178.737 163.880,179.054 162.662,180.964 C160.235,182.092 154.964,178.142 155.844,174.995 C156.656,171.830 163.194,171.044 164.733,173.234 ZM151.116,173.720 C151.112,173.722 151.107,173.723 151.102,173.724 C151.105,173.728 151.108,173.732 151.112,173.736 C144.624,175.574 142.856,176.056 140.069,174.770 C138.332,173.968 137.819,172.090 138.299,170.294 C138.782,168.498 140.165,167.128 142.071,167.303 C145.127,167.583 146.417,168.884 151.116,173.720 ZM153.773,176.553 C154.466,179.099 155.852,180.889 157.999,182.004 C155.852,183.119 154.466,184.909 153.773,187.455 C153.327,189.095 144.758,188.514 144.627,182.004 C144.758,175.494 153.327,174.913 153.773,176.553 ZM151.112,190.273 C151.108,190.277 151.105,190.280 151.102,190.284 C151.107,190.285 151.112,190.287 151.116,190.288 C146.417,195.124 145.127,196.426 142.071,196.705 C140.165,196.880 138.782,195.510 138.299,193.715 C137.819,191.918 138.332,190.041 140.069,189.239 C142.856,187.953 144.624,188.435 151.112,190.273 ZM155.844,189.013 C154.964,185.866 160.235,181.916 162.662,183.044 C163.880,184.954 165.865,185.272 167.627,185.821 C167.613,185.837 167.600,185.852 167.586,185.867 C167.606,185.873 167.625,185.879 167.645,185.885 C166.393,187.242 164.833,188.510 164.733,190.774 C163.194,192.964 156.656,192.178 155.844,189.013 ZM167.115,190.599 C166.408,189.392 169.196,186.094 176.137,185.390 C172.056,191.049 167.807,191.814 167.115,190.599 ZM178.616,187.868 C177.911,194.809 174.614,197.597 173.406,196.891 C172.191,196.198 172.957,191.949 178.616,187.868 ZM173.406,167.118 C174.614,166.411 177.911,169.199 178.616,176.140 C172.957,172.059 172.191,167.810 173.406,167.118 ZM173.733,151.114 C173.729,151.111 173.725,151.107 173.722,151.104 C173.720,151.109 173.719,151.113 173.718,151.119 C168.882,146.419 167.580,145.129 167.301,142.072 C167.126,140.166 168.495,138.784 170.291,138.302 C172.088,137.821 173.965,138.334 174.767,140.071 C176.053,142.858 175.571,144.627 173.733,151.114 ZM172.607,154.832 C170.749,156.705 169.892,158.800 170.000,161.217 C167.960,159.915 165.717,159.609 163.166,160.283 C161.523,160.717 157.741,153.005 163.314,149.636 C169.017,146.495 173.805,153.626 172.607,154.832 ZM152.459,130.833 C150.255,132.105 149.898,136.577 155.048,142.134 C151.052,142.092 151.201,142.183 149.851,140.296 C145.591,134.372 147.118,129.299 150.459,127.370 C153.801,125.441 158.957,126.656 161.958,133.306 C162.916,135.419 162.912,135.244 160.950,138.727 C158.712,131.488 154.661,129.560 152.459,130.833 ZM159.053,142.256 C158.748,142.432 158.336,142.424 158.038,142.104 C154.892,138.742 150.918,134.040 153.547,132.719 C156.006,131.102 158.091,136.895 159.429,141.301 C159.557,141.719 159.359,142.080 159.053,142.256 ZM160.937,148.826 C160.574,149.386 160.086,149.884 159.598,150.435 C156.483,148.264 151.907,145.087 148.445,148.447 C145.084,151.909 148.261,156.485 150.432,159.600 C149.882,160.088 149.384,160.576 148.824,160.940 C146.674,162.333 140.553,152.037 146.460,146.462 C152.035,140.555 162.330,146.677 160.937,148.826 ZM136.105,182.004 C136.105,182.357 135.892,182.709 135.466,182.808 C130.982,183.852 124.922,184.942 125.094,182.004 C124.922,179.066 130.982,180.157 135.466,181.200 C135.892,181.300 136.105,181.652 136.105,182.004 ZM133.998,178.597 C126.610,176.915 122.915,179.460 122.916,182.004 C122.915,184.549 126.610,187.093 133.998,185.411 C131.963,188.852 132.117,188.768 129.806,188.994 C122.547,189.721 118.917,185.863 118.917,182.004 C118.917,178.146 122.547,174.288 129.806,175.014 C132.117,175.240 131.963,175.157 133.998,178.597 ZM148.824,203.068 C149.384,203.432 149.882,203.920 150.432,204.408 C148.261,207.523 145.084,212.099 148.445,215.561 C151.907,218.922 156.483,215.745 159.598,213.573 C160.086,214.124 160.574,214.622 160.937,215.182 C162.330,217.332 152.035,223.454 146.460,217.547 C140.553,211.971 146.674,201.676 148.824,203.068 ZM159.429,222.708 C158.091,227.114 156.006,232.906 153.547,231.289 C150.918,229.969 154.892,225.266 158.038,221.904 C158.336,221.584 158.748,221.576 159.053,221.752 C159.359,221.928 159.557,222.289 159.429,222.708 ZM155.048,221.874 C149.898,227.432 150.255,231.903 152.459,233.176 C154.661,234.448 158.712,232.521 160.950,225.281 C162.912,228.764 162.916,228.589 161.958,230.702 C158.957,237.353 153.801,238.567 150.459,236.638 C147.118,234.709 145.591,229.636 149.851,223.712 C151.201,221.825 151.052,221.916 155.048,221.874 ZM163.166,203.726 C165.717,204.398 167.960,204.094 170.000,202.791 C169.892,205.209 170.749,207.304 172.607,209.176 C173.805,210.383 169.017,217.514 163.314,214.373 C157.741,211.003 161.523,203.292 163.166,203.726 ZM167.301,221.936 C167.580,218.880 168.882,217.589 173.718,212.890 C173.719,212.895 173.720,212.900 173.722,212.904 C173.725,212.901 173.729,212.898 173.733,212.894 C175.571,219.382 176.053,221.150 174.767,223.937 C173.965,225.675 172.088,226.187 170.291,225.707 C168.495,225.225 167.126,223.842 167.301,221.936 ZM174.992,208.162 C171.828,207.351 171.041,200.812 173.231,199.273 C175.495,199.173 176.763,197.612 178.120,196.361 C178.127,196.380 178.132,196.400 178.139,196.420 C178.154,196.406 178.169,196.392 178.184,196.378 C178.734,198.140 179.052,200.126 180.961,201.344 C182.089,203.772 178.139,209.042 174.992,208.162 ZM183.040,201.344 C184.950,200.126 185.269,198.140 185.818,196.378 C185.833,196.392 185.848,196.406 185.863,196.420 C185.870,196.400 185.876,196.380 185.882,196.361 C187.239,197.612 188.507,199.173 190.770,199.273 C192.961,200.812 192.175,207.351 189.009,208.162 C185.863,209.042 181.913,203.772 183.040,201.344 ZM190.269,212.894 C190.273,212.898 190.276,212.901 190.281,212.904 C190.282,212.900 190.283,212.895 190.285,212.890 C195.120,217.589 196.422,218.880 196.701,221.936 C196.876,223.842 195.506,225.225 193.711,225.707 C191.915,226.187 190.037,225.675 189.235,223.937 C187.949,221.150 188.431,219.382 190.269,212.894 ZM191.395,209.176 C193.253,207.304 194.110,205.209 194.002,202.791 C196.042,204.094 198.285,204.398 200.835,203.726 C202.479,203.292 206.261,211.003 200.688,214.373 C194.984,217.514 190.197,210.383 191.395,209.176 ZM211.544,233.176 C213.748,231.903 214.104,227.432 208.954,221.874 C212.950,221.916 212.801,221.825 214.152,223.712 C218.411,229.636 216.884,234.709 213.543,236.638 C210.202,238.567 205.045,237.353 202.045,230.702 C201.085,228.589 201.090,228.764 203.052,225.281 C205.290,232.521 209.340,234.448 211.544,233.176 ZM204.949,221.752 C205.254,221.576 205.666,221.584 205.965,221.904 C209.111,225.266 213.085,229.969 210.455,231.289 C207.996,232.906 205.911,227.114 204.572,222.708 C204.445,222.289 204.644,221.928 204.949,221.752 ZM203.065,215.182 C203.428,214.622 203.916,214.124 204.404,213.573 C207.519,215.745 212.095,218.922 215.556,215.561 C218.918,212.099 215.740,207.523 213.570,204.408 C214.120,203.920 214.617,203.432 215.177,203.068 C217.328,201.676 223.450,211.971 217.542,217.547 C211.967,223.454 201.671,217.332 203.065,215.182 ZM230.004,185.411 C237.392,187.093 241.086,184.549 241.086,182.004 C241.086,179.460 237.392,176.915 230.004,178.597 C232.040,175.157 231.886,175.240 234.196,175.014 C241.455,174.288 245.086,178.146 245.086,182.004 C245.086,185.863 241.455,189.721 234.196,188.994 C231.886,188.768 232.040,188.852 230.004,185.411 ZM230.449,164.253 C230.479,164.235 230.507,164.217 230.534,164.201 C230.697,164.100 230.814,164.026 230.926,163.985 C239.565,160.756 240.908,153.986 238.314,149.491 C235.719,144.996 229.184,142.776 222.069,148.643 C221.976,148.718 221.855,148.784 221.686,148.874 C221.657,148.889 221.628,148.905 221.597,148.921 C220.442,146.960 219.737,146.066 220.347,145.456 C226.951,138.867 237.011,141.465 240.799,148.056 C244.613,154.632 241.833,164.644 232.826,167.068 C231.992,167.292 231.570,166.235 230.449,164.253 ZM218.548,143.656 C217.939,144.267 217.044,143.562 215.084,142.406 C215.099,142.376 215.115,142.347 215.130,142.318 C215.221,142.150 215.286,142.028 215.361,141.936 C221.228,134.820 219.008,128.285 214.513,125.689 C210.018,123.095 203.249,124.440 200.020,133.078 C199.978,133.189 199.906,133.307 199.804,133.469 C199.788,133.497 199.770,133.525 199.752,133.555 C197.770,132.434 196.713,132.012 196.937,131.178 C199.361,122.171 209.372,119.391 215.949,123.204 C222.539,126.993 225.137,137.053 218.548,143.656 ZM200.201,147.173 C199.535,147.138 198.859,146.964 198.139,146.817 C198.461,143.034 198.924,137.483 194.283,136.165 C189.605,134.985 187.231,140.025 185.619,143.462 C184.921,143.230 184.249,143.043 183.655,142.740 C181.373,141.574 187.228,131.124 195.010,133.453 C202.914,135.327 202.759,147.305 200.201,147.173 ZM188.991,129.808 C188.765,132.118 188.848,131.964 185.409,133.999 C187.090,126.611 184.545,122.917 182.001,122.917 C179.457,122.917 176.912,126.611 178.594,133.999 C175.154,131.964 175.237,132.118 175.011,129.808 C174.285,122.548 178.143,118.919 182.001,118.918 C185.859,118.919 189.718,122.548 188.991,129.808 ZM180.348,142.740 C179.753,143.043 179.081,143.230 178.384,143.462 C176.771,140.025 174.397,134.985 169.719,136.165 C165.078,137.483 165.541,143.034 165.863,146.817 C165.143,146.964 164.468,147.138 163.801,147.173 C161.243,147.305 161.089,135.327 168.992,133.453 C176.773,131.124 182.629,141.574 180.348,142.740 ZM164.251,133.555 C164.232,133.525 164.215,133.497 164.198,133.469 C164.097,133.307 164.024,133.189 163.982,133.078 C160.753,124.440 153.984,123.095 149.488,125.689 C144.994,128.285 142.774,134.820 148.640,141.936 C148.716,142.028 148.781,142.150 148.872,142.318 C148.887,142.347 148.903,142.376 148.919,142.406 C146.958,143.562 146.063,144.267 145.454,143.656 C138.865,137.053 141.463,126.993 148.054,123.204 C154.630,119.391 164.642,122.171 167.065,131.178 C167.289,132.012 166.232,132.434 164.251,133.555 ZM143.654,145.456 C144.265,146.066 143.560,146.960 142.404,148.921 C142.374,148.905 142.344,148.889 142.317,148.874 C142.148,148.784 142.025,148.718 141.934,148.643 C134.818,142.776 128.284,144.996 125.688,149.491 C123.093,153.986 124.438,160.756 133.077,163.985 C133.188,164.026 133.305,164.100 133.468,164.201 C133.495,164.217 133.524,164.235 133.553,164.253 C132.433,166.235 132.010,167.292 131.176,167.068 C122.170,164.644 119.389,154.632 123.202,148.056 C126.991,141.465 137.052,138.867 143.654,145.456 ZM130.518,169.526 C131.352,169.749 131.189,170.876 131.168,173.152 C131.134,173.154 131.100,173.154 131.069,173.155 C130.877,173.161 130.739,173.166 130.622,173.146 C121.526,171.624 116.977,176.814 116.976,182.004 C116.977,187.195 121.526,192.385 130.622,190.862 C130.739,190.842 130.877,190.847 131.069,190.853 C131.100,190.854 131.134,190.855 131.168,190.856 C131.189,193.132 131.352,194.259 130.518,194.482 C121.506,196.887 114.092,189.607 114.106,182.004 C114.092,174.402 121.506,167.122 130.518,169.526 ZM131.176,196.940 C132.010,196.716 132.433,197.774 133.553,199.755 C133.524,199.774 133.495,199.791 133.468,199.808 C133.305,199.909 133.188,199.982 133.077,200.024 C124.438,203.253 123.093,210.022 125.688,214.518 C128.284,219.012 134.818,221.232 141.934,215.366 C142.025,215.291 142.148,215.225 142.317,215.135 C142.344,215.120 142.374,215.104 142.404,215.087 C143.560,217.049 144.265,217.943 143.654,218.553 C137.052,225.141 126.991,222.543 123.202,215.952 C119.389,209.376 122.170,199.364 131.176,196.940 ZM145.454,220.352 C146.063,219.742 146.958,220.446 148.919,221.602 C148.903,221.633 148.887,221.662 148.872,221.690 C148.781,221.859 148.716,221.981 148.640,222.073 C142.774,229.188 144.994,235.723 149.488,238.319 C153.984,240.914 160.753,239.569 163.982,230.930 C164.024,230.819 164.097,230.702 164.198,230.539 C164.215,230.512 164.232,230.483 164.251,230.454 C166.232,231.574 167.289,231.997 167.065,232.830 C164.642,241.837 154.630,244.618 148.054,240.805 C141.463,237.016 138.865,226.955 145.454,220.352 ZM163.801,216.835 C164.468,216.870 165.143,217.044 165.863,217.191 C165.541,220.975 165.078,226.526 169.719,227.843 C174.397,229.023 176.771,223.984 178.384,220.546 C179.081,220.779 179.753,220.966 180.348,221.269 C182.629,222.434 176.773,232.884 168.992,230.556 C161.089,228.681 161.243,216.704 163.801,216.835 ZM175.011,234.200 C175.237,231.890 175.154,232.044 178.594,230.009 C176.912,237.398 179.457,241.092 182.001,241.092 C184.545,241.092 187.090,237.398 185.409,230.009 C188.848,232.044 188.765,231.890 188.991,234.200 C189.718,241.460 185.859,245.090 182.001,245.090 C178.143,245.090 174.285,241.460 175.011,234.200 ZM183.655,221.269 C184.249,220.966 184.921,220.779 185.619,220.546 C187.231,223.984 189.605,229.023 194.283,227.843 C198.924,226.526 198.461,220.975 198.139,217.191 C198.859,217.044 199.535,216.870 200.201,216.835 C202.759,216.704 202.914,228.681 195.010,230.556 C187.228,232.884 181.373,222.434 183.655,221.269 ZM199.752,230.454 C199.770,230.483 199.788,230.512 199.804,230.539 C199.906,230.702 199.978,230.819 200.020,230.930 C203.249,239.569 210.018,240.914 214.513,238.319 C219.008,235.723 221.228,229.188 215.361,222.073 C215.286,221.981 215.221,221.859 215.130,221.690 C215.115,221.662 215.099,221.633 215.084,221.602 C217.044,220.446 217.939,219.742 218.548,220.352 C225.137,226.955 222.539,237.016 215.949,240.805 C209.372,244.618 199.361,241.837 196.937,232.830 C196.713,231.997 197.770,231.574 199.752,230.454 ZM220.347,218.553 C219.737,217.943 220.442,217.049 221.597,215.087 C221.628,215.104 221.657,215.120 221.686,215.135 C221.855,215.225 221.976,215.291 222.069,215.366 C229.184,221.232 235.719,219.012 238.314,214.518 C240.908,210.022 239.565,203.253 230.926,200.024 C230.814,199.982 230.697,199.909 230.534,199.808 C230.507,199.791 230.479,199.774 230.449,199.755 C231.570,197.774 231.992,196.716 232.826,196.940 C241.833,199.364 244.613,209.376 240.799,215.952 C237.011,222.543 226.951,225.141 220.347,218.553 ZM233.484,194.482 C232.650,194.259 232.813,193.132 232.834,190.856 C232.868,190.855 232.902,190.854 232.934,190.853 C233.125,190.847 233.264,190.842 233.381,190.862 C242.476,192.385 247.025,187.195 247.026,182.004 C247.025,176.814 242.476,171.624 233.381,173.146 C233.264,173.166 233.125,173.161 232.934,173.155 C232.902,173.154 232.868,173.154 232.834,173.152 C232.813,170.876 232.650,169.749 233.484,169.526 C242.496,167.122 249.910,174.402 249.896,182.004 C249.910,189.607 242.496,196.887 233.484,194.482 ZM265.941,159.512 C268.187,167.419 255.224,169.696 253.377,162.879 C251.568,156.051 263.933,151.542 265.941,159.512 ZM271.611,156.708 C270.916,157.058 270.148,157.426 269.349,157.364 C268.993,157.336 268.677,157.199 268.385,157.013 C267.926,156.720 267.552,156.311 267.253,155.856 C263.025,149.413 252.255,152.625 251.040,161.230 C250.874,162.412 250.306,162.324 240.688,164.622 C245.571,161.172 246.423,153.163 243.854,147.486 C256.728,141.316 262.319,144.076 268.408,151.175 C269.918,152.935 271.073,154.675 271.792,156.643 C271.731,156.658 271.669,156.679 271.611,156.708 ZM264.177,138.201 C264.669,137.260 264.834,136.359 264.724,135.567 L270.400,132.291 C271.235,135.094 270.425,139.816 264.984,144.498 C264.683,144.730 264.018,144.332 261.006,142.773 C262.092,141.279 263.324,139.834 264.177,138.201 ZM263.577,133.580 C262.945,133.090 262.083,132.782 261.023,132.737 C259.182,132.659 257.314,133.004 255.478,133.197 C255.634,129.810 255.622,129.034 255.973,128.890 C262.749,126.518 267.242,128.178 269.253,130.303 L263.577,133.580 ZM266.427,145.987 C268.521,143.761 271.117,142.123 272.493,136.408 C272.974,134.410 272.902,132.701 272.273,131.209 L278.034,127.883 C281.284,135.519 276.113,146.297 269.952,149.840 L266.427,145.987 ZM271.125,129.222 C270.149,127.932 268.704,127.014 266.733,126.431 C261.097,124.766 258.379,126.195 255.405,126.896 L253.831,121.917 C259.980,118.352 271.898,119.263 276.887,125.896 L271.125,129.222 ZM260.960,135.116 C261.495,135.140 261.902,135.388 262.112,135.751 C262.321,136.114 262.332,136.590 262.085,137.066 C258.796,143.395 257.877,142.068 250.450,142.484 C254.523,136.259 253.834,134.801 260.960,135.116 ZM242.820,145.696 C239.189,140.632 231.827,137.365 226.397,139.869 C233.197,132.689 233.404,132.153 234.511,132.600 C242.570,135.850 250.737,128.129 247.271,121.246 C247.026,120.760 246.860,120.230 246.836,119.686 C246.821,119.341 246.859,119.000 247.014,118.676 C247.359,117.953 248.062,117.473 248.712,117.046 C248.767,117.010 248.815,116.967 248.860,116.921 C250.203,118.528 251.134,120.399 251.903,122.586 C255.005,131.409 254.601,137.631 242.820,145.696 ZM243.449,120.554 C249.348,126.278 239.260,134.733 234.252,129.752 C229.271,124.743 237.725,114.656 243.449,120.554 ZM246.957,115.291 C246.531,115.941 246.050,116.645 245.327,116.990 C245.004,117.144 244.662,117.183 244.317,117.167 C243.773,117.143 243.244,116.977 242.757,116.732 C235.875,113.266 228.154,121.433 231.404,129.493 C231.851,130.600 231.315,130.807 224.135,137.607 C226.639,132.177 223.372,124.815 218.309,121.183 C226.373,109.403 232.595,108.998 241.418,112.100 C243.605,112.870 245.475,113.800 247.083,115.143 C247.037,115.188 246.994,115.236 246.957,115.291 ZM231.267,102.980 C231.222,101.919 230.914,101.057 230.423,100.426 L233.700,94.750 C235.826,96.760 237.485,101.254 235.113,108.030 C234.970,108.382 234.194,108.370 230.807,108.525 C231.000,106.689 231.345,104.821 231.267,102.980 ZM228.436,99.278 C227.645,99.170 226.744,99.334 225.802,99.826 C224.170,100.678 222.725,101.911 221.231,102.997 C219.672,99.985 219.274,99.320 219.507,99.019 C224.189,93.577 228.910,92.767 231.713,93.603 L228.436,99.278 ZM221.521,113.553 C221.936,106.126 220.610,105.208 226.938,101.918 C227.413,101.671 227.890,101.682 228.253,101.891 C228.616,102.101 228.864,102.508 228.888,103.043 C229.202,110.169 227.745,109.480 221.521,113.553 ZM242.087,110.172 L237.108,108.598 C237.809,105.624 239.238,102.907 237.572,97.269 C236.990,95.298 236.073,93.854 234.782,92.877 L238.108,87.116 C244.740,92.104 245.651,104.024 242.087,110.172 ZM232.795,91.730 C231.304,91.101 229.594,91.028 227.596,91.509 C221.881,92.886 220.243,95.482 218.017,97.575 L214.165,94.051 C217.707,87.889 228.484,82.719 236.121,85.969 L232.795,91.730 ZM216.518,120.149 C210.842,117.580 202.832,118.432 199.383,123.316 C201.681,113.698 201.593,113.130 202.774,112.963 C211.379,111.748 214.591,100.978 208.148,96.750 C207.693,96.452 207.285,96.076 206.992,95.617 C206.806,95.325 206.668,95.010 206.640,94.653 C206.578,93.855 206.947,93.087 207.296,92.392 C207.326,92.333 207.346,92.272 207.362,92.210 C209.329,92.930 211.069,94.085 212.830,95.595 C219.928,101.684 222.688,107.276 216.518,120.149 ZM201.126,110.626 C194.309,108.779 196.586,95.815 204.493,98.062 C212.463,100.070 207.953,112.435 201.126,110.626 ZM204.899,91.750 C204.855,92.526 204.790,93.375 204.337,94.036 C204.134,94.331 203.858,94.536 203.551,94.695 C203.068,94.946 202.526,95.067 201.983,95.098 C194.289,95.538 191.686,106.471 198.531,111.826 C199.470,112.561 199.111,113.009 196.291,122.488 C195.746,116.533 189.235,111.791 183.034,111.178 C184.128,96.943 189.314,93.481 198.506,91.757 C200.785,91.329 202.870,91.199 204.934,91.559 C204.916,91.621 204.904,91.684 204.899,91.750 ZM194.478,130.520 C194.256,131.353 193.129,131.190 190.853,131.170 C190.852,131.135 190.851,131.102 190.850,131.070 C190.843,130.879 190.839,130.740 190.858,130.623 C192.381,121.528 187.191,116.978 182.001,116.977 C176.811,116.978 171.621,121.528 173.144,130.623 C173.163,130.740 173.159,130.879 173.153,131.070 C173.152,131.102 173.150,131.135 173.149,131.170 C170.874,131.190 169.746,131.353 169.524,130.520 C167.119,121.507 174.399,114.093 182.001,114.107 C189.603,114.093 196.883,121.507 194.478,130.520 ZM159.509,98.062 C167.416,95.815 169.694,108.779 162.876,110.626 C156.048,112.435 151.539,100.070 159.509,98.062 ZM157.361,94.653 C157.334,95.010 157.196,95.325 157.010,95.617 C156.717,96.076 156.309,96.452 155.854,96.750 C149.410,100.978 152.623,111.748 161.228,112.963 C162.410,113.130 162.321,113.698 164.620,123.316 C161.170,118.432 153.160,117.580 147.484,120.149 C141.314,107.276 144.075,101.684 151.172,95.595 C152.933,94.085 154.673,92.930 156.640,92.210 C156.656,92.272 156.676,92.333 156.706,92.392 C157.055,93.087 157.424,93.855 157.361,94.653 ZM138.199,99.826 C137.258,99.334 136.358,99.170 135.565,99.278 L132.289,93.603 C135.092,92.767 139.814,93.577 144.496,99.019 C144.728,99.320 144.330,99.985 142.771,102.997 C141.277,101.911 139.833,100.678 138.199,99.826 ZM142.482,113.553 C136.258,109.480 134.800,110.169 135.115,103.043 C135.138,102.508 135.387,102.101 135.749,101.891 C136.112,101.682 136.589,101.671 137.064,101.918 C143.392,105.208 142.067,106.126 142.482,113.553 ZM133.195,108.525 C129.808,108.370 129.033,108.382 128.889,108.030 C126.517,101.254 128.176,96.760 130.302,94.750 L133.579,100.426 C133.088,101.057 132.780,101.919 132.735,102.980 C132.657,104.821 133.003,106.689 133.195,108.525 ZM145.985,97.575 C143.760,95.482 142.121,92.886 136.406,91.509 C134.408,91.028 132.699,91.101 131.207,91.730 L127.881,85.969 C135.518,82.719 146.295,87.889 149.838,94.051 L145.985,97.575 ZM129.221,92.877 C127.930,93.854 127.013,95.298 126.430,97.269 C124.764,102.907 126.193,105.624 126.894,108.598 L121.915,110.172 C118.351,104.024 119.261,92.104 125.894,87.116 L129.221,92.877 ZM122.585,112.100 C131.407,108.998 137.630,109.403 145.694,121.183 C140.631,124.815 137.363,132.177 139.868,137.607 C132.687,130.807 132.152,130.600 132.598,129.493 C135.848,121.433 128.127,113.266 121.245,116.732 C120.759,116.977 120.229,117.143 119.685,117.167 C119.340,117.183 118.999,117.144 118.675,116.990 C117.952,116.645 117.471,115.941 117.045,115.291 C117.008,115.236 116.965,115.188 116.920,115.143 C118.527,113.800 120.398,112.870 122.585,112.100 ZM129.750,129.752 C124.742,134.733 114.655,126.278 120.553,120.554 C126.277,114.656 134.731,124.743 129.750,129.752 ZM116.989,118.676 C117.143,119.000 117.181,119.341 117.166,119.686 C117.143,120.230 116.976,120.760 116.731,121.246 C113.265,128.129 121.432,135.850 129.492,132.600 C130.598,132.153 130.806,132.689 137.605,139.869 C132.175,137.365 124.813,140.632 121.182,145.696 C109.402,137.631 108.997,131.409 112.099,122.586 C112.869,120.399 113.798,118.528 115.142,116.921 C115.187,116.967 115.235,117.010 115.290,117.046 C115.940,117.473 116.643,117.953 116.989,118.676 ZM113.552,142.484 C106.125,142.068 105.207,143.395 101.917,137.066 C101.670,136.590 101.681,136.114 101.891,135.751 C102.100,135.388 102.507,135.140 103.042,135.116 C110.168,134.801 109.479,136.259 113.552,142.484 ZM99.278,135.567 C99.169,136.359 99.332,137.260 99.825,138.201 C100.677,139.834 101.911,141.279 102.996,142.773 C99.984,144.332 99.319,144.730 99.018,144.498 C93.577,139.816 92.767,135.094 93.602,132.291 L99.278,135.567 ZM94.749,130.303 C96.760,128.178 101.253,126.518 108.029,128.890 C108.381,129.034 108.369,129.810 108.524,133.197 C106.688,133.004 104.820,132.659 102.980,132.737 C101.919,132.782 101.056,133.090 100.425,133.580 L94.749,130.303 ZM108.597,126.896 C105.623,126.195 102.906,124.766 97.269,126.431 C95.298,127.014 93.854,127.932 92.877,129.222 L87.115,125.896 C92.104,119.263 104.023,118.352 110.172,121.917 L108.597,126.896 ZM91.729,131.209 C91.101,132.701 91.028,134.410 91.509,136.408 C92.885,142.123 95.481,143.761 97.574,145.987 L94.050,149.840 C87.889,146.297 82.718,135.519 85.968,127.883 L91.729,131.209 ZM95.594,151.175 C101.683,144.076 107.274,141.316 120.148,147.486 C117.579,153.163 118.431,161.172 123.314,164.622 C113.696,162.324 113.128,162.412 112.962,161.230 C111.746,152.625 100.977,149.413 96.750,155.856 C96.451,156.311 96.075,156.720 95.617,157.013 C95.325,157.199 95.010,157.336 94.653,157.364 C93.854,157.426 93.086,157.058 92.392,156.708 C92.332,156.679 92.271,156.658 92.210,156.643 C92.930,154.675 94.084,152.935 95.594,151.175 ZM110.625,162.878 C108.778,169.696 95.815,167.419 98.061,159.512 C100.069,151.542 112.434,156.051 110.625,162.878 ZM94.035,159.668 C94.331,159.870 94.535,160.147 94.695,160.454 C94.946,160.937 95.066,161.479 95.097,162.022 C95.537,169.716 106.470,172.319 111.825,165.474 C112.560,164.534 113.008,164.894 122.486,167.713 C116.532,168.259 111.789,174.770 111.177,180.971 C96.942,179.877 93.480,174.691 91.756,165.499 C91.329,163.220 91.199,161.134 91.559,159.071 C91.620,159.088 91.683,159.101 91.749,159.105 C92.526,159.150 93.375,159.214 94.035,159.668 ZM102.962,182.004 C96.324,185.358 96.191,186.966 90.178,183.129 C89.726,182.842 89.497,182.423 89.497,182.004 C89.497,181.585 89.726,181.167 90.178,180.879 C96.191,177.043 96.324,178.650 102.962,182.004 ZM91.383,172.993 C91.760,172.942 92.138,173.620 93.965,176.476 C92.279,177.227 90.488,177.861 88.934,178.849 C88.037,179.419 87.445,180.117 87.143,180.857 L80.589,180.857 C81.267,178.011 84.330,174.327 91.383,172.993 ZM80.835,176.244 C79.419,177.734 78.628,179.251 78.426,180.857 L71.774,180.857 C72.778,172.618 82.645,165.870 89.752,165.883 L90.878,170.982 C87.952,171.862 84.884,171.983 80.835,176.244 ZM89.408,163.699 C89.014,163.804 88.690,163.892 88.350,163.975 C86.488,164.427 84.495,164.657 82.700,165.391 C73.962,168.968 70.097,174.899 69.847,180.857 L63.914,180.857 C65.271,168.325 77.585,156.873 89.408,159.118 L89.408,163.699 ZM69.847,183.151 C70.097,189.109 73.962,195.040 82.700,198.617 C84.495,199.352 86.488,199.581 88.350,200.033 C88.690,200.116 89.014,200.205 89.408,200.310 L89.408,204.890 C77.585,207.136 65.271,195.683 63.914,183.151 L69.847,183.151 ZM71.774,183.151 L78.426,183.151 C78.628,184.758 79.419,186.274 80.835,187.764 C84.884,192.025 87.952,192.147 90.878,193.027 L89.752,198.126 C82.645,198.138 72.778,191.390 71.774,183.151 ZM80.589,183.151 L87.143,183.151 C87.445,183.892 88.037,184.590 88.934,185.159 C90.488,186.147 92.279,186.782 93.965,187.533 C92.138,190.389 91.760,191.066 91.383,191.015 C84.330,189.682 81.267,185.997 80.589,183.151 ZM91.756,198.510 C93.480,189.318 96.942,184.132 111.177,183.037 C111.789,189.239 116.532,195.749 122.486,196.295 C113.008,199.114 112.560,199.474 111.825,198.534 C106.470,191.689 95.537,194.293 95.097,201.986 C95.066,202.530 94.946,203.072 94.695,203.555 C94.535,203.861 94.331,204.138 94.035,204.340 C93.375,204.794 92.526,204.859 91.749,204.904 C91.683,204.907 91.620,204.920 91.559,204.938 C91.199,202.874 91.329,200.789 91.756,198.510 ZM98.061,204.496 C95.815,196.590 108.778,194.312 110.625,201.130 C112.434,207.958 100.069,212.467 98.061,204.496 ZM92.392,207.300 C93.086,206.951 93.854,206.582 94.653,206.644 C95.010,206.672 95.325,206.810 95.617,206.995 C96.075,207.288 96.451,207.697 96.750,208.152 C100.977,214.596 111.746,211.383 112.962,202.778 C113.128,201.597 113.696,201.685 123.314,199.386 C118.431,202.836 117.579,210.846 120.148,216.523 C107.274,222.693 101.683,219.932 95.594,212.834 C94.084,211.074 92.930,209.333 92.210,207.366 C92.271,207.351 92.332,207.330 92.392,207.300 ZM99.825,225.807 C99.332,226.749 99.169,227.649 99.278,228.441 L93.602,231.718 C92.767,228.914 93.577,224.193 99.018,219.511 C99.319,219.278 99.984,219.676 102.996,221.236 C101.911,222.729 100.677,224.174 99.825,225.807 ZM100.425,230.428 C101.056,230.918 101.919,231.227 102.980,231.272 C104.820,231.350 106.688,231.004 108.524,230.811 C108.369,234.199 108.381,234.974 108.029,235.118 C101.253,237.490 96.760,235.830 94.749,233.705 L100.425,230.428 ZM97.574,218.022 C95.481,220.247 92.885,221.885 91.509,227.601 C91.028,229.599 91.101,231.308 91.729,232.799 L85.968,236.126 C82.718,228.489 87.889,217.712 94.050,214.168 L97.574,218.022 ZM92.877,234.786 C93.854,236.077 95.298,236.994 97.269,237.577 C102.906,239.243 105.623,237.814 108.597,237.113 L110.172,242.092 C104.023,245.657 92.104,244.745 87.115,238.113 L92.877,234.786 ZM103.042,228.892 C102.507,228.869 102.100,228.620 101.891,228.258 C101.681,227.894 101.670,227.418 101.917,226.943 C105.207,220.614 106.125,221.940 113.552,221.525 C109.479,227.749 110.168,229.207 103.042,228.892 ZM121.182,218.313 C124.813,223.376 132.175,226.644 137.605,224.139 C130.806,231.319 130.598,231.855 129.492,231.409 C121.432,228.159 113.265,235.879 116.731,242.762 C116.976,243.249 117.143,243.778 117.166,244.322 C117.181,244.667 117.143,245.009 116.989,245.332 C116.643,246.055 115.940,246.536 115.290,246.962 C115.235,246.999 115.187,247.042 115.142,247.087 C113.798,245.480 112.869,243.610 112.099,241.422 C108.997,232.600 109.402,226.377 121.182,218.313 ZM120.553,243.454 C114.655,237.730 124.742,229.276 129.750,234.257 C134.731,239.265 126.277,249.353 120.553,243.454 ZM117.045,248.717 C117.471,248.067 117.952,247.364 118.675,247.019 C118.999,246.864 119.340,246.826 119.685,246.841 C120.229,246.865 120.759,247.031 121.245,247.276 C128.127,250.743 135.848,242.575 132.598,234.515 C132.152,233.409 132.687,233.201 139.868,226.401 C137.363,231.831 140.631,239.194 145.694,242.825 C137.630,254.606 131.407,255.011 122.585,251.908 C120.398,251.139 118.527,250.209 116.920,248.865 C116.965,248.820 117.008,248.773 117.045,248.717 ZM132.735,261.028 C132.780,262.090 133.088,262.951 133.579,263.583 L130.302,269.258 C128.176,267.248 126.517,262.754 128.889,255.978 C129.033,255.627 129.808,255.639 133.195,255.484 C133.003,257.320 132.657,259.187 132.735,261.028 ZM135.565,264.730 C136.358,264.839 137.258,264.675 138.199,264.183 C139.833,263.330 141.277,262.097 142.771,261.012 C144.330,264.023 144.728,264.689 144.496,264.989 C139.814,270.431 135.092,271.241 132.289,270.406 L135.565,264.730 ZM142.482,250.456 C142.067,257.882 143.392,258.801 137.064,262.090 C136.589,262.338 136.112,262.326 135.749,262.117 C135.387,261.907 135.138,261.501 135.115,260.966 C134.800,253.840 136.258,254.529 142.482,250.456 ZM121.915,253.836 L126.894,255.411 C126.193,258.384 124.764,261.102 126.430,266.739 C127.013,268.710 127.930,270.154 129.221,271.131 L125.894,276.893 C119.261,271.904 118.351,259.985 121.915,253.836 ZM131.207,272.279 C132.699,272.908 134.408,272.980 136.406,272.499 C142.121,271.123 143.760,268.527 145.985,266.433 L149.838,269.958 C146.295,276.119 135.518,281.290 127.881,278.040 L131.207,272.279 ZM147.484,243.858 C153.160,246.428 161.170,245.576 164.620,240.692 C162.321,250.311 162.410,250.879 161.228,251.045 C152.623,252.261 149.410,263.031 155.854,267.258 C156.309,267.557 156.717,267.932 157.010,268.391 C157.196,268.683 157.334,268.998 157.361,269.355 C157.424,270.154 157.055,270.922 156.706,271.616 C156.676,271.675 156.656,271.736 156.640,271.798 C154.673,271.078 152.933,269.924 151.172,268.414 C144.075,262.324 141.314,256.733 147.484,243.858 ZM162.876,253.383 C169.694,255.229 167.416,268.193 159.509,265.946 C151.539,263.939 156.048,251.573 162.876,253.383 ZM159.102,272.259 C159.147,271.482 159.212,270.633 159.666,269.972 C159.868,269.677 160.144,269.473 160.451,269.313 C160.934,269.063 161.476,268.941 162.019,268.910 C169.713,268.471 172.316,257.537 165.472,252.183 C164.532,251.447 164.892,251.000 167.710,241.521 C168.256,247.476 174.767,252.218 180.968,252.831 C179.874,267.066 174.688,270.528 165.496,272.252 C163.217,272.679 161.132,272.809 159.069,272.449 C159.086,272.387 159.099,272.325 159.102,272.259 ZM169.524,233.488 C169.746,232.655 170.874,232.818 173.149,232.838 C173.150,232.873 173.152,232.906 173.153,232.938 C173.159,233.130 173.163,233.268 173.144,233.385 C171.621,242.481 176.811,247.030 182.001,247.031 C187.191,247.030 192.381,242.481 190.858,233.385 C190.839,233.268 190.843,233.130 190.850,232.938 C190.851,232.906 190.852,232.873 190.853,232.838 C193.129,232.818 194.256,232.655 194.478,233.488 C196.883,242.501 189.603,249.915 182.001,249.901 C174.399,249.915 167.119,242.501 169.524,233.488 ZM204.493,265.946 C196.586,268.193 194.309,255.229 201.126,253.383 C207.953,251.573 212.463,263.939 204.493,265.946 ZM206.640,269.355 C206.668,268.998 206.806,268.683 206.992,268.391 C207.285,267.932 207.693,267.557 208.148,267.258 C214.591,263.031 211.379,252.261 202.774,251.045 C201.593,250.879 201.681,250.311 199.383,240.692 C202.832,245.576 210.842,246.428 216.518,243.858 C222.688,256.733 219.928,262.324 212.830,268.414 C211.069,269.924 209.329,271.078 207.362,271.798 C207.346,271.736 207.326,271.675 207.296,271.616 C206.947,270.922 206.578,270.154 206.640,269.355 ZM225.802,264.183 C226.744,264.675 227.645,264.839 228.436,264.730 L231.713,270.406 C228.910,271.241 224.189,270.431 219.507,264.989 C219.274,264.689 219.672,264.023 221.231,261.012 C222.725,262.097 224.170,263.330 225.802,264.183 ZM221.521,250.456 C227.745,254.529 229.202,253.840 228.888,260.966 C228.864,261.501 228.616,261.907 228.253,262.117 C227.890,262.326 227.413,262.338 226.938,262.090 C220.610,258.801 221.936,257.882 221.521,250.456 ZM230.807,255.484 C234.194,255.639 234.970,255.627 235.113,255.978 C237.485,262.754 235.826,267.248 233.700,269.258 L230.423,263.583 C230.914,262.951 231.222,262.090 231.267,261.028 C231.345,259.187 231.000,257.320 230.807,255.484 ZM218.017,266.433 C220.243,268.527 221.881,271.123 227.596,272.499 C229.594,272.980 231.304,272.908 232.795,272.279 L236.121,278.040 C228.484,281.290 217.707,276.119 214.165,269.958 L218.017,266.433 ZM234.782,271.131 C236.073,270.154 236.990,268.710 237.572,266.739 C239.238,261.102 237.809,258.384 237.108,255.411 L242.087,253.836 C245.651,259.985 244.740,271.904 238.108,276.893 L234.782,271.131 ZM241.418,251.908 C232.595,255.011 226.373,254.606 218.309,242.825 C223.372,239.194 226.639,231.831 224.135,226.401 C231.315,233.201 231.851,233.409 231.404,234.515 C228.154,242.575 235.875,250.743 242.757,247.276 C243.244,247.031 243.773,246.865 244.317,246.841 C244.662,246.826 245.004,246.864 245.327,247.019 C246.050,247.364 246.531,248.067 246.957,248.717 C246.994,248.773 247.037,248.820 247.083,248.865 C245.475,250.209 243.605,251.139 241.418,251.908 ZM234.252,234.257 C239.260,229.276 249.348,237.730 243.449,243.454 C237.725,249.353 229.271,239.265 234.252,234.257 ZM247.014,245.332 C246.859,245.009 246.821,244.667 246.836,244.322 C246.860,243.778 247.026,243.249 247.271,242.762 C250.737,235.879 242.570,228.159 234.511,231.409 C233.404,231.855 233.197,231.319 226.397,224.139 C231.827,226.644 239.189,223.376 242.820,218.313 C254.601,226.377 255.005,232.600 251.903,241.422 C251.134,243.610 250.203,245.480 248.860,247.087 C248.815,247.042 248.767,246.999 248.712,246.962 C248.062,246.536 247.359,246.055 247.014,245.332 ZM250.450,221.525 C257.877,221.940 258.796,220.614 262.085,226.943 C262.332,227.418 262.321,227.894 262.112,228.258 C261.902,228.620 261.495,228.869 260.960,228.892 C253.834,229.207 254.523,227.749 250.450,221.525 ZM264.724,228.441 C264.834,227.649 264.669,226.749 264.177,225.807 C263.324,224.174 262.092,222.729 261.006,221.236 C264.018,219.676 264.683,219.278 264.984,219.511 C270.425,224.193 271.235,228.914 270.400,231.718 L264.724,228.441 ZM269.253,233.705 C267.242,235.830 262.749,237.490 255.973,235.118 C255.622,234.974 255.634,234.199 255.478,230.811 C257.314,231.004 259.182,231.350 261.023,231.272 C262.083,231.227 262.945,230.918 263.577,230.428 L269.253,233.705 ZM255.405,237.113 C258.379,237.814 261.097,239.243 266.733,237.577 C268.704,236.994 270.149,236.077 271.125,234.786 L276.887,238.113 C271.898,244.745 259.980,245.657 253.831,242.092 L255.405,237.113 ZM272.273,232.799 C272.902,231.308 272.974,229.599 272.493,227.601 C271.117,221.885 268.521,220.247 266.427,218.022 L269.952,214.168 C276.113,217.712 281.284,228.489 278.034,236.126 L272.273,232.799 ZM268.408,212.834 C262.319,219.932 256.728,222.693 243.854,216.523 C246.423,210.846 245.571,202.836 240.688,199.386 C250.306,201.685 250.874,201.597 251.040,202.778 C252.255,211.383 263.025,214.596 267.253,208.152 C267.552,207.697 267.926,207.288 268.385,206.995 C268.677,206.810 268.993,206.672 269.349,206.644 C270.148,206.582 270.916,206.951 271.611,207.300 C271.669,207.330 271.731,207.351 271.792,207.366 C271.073,209.333 269.918,211.074 268.408,212.834 ZM253.377,201.130 C255.224,194.312 268.187,196.590 265.941,204.497 C263.933,212.467 251.568,207.958 253.377,201.130 ZM269.967,204.340 C269.671,204.138 269.467,203.861 269.308,203.555 C269.057,203.072 268.936,202.530 268.905,201.986 C268.465,194.293 257.532,191.689 252.177,198.534 C251.442,199.474 250.995,199.114 241.516,196.295 C247.470,195.749 252.213,189.239 252.826,183.037 C267.060,184.132 270.522,189.318 272.246,198.510 C272.673,200.789 272.803,202.874 272.443,204.938 C272.382,204.920 272.319,204.907 272.253,204.904 C271.476,204.859 270.627,204.794 269.967,204.340 ZM272.619,191.015 C272.242,191.066 271.865,190.389 270.037,187.533 C271.723,186.782 273.513,186.147 275.069,185.159 C275.965,184.590 276.557,183.892 276.859,183.151 L283.413,183.151 C282.735,185.997 279.673,189.682 272.619,191.015 ZM283.167,187.764 C284.583,186.274 285.375,184.758 285.576,183.151 L292.228,183.151 C291.224,191.390 281.357,198.138 274.251,198.126 L273.124,193.027 C276.051,192.147 279.117,192.025 283.167,187.764 ZM274.595,200.310 C274.988,200.205 275.312,200.116 275.652,200.033 C277.514,199.581 279.507,199.352 281.302,198.617 C290.040,195.040 293.904,189.109 294.155,183.151 L300.088,183.151 C298.731,195.683 286.418,207.136 274.595,204.890 L274.595,200.310 ZM294.155,180.857 C293.904,174.899 290.040,168.968 281.302,165.391 C279.507,164.657 277.514,164.427 275.652,163.975 C275.312,163.892 274.988,163.804 274.595,163.699 L274.595,159.118 C286.418,156.873 298.731,168.325 300.088,180.857 L294.155,180.857 ZM323.898,163.535 C316.457,172.243 318.936,173.384 299.076,159.982 C307.066,155.535 314.162,162.900 323.898,163.535 ZM278.203,156.226 C285.737,149.715 291.473,143.471 299.894,146.416 C301.541,146.991 303.528,147.829 303.940,149.330 C304.334,150.836 303.032,152.555 301.894,153.877 C296.073,160.637 287.983,158.098 278.203,156.226 ZM303.800,156.397 C308.914,148.843 307.269,155.199 320.094,154.456 C324.827,154.182 328.188,153.415 331.724,150.795 C320.473,167.800 325.750,159.873 303.800,156.397 ZM307.252,148.443 C306.220,142.641 323.897,129.852 336.851,140.511 C330.963,156.219 309.259,153.983 307.252,148.443 ZM315.367,136.814 C303.888,142.583 308.490,147.265 300.286,143.280 C317.556,129.294 309.024,125.067 327.269,134.169 C322.897,133.667 319.603,134.684 315.367,136.814 ZM294.401,142.537 C304.901,121.000 303.323,123.228 314.122,127.049 C306.008,132.466 303.545,142.393 294.401,142.537 ZM285.749,146.945 C292.911,134.036 281.538,126.826 302.028,124.592 C292.717,134.320 297.872,139.846 285.749,146.945 ZM273.632,155.526 L271.342,151.559 C271.630,151.271 271.866,151.033 272.120,150.790 C273.506,149.468 275.117,148.273 276.304,146.740 C282.084,139.272 282.465,132.204 279.703,126.919 L284.841,123.952 C289.931,135.484 284.994,151.559 273.632,155.526 ZM278.556,124.932 C275.360,119.897 269.048,116.693 259.691,117.965 C257.771,118.226 255.930,119.024 254.091,119.564 C253.755,119.662 253.431,119.747 253.037,119.853 L250.747,115.886 C259.863,108.030 276.253,111.791 283.694,121.965 L278.556,124.932 ZM264.237,109.683 C276.446,102.734 278.654,109.961 291.734,106.761 C279.554,123.389 278.996,109.934 264.237,109.683 ZM272.380,104.393 C277.076,96.547 286.904,99.377 295.653,95.059 C293.562,106.321 296.281,106.070 272.380,104.393 ZM274.679,98.926 C275.331,89.828 277.084,96.154 287.819,89.098 C291.781,86.494 294.309,84.149 296.061,80.113 C294.819,100.465 295.426,90.962 274.679,98.926 ZM273.691,90.311 C269.897,85.803 278.812,65.889 295.359,68.643 C298.113,85.191 278.200,94.106 273.691,90.311 ZM274.905,76.183 C267.848,86.918 274.175,88.672 265.077,89.324 C273.041,68.576 263.539,69.182 283.889,67.941 C279.853,69.693 277.508,72.220 274.905,76.183 ZM259.610,91.622 C257.933,67.721 257.682,70.440 268.944,68.349 C264.626,77.098 267.456,86.926 259.610,91.622 ZM266.306,92.235 C268.020,91.910 270.160,91.642 271.267,92.736 C272.360,93.843 272.092,95.983 271.768,97.697 C270.107,106.463 261.831,108.308 252.426,111.578 C255.695,102.171 257.541,93.895 266.306,92.235 ZM248.117,113.256 L244.150,110.966 C244.256,110.573 244.341,110.248 244.440,109.912 C244.980,108.073 245.777,106.232 246.038,104.312 C247.310,94.954 244.106,88.642 239.072,85.447 L242.038,80.308 C252.212,87.750 255.973,104.140 248.117,113.256 ZM237.085,84.299 C231.800,81.537 224.731,81.919 217.264,87.699 C215.731,88.885 214.536,90.496 213.214,91.883 C212.972,92.136 212.734,92.372 212.445,92.661 L208.478,90.370 C212.445,79.008 228.520,74.070 240.051,79.161 L237.085,84.299 ZM207.779,85.800 C205.907,76.019 203.367,67.929 210.128,62.108 C211.450,60.970 213.169,59.668 214.674,60.061 C216.175,60.473 217.012,62.461 217.589,64.107 C220.533,72.529 214.289,78.265 207.779,85.800 ZM204.023,64.926 C190.621,45.065 191.762,47.545 200.470,40.103 C201.105,49.839 208.470,56.936 204.023,64.926 ZM203.514,74.623 C195.916,61.966 183.985,68.211 192.295,49.348 C196.064,62.277 203.427,60.575 203.514,74.623 ZM204.887,89.408 L200.306,89.408 C200.200,89.014 200.113,88.691 200.030,88.350 C199.578,86.488 199.348,84.495 198.614,82.701 C195.037,73.961 189.106,70.097 183.148,69.847 L183.148,63.913 C195.680,65.271 207.132,77.584 204.887,89.408 ZM198.122,89.752 L193.023,90.878 C192.143,87.952 192.022,84.885 187.761,80.835 C186.271,79.419 184.754,78.628 183.148,78.427 L183.148,71.774 C191.387,72.778 198.135,82.645 198.122,89.752 ZM191.012,91.384 C191.063,91.760 190.385,92.138 187.529,93.966 C186.779,92.279 186.144,90.489 185.156,88.934 C184.586,88.037 183.888,87.445 183.148,87.143 L183.148,80.590 C185.994,81.267 189.678,84.330 191.012,91.384 ZM182.001,102.963 C178.648,96.324 177.040,96.191 180.876,90.178 C181.164,89.727 181.582,89.498 182.001,89.498 C182.420,89.498 182.838,89.727 183.126,90.178 C186.962,96.191 185.355,96.324 182.001,102.963 ZM180.854,69.847 C174.896,70.097 168.965,73.961 165.388,82.701 C164.654,84.495 164.424,86.488 163.973,88.350 C163.890,88.691 163.801,89.014 163.696,89.408 L159.116,89.408 C156.871,77.584 168.322,65.271 180.854,63.913 L180.854,69.847 ZM160.489,74.623 C160.575,60.575 167.938,62.277 171.706,49.348 C180.017,68.211 168.086,61.966 160.489,74.623 ZM159.979,64.926 C155.532,56.936 162.897,49.839 163.533,40.103 C172.240,47.545 173.382,45.065 159.979,64.926 ZM153.874,62.108 C160.635,67.929 158.095,76.019 156.224,85.800 C149.713,78.265 143.469,72.529 146.413,64.107 C146.990,62.461 147.827,60.473 149.327,60.061 C150.833,59.668 152.552,60.970 153.874,62.108 ZM155.524,90.370 L151.556,92.661 C151.269,92.372 151.030,92.136 150.788,91.883 C149.466,90.496 148.271,88.885 146.738,87.699 C139.270,81.919 132.202,81.537 126.918,84.299 L123.951,79.161 C135.482,74.070 151.556,79.008 155.524,90.370 ZM124.931,85.447 C119.896,88.642 116.692,94.954 117.964,104.312 C118.225,106.232 119.023,108.073 119.562,109.912 C119.661,110.248 119.746,110.573 119.852,110.966 L115.885,113.256 C108.029,104.140 111.790,87.750 121.964,80.308 L124.931,85.447 ZM111.577,111.578 C102.171,108.308 93.895,106.463 92.235,97.697 C91.910,95.983 91.642,93.843 92.735,92.736 C93.843,91.642 95.983,91.910 97.696,92.235 C106.461,93.895 108.307,102.171 111.577,111.578 ZM104.392,91.622 C96.546,86.926 99.376,77.098 95.058,68.349 C106.320,70.440 106.068,67.721 104.392,91.622 ZM98.926,89.324 C89.827,88.672 96.154,86.918 89.097,76.183 C86.493,72.220 84.149,69.693 80.113,67.941 C100.464,69.182 90.961,68.576 98.926,89.324 ZM90.311,90.311 C85.803,94.106 65.889,85.191 68.643,68.643 C85.190,65.889 94.106,85.803 90.311,90.311 ZM76.183,89.098 C86.919,96.154 88.672,89.828 89.323,98.926 C68.576,90.962 69.183,100.465 67.941,80.113 C69.693,84.149 72.221,86.494 76.183,89.098 ZM91.622,104.393 C67.722,106.070 70.440,106.321 68.349,95.059 C77.097,99.377 86.926,96.547 91.622,104.393 ZM99.766,109.683 C85.006,109.934 84.448,123.389 72.268,106.761 C85.348,109.961 87.556,102.734 99.766,109.683 ZM113.255,115.886 L110.965,119.853 C110.572,119.747 110.247,119.662 109.910,119.564 C108.073,119.024 106.231,118.226 104.310,117.965 C94.954,116.693 88.642,119.897 85.446,124.932 L80.308,121.965 C87.750,111.791 104.139,108.030 113.255,115.886 ZM84.299,126.919 C81.537,132.204 81.918,139.272 87.698,146.740 C88.885,148.273 90.496,149.468 91.883,150.790 C92.136,151.033 92.372,151.271 92.661,151.559 L90.370,155.526 C79.008,151.559 74.071,135.484 79.161,123.952 L84.299,126.919 ZM85.799,156.226 C76.019,158.098 67.930,160.637 62.109,153.877 C60.971,152.555 59.669,150.836 60.062,149.330 C60.474,147.829 62.461,146.991 64.108,146.416 C72.529,143.471 78.265,149.715 85.799,156.226 ZM78.253,146.945 C66.130,139.846 71.285,134.320 61.974,124.592 C82.464,126.826 71.091,134.036 78.253,146.945 ZM69.600,142.537 C60.457,142.393 57.994,132.466 49.880,127.049 C60.679,123.228 59.102,121.000 69.600,142.537 ZM63.717,143.280 C55.512,147.265 60.114,142.583 48.635,136.814 C44.399,134.684 41.105,133.667 36.733,134.169 C54.978,125.067 46.446,129.294 63.717,143.280 ZM56.751,148.443 C54.743,153.983 33.040,156.219 27.151,140.511 C40.105,129.852 57.782,142.641 56.751,148.443 ZM43.908,154.456 C56.733,155.199 55.088,148.843 60.202,156.397 C38.252,159.873 43.529,167.800 32.278,150.795 C35.814,153.415 39.175,154.182 43.908,154.456 ZM64.926,159.982 C45.066,173.384 47.546,172.243 40.104,163.535 C49.840,162.900 56.936,155.535 64.926,159.982 ZM74.623,160.491 C61.967,168.089 68.211,180.020 49.349,171.710 C62.277,167.941 60.576,160.578 74.623,160.491 ZM74.623,203.517 C60.576,203.431 62.277,196.068 49.349,192.299 C68.211,183.988 61.967,195.919 74.623,203.517 ZM85.799,207.782 C78.265,214.294 72.529,220.537 64.108,217.593 C62.461,217.017 60.474,216.179 60.062,214.679 C59.669,213.173 60.971,211.454 62.109,210.132 C67.930,203.371 76.019,205.910 85.799,207.782 ZM64.926,204.027 C56.936,208.474 49.840,201.109 40.104,200.474 C47.546,191.765 45.066,190.624 64.926,204.027 ZM60.202,207.611 C55.088,215.165 56.733,208.810 43.908,209.553 C39.175,209.826 35.814,210.593 32.278,213.213 C43.529,196.209 38.252,204.135 60.202,207.611 ZM56.751,215.566 C57.782,221.368 40.105,234.156 27.151,223.497 C33.040,207.790 54.743,210.026 56.751,215.566 ZM48.635,227.195 C60.114,221.426 55.512,216.744 63.717,220.729 C46.446,234.714 54.978,238.941 36.733,229.840 C41.105,230.341 44.399,229.325 48.635,227.195 ZM69.600,221.472 C59.102,243.009 60.679,240.780 49.880,236.960 C57.994,231.542 60.457,221.615 69.600,221.472 ZM78.253,217.064 C71.091,229.972 82.464,237.182 61.974,239.417 C71.285,229.689 66.130,224.163 78.253,217.064 ZM90.370,208.483 L92.661,212.449 C92.372,212.737 92.136,212.976 91.883,213.218 C90.496,214.540 88.885,215.736 87.698,217.268 C81.918,224.736 81.537,231.804 84.299,237.089 L79.161,240.056 C74.071,228.524 79.008,212.449 90.370,208.483 ZM85.446,239.076 C88.642,244.111 94.954,247.315 104.310,246.044 C106.231,245.782 108.073,244.984 109.910,244.445 C110.247,244.346 110.572,244.261 110.965,244.155 L113.255,248.122 C104.139,255.979 87.750,252.217 80.308,242.043 L85.446,239.076 ZM99.766,254.326 C87.556,261.275 85.348,254.047 72.268,257.247 C84.448,240.620 85.006,254.074 99.766,254.326 ZM91.622,259.616 C86.926,267.461 77.097,264.631 68.349,268.950 C70.440,257.687 67.722,257.939 91.622,259.616 ZM89.323,265.082 C88.672,274.181 86.919,267.854 76.183,274.911 C72.221,277.515 69.693,279.859 67.941,283.896 C69.183,263.544 68.576,273.047 89.323,265.082 ZM90.311,273.697 C94.106,278.206 85.190,298.119 68.643,295.366 C65.889,278.818 85.803,269.903 90.311,273.697 ZM89.097,287.825 C96.154,277.090 89.827,275.336 98.926,274.685 C90.961,295.432 100.464,294.826 80.113,296.067 C84.149,294.315 86.493,291.788 89.097,287.825 ZM104.392,272.386 C106.068,296.287 106.320,293.569 95.058,295.659 C99.376,286.911 96.546,277.082 104.392,272.386 ZM97.696,271.773 C95.983,272.098 93.843,272.366 92.735,271.273 C91.642,270.165 91.910,268.025 92.235,266.311 C93.895,257.546 102.171,255.700 111.577,252.431 C108.307,261.837 106.461,270.113 97.696,271.773 ZM115.885,250.752 L119.852,253.042 C119.746,253.436 119.661,253.760 119.562,254.097 C119.023,255.935 118.225,257.776 117.964,259.697 C116.692,269.054 119.896,275.366 124.931,278.562 L121.964,283.701 C111.790,276.259 108.029,259.869 115.885,250.752 ZM126.918,279.709 C132.202,282.471 139.270,282.090 146.738,276.310 C148.271,275.124 149.466,273.512 150.788,272.125 C151.030,271.872 151.269,271.636 151.556,271.348 L155.524,273.638 C151.556,285.000 135.482,289.938 123.951,284.848 L126.918,279.709 ZM156.224,278.209 C158.095,287.990 160.635,296.079 153.874,301.900 C152.552,303.038 150.833,304.340 149.327,303.947 C147.827,303.535 146.990,301.548 146.413,299.901 C143.469,291.480 149.713,285.743 156.224,278.209 ZM159.979,299.082 C173.382,318.943 172.240,316.463 163.533,323.905 C162.897,314.169 155.532,307.073 159.979,299.082 ZM160.489,289.385 C168.086,302.042 180.017,295.798 171.706,314.660 C167.938,301.732 160.575,303.434 160.489,289.385 ZM159.116,274.600 L163.696,274.600 C163.801,274.994 163.890,275.318 163.973,275.658 C164.424,277.520 164.654,279.514 165.388,281.308 C168.965,290.047 174.896,293.911 180.854,294.162 L180.854,300.095 C168.322,298.737 156.871,286.424 159.116,274.600 ZM165.880,274.257 L170.979,273.130 C171.859,276.056 171.980,279.124 176.241,283.173 C177.731,284.589 179.248,285.381 180.854,285.582 L180.854,292.234 C172.616,291.230 165.868,281.364 165.880,274.257 ZM172.991,272.624 C172.940,272.248 173.616,271.871 176.473,270.043 C177.223,271.730 177.858,273.519 178.846,275.075 C179.415,275.971 180.113,276.564 180.854,276.865 L180.854,283.419 C178.008,282.741 174.324,279.678 172.991,272.624 ZM182.001,261.045 C185.355,267.685 186.962,267.817 183.126,273.830 C182.838,274.282 182.420,274.510 182.001,274.511 C181.582,274.510 181.164,274.282 180.876,273.830 C177.040,267.817 178.648,267.685 182.001,261.045 ZM183.148,294.162 C189.106,293.911 195.037,290.047 198.614,281.308 C199.348,279.514 199.578,277.520 200.030,275.658 C200.113,275.318 200.200,274.994 200.306,274.600 L204.887,274.600 C207.132,286.424 195.680,298.737 183.148,300.095 L183.148,294.162 ZM203.514,289.385 C203.427,303.434 196.064,301.732 192.295,314.660 C183.985,295.798 195.916,302.042 203.514,289.385 ZM204.023,299.082 C208.470,307.073 201.105,314.169 200.470,323.905 C191.762,316.463 190.621,318.943 204.023,299.082 ZM210.128,301.900 C203.367,296.079 205.907,287.990 207.779,278.209 C214.289,285.743 220.533,291.480 217.589,299.901 C217.012,301.548 216.175,303.535 214.674,303.947 C213.169,304.340 211.450,303.038 210.128,301.900 ZM208.478,273.638 L212.445,271.348 C212.734,271.636 212.972,271.872 213.214,272.125 C214.536,273.512 215.731,275.124 217.264,276.310 C224.731,282.090 231.800,282.471 237.085,279.709 L240.051,284.848 C228.520,289.938 212.445,285.000 208.478,273.638 ZM239.072,278.562 C244.106,275.366 247.310,269.054 246.038,259.697 C245.777,257.776 244.980,255.935 244.440,254.097 C244.341,253.760 244.256,253.436 244.150,253.042 L248.117,250.752 C255.973,259.869 252.212,276.259 242.038,283.701 L239.072,278.562 ZM252.426,252.430 C261.831,255.700 270.107,257.546 271.768,266.311 C272.092,268.025 272.360,270.165 271.267,271.273 C270.160,272.366 268.020,272.098 266.306,271.773 C257.541,270.113 255.695,261.837 252.426,252.430 ZM259.610,272.386 C267.456,277.082 264.626,286.911 268.944,295.659 C257.682,293.569 257.933,296.287 259.610,272.386 ZM265.077,274.685 C274.175,275.336 267.848,277.090 274.905,287.825 C277.508,291.788 279.853,294.315 283.889,296.067 C263.539,294.826 273.041,295.432 265.077,274.685 ZM273.691,273.697 C278.200,269.903 298.113,278.818 295.359,295.366 C278.812,298.119 269.897,278.206 273.691,273.697 ZM287.819,274.911 C277.084,267.854 275.331,274.181 274.679,265.082 C295.426,273.047 294.819,263.544 296.061,283.896 C294.309,279.859 291.781,277.515 287.819,274.911 ZM272.380,259.616 C296.281,257.939 293.562,257.687 295.653,268.950 C286.904,264.631 277.076,267.461 272.380,259.616 ZM264.237,254.326 C278.996,254.074 279.554,240.620 291.734,257.247 C278.654,254.047 276.446,261.275 264.237,254.326 ZM250.747,248.122 L253.037,244.155 C253.431,244.261 253.755,244.346 254.091,244.445 C255.930,244.984 257.771,245.782 259.691,246.044 C269.048,247.315 275.360,244.111 278.556,239.076 L283.694,242.043 C276.253,252.217 259.863,255.979 250.747,248.122 ZM279.703,237.089 C282.465,231.804 282.084,224.736 276.304,217.268 C275.117,215.736 273.506,214.540 272.120,213.218 C271.866,212.976 271.630,212.737 271.342,212.449 L273.632,208.483 C284.994,212.449 289.931,228.524 284.841,240.056 L279.703,237.089 ZM278.203,207.782 C287.983,205.910 296.073,203.371 301.894,210.132 C303.032,211.454 304.334,213.173 303.940,214.679 C303.528,216.179 301.541,217.017 299.894,217.593 C291.473,220.537 285.737,214.294 278.203,207.782 ZM285.749,217.064 C297.872,224.163 292.717,229.689 302.028,239.417 C281.538,237.182 292.911,229.972 285.749,217.064 ZM294.401,221.472 C303.545,221.615 306.008,231.542 314.122,236.960 C303.323,240.780 304.901,243.009 294.401,221.472 ZM300.286,220.729 C308.490,216.744 303.888,221.426 315.367,227.195 C319.603,229.325 322.897,230.341 327.269,229.840 C309.024,238.941 317.556,234.714 300.286,220.729 ZM307.252,215.566 C309.259,210.026 330.963,207.790 336.851,223.497 C323.897,234.156 306.220,221.368 307.252,215.566 ZM320.094,209.553 C307.269,208.810 308.914,215.165 303.800,207.611 C325.750,204.135 320.473,196.209 331.724,213.213 C328.188,210.593 324.827,209.826 320.094,209.553 ZM299.076,204.027 C318.936,190.624 316.457,191.765 323.898,200.474 C314.162,201.109 307.066,208.474 299.076,204.027 ZM289.379,203.517 C302.035,195.919 295.791,183.988 314.653,192.299 C301.725,196.068 303.427,203.431 289.379,203.517 ZM289.379,160.491 C303.427,160.578 301.725,167.941 314.653,171.710 C295.791,180.020 302.035,168.089 289.379,160.491 ZM342.998,137.702 C341.855,137.960 340.719,138.242 339.590,138.556 C338.768,138.784 337.888,138.654 337.156,138.214 C314.453,124.575 305.634,116.907 287.669,125.693 L286.858,122.981 C304.158,111.565 308.714,117.157 342.998,137.702 ZM319.594,101.238 C318.506,101.865 317.236,102.095 315.998,101.887 C312.058,101.222 303.383,99.765 303.233,99.684 L303.476,92.505 L325.414,97.588 C325.525,97.614 325.630,97.650 325.732,97.694 L319.594,101.238 ZM326.879,99.681 C326.866,99.791 326.845,99.901 326.812,100.010 L320.244,121.550 L313.907,118.171 C313.912,118.001 316.987,109.760 318.382,106.014 C318.820,104.838 319.654,103.853 320.741,103.225 L326.879,99.681 ZM316.460,105.697 C311.626,120.362 313.034,117.621 306.420,115.465 C307.272,113.294 307.937,111.815 308.277,110.781 C308.371,110.498 308.561,110.257 308.820,110.108 C309.460,109.741 311.261,108.699 316.460,105.697 ZM327.807,126.307 C320.665,121.978 321.070,124.476 329.088,99.647 C329.405,98.666 330.075,97.836 330.967,97.321 L337.071,93.797 C335.932,99.430 329.840,119.958 327.807,126.307 ZM335.924,91.809 L329.820,95.333 C328.927,95.849 327.874,96.014 326.866,95.798 C301.355,90.327 303.316,91.928 303.138,83.577 C309.653,84.991 330.476,89.979 335.924,91.809 ZM315.312,103.710 C310.113,106.712 308.310,107.750 307.672,108.121 C307.413,108.271 307.111,108.315 306.818,108.254 C305.753,108.032 304.140,107.868 301.834,107.521 C303.273,100.715 300.195,100.563 315.312,103.710 ZM306.551,110.093 C303.616,116.541 306.337,115.039 296.612,115.832 C302.161,107.806 299.499,109.411 306.551,110.093 ZM300.866,64.725 C301.515,104.688 304.080,111.430 285.544,120.703 L283.600,118.646 C300.192,107.480 297.960,96.008 297.500,69.527 C297.486,68.674 297.814,67.846 298.422,67.248 C299.258,66.427 300.070,65.586 300.866,64.725 ZM299.277,63.137 C298.416,63.931 297.574,64.744 296.754,65.579 C296.155,66.188 295.328,66.516 294.475,66.501 C267.994,66.041 256.523,63.810 245.357,80.402 L243.300,78.459 C252.573,59.922 259.316,62.487 299.277,63.137 ZM262.117,48.003 C261.908,46.765 262.137,45.495 262.765,44.407 L266.309,38.269 C266.352,38.371 266.389,38.476 266.415,38.588 L271.497,60.526 L264.319,60.769 C264.238,60.618 262.781,51.944 262.117,48.003 ZM256.482,62.168 C256.136,59.862 255.971,58.249 255.749,57.183 C255.688,56.891 255.732,56.588 255.882,56.329 C256.253,55.692 257.291,53.889 260.293,48.689 C263.439,63.806 263.288,60.729 256.482,62.168 ZM260.778,43.260 C260.150,44.348 259.165,45.181 257.989,45.620 C254.243,47.015 246.003,50.090 245.832,50.095 L242.453,43.757 L263.993,37.189 C264.102,37.156 264.212,37.135 264.322,37.122 L260.778,43.260 ZM258.306,47.542 C255.304,52.742 254.262,54.542 253.895,55.182 C253.746,55.441 253.506,55.631 253.222,55.724 C252.188,56.065 250.709,56.729 248.539,57.582 C246.382,50.968 243.641,52.375 258.306,47.542 ZM253.910,57.450 C254.592,64.502 256.197,61.841 248.172,67.390 C248.964,57.665 247.463,60.386 253.910,57.450 ZM272.193,28.077 C274.023,33.525 279.012,54.349 280.425,60.864 C272.074,60.686 273.676,62.647 268.205,37.135 C267.989,36.127 268.154,35.073 268.669,34.181 L272.193,28.077 ZM270.206,26.930 L266.682,33.034 C266.167,33.926 265.337,34.596 264.356,34.912 C239.527,42.931 242.026,43.336 237.696,36.193 C244.045,34.161 264.573,28.069 270.206,26.930 ZM225.449,24.410 C225.762,23.282 226.045,22.146 226.302,21.003 C246.847,55.287 252.438,59.844 241.022,77.144 L238.311,76.333 C247.096,58.368 239.428,49.548 225.790,26.845 C225.351,26.113 225.221,25.232 225.449,24.410 ZM215.562,56.750 C210.021,54.742 207.786,33.039 223.493,27.150 C234.152,40.103 221.364,57.781 215.562,56.750 ZM224.133,20.422 C223.785,21.541 223.462,22.665 223.168,23.799 C222.955,24.626 222.403,25.323 221.657,25.737 C198.494,38.579 187.444,42.383 186.069,62.335 L183.316,61.681 C182.079,40.991 189.200,39.840 224.133,20.422 ZM183.148,3.602 C187.457,7.405 202.189,22.945 206.671,27.880 C199.350,31.902 201.717,32.799 184.224,13.441 C183.533,12.675 183.148,11.681 183.148,10.650 L183.148,3.602 ZM183.148,15.371 C183.237,15.437 183.321,15.510 183.400,15.593 L198.770,32.051 L192.674,35.851 C192.529,35.761 186.930,28.978 184.384,25.897 C183.585,24.929 183.148,23.714 183.148,22.459 L183.148,15.371 ZM186.587,40.982 C185.134,39.158 184.185,37.843 183.460,37.031 C183.261,36.808 183.148,36.523 183.149,36.225 C183.151,35.487 183.148,33.407 183.148,27.403 C193.432,38.921 191.761,36.332 186.587,40.982 ZM182.001,49.659 C177.825,40.840 177.885,43.948 182.001,38.182 C186.117,43.948 186.177,40.840 182.001,49.659 ZM180.854,27.403 C180.854,33.407 180.852,35.487 180.854,36.225 C180.854,36.523 180.741,36.808 180.542,37.031 C179.817,37.843 178.868,39.158 177.415,40.982 C172.240,36.332 170.570,38.921 180.854,27.403 ZM171.328,35.851 L165.233,32.051 L180.603,15.593 C180.681,15.510 180.765,15.437 180.854,15.371 L180.854,22.459 C180.854,23.714 180.417,24.929 179.618,25.897 C177.072,28.978 171.473,35.761 171.328,35.851 ZM180.854,3.602 L180.854,10.650 C180.854,11.681 180.470,12.675 179.779,13.441 C162.286,32.799 164.652,31.902 157.332,27.880 C161.813,22.945 176.545,7.405 180.854,3.602 ZM180.686,61.681 L177.933,62.335 C176.559,42.383 165.509,38.579 142.346,25.737 C141.599,25.323 141.047,24.626 140.833,23.799 C140.540,22.665 140.217,21.541 139.869,20.422 C174.802,39.840 181.924,40.991 180.686,61.681 ZM140.509,27.150 C156.217,33.039 153.980,54.742 148.440,56.750 C142.639,57.781 129.851,40.103 140.509,27.150 ZM137.700,21.003 C137.958,22.146 138.241,23.282 138.554,24.410 C138.782,25.232 138.652,26.113 138.212,26.845 C124.574,49.548 116.906,58.368 125.692,76.333 L122.980,77.144 C111.563,59.844 117.156,55.287 137.700,21.003 ZM115.463,57.582 C113.293,56.729 111.813,56.065 110.780,55.724 C110.497,55.631 110.256,55.441 110.108,55.182 C109.740,54.542 108.698,52.742 105.696,47.542 C120.361,52.375 117.620,50.968 115.463,57.582 ZM115.831,67.390 C107.805,61.841 109.410,64.502 110.092,57.450 C116.540,60.386 115.038,57.665 115.831,67.390 ZM101.237,44.407 C101.865,45.495 102.094,46.765 101.886,48.003 C101.221,51.944 99.764,60.618 99.683,60.769 L92.505,60.526 L97.587,38.588 C97.613,38.476 97.650,38.371 97.693,38.269 L101.237,44.407 ZM99.680,37.122 C99.790,37.135 99.900,37.156 100.009,37.189 L121.548,43.757 L118.171,50.095 C118.000,50.090 109.759,47.015 106.013,45.620 C104.837,45.181 103.852,44.348 103.224,43.260 L99.680,37.122 ZM103.709,48.689 C106.711,53.889 107.750,55.692 108.119,56.329 C108.270,56.588 108.314,56.891 108.253,57.183 C108.031,58.249 107.867,59.862 107.520,62.168 C100.714,60.729 100.563,63.806 103.709,48.689 ZM126.306,36.193 C121.976,43.336 124.475,42.931 99.647,34.912 C98.665,34.596 97.836,33.926 97.320,33.034 L93.796,26.930 C99.429,28.069 119.957,34.161 126.306,36.193 ZM91.809,28.077 L95.333,34.181 C95.848,35.073 96.013,36.127 95.797,37.135 C90.327,62.647 91.927,60.686 83.577,60.864 C84.990,54.349 89.979,33.525 91.809,28.077 ZM120.702,78.459 L118.645,80.402 C107.480,63.810 96.008,66.041 69.527,66.501 C68.674,66.516 67.847,66.188 67.249,65.579 C66.428,64.744 65.586,63.931 64.725,63.137 C104.686,62.487 111.429,59.922 120.702,78.459 ZM63.137,64.725 C63.932,65.586 64.744,66.427 65.580,67.248 C66.188,67.846 66.516,68.674 66.502,69.527 C66.041,96.008 63.811,107.480 80.402,118.646 L78.459,120.703 C59.922,111.430 62.487,104.688 63.137,64.725 ZM67.391,115.832 C57.665,115.039 60.386,116.541 57.450,110.093 C64.502,109.411 61.841,107.806 67.391,115.832 ZM43.261,103.225 C44.348,103.853 45.182,104.838 45.620,106.014 C47.016,109.760 50.090,118.001 50.095,118.171 L43.758,121.550 L37.190,100.010 C37.157,99.901 37.136,99.791 37.123,99.681 L43.261,103.225 ZM38.270,97.694 C38.371,97.650 38.477,97.614 38.589,97.588 L60.526,92.505 L60.769,99.684 C60.619,99.765 51.945,101.222 48.004,101.887 C46.766,102.095 45.496,101.865 44.408,101.238 L38.270,97.694 ZM47.542,105.697 C52.742,108.699 54.543,109.741 55.182,110.108 C55.441,110.257 55.631,110.498 55.725,110.781 C56.065,111.815 56.729,113.294 57.583,115.465 C50.969,117.621 52.376,120.362 47.542,105.697 ZM62.168,107.521 C59.862,107.868 58.249,108.032 57.184,108.254 C56.892,108.315 56.588,108.271 56.330,108.121 C55.692,107.750 53.889,106.712 48.689,103.710 C63.806,100.563 60.729,100.715 62.168,107.521 ZM60.864,83.577 C60.686,91.928 62.648,90.327 37.136,95.798 C36.128,96.014 35.075,95.849 34.182,95.333 L28.079,91.809 C33.526,89.979 54.350,84.991 60.864,83.577 ZM26.932,93.797 L33.034,97.321 C33.927,97.836 34.597,98.666 34.914,99.647 C42.932,124.476 43.337,121.978 36.195,126.307 C34.162,119.958 28.070,99.430 26.932,93.797 ZM77.144,122.981 L76.333,125.693 C58.368,116.907 49.548,124.575 26.846,138.214 C26.114,138.654 25.234,138.784 24.412,138.556 C23.283,138.242 22.148,137.960 21.005,137.702 C55.288,117.157 59.845,111.565 77.144,122.981 ZM20.424,139.871 C21.543,140.219 22.667,140.542 23.801,140.835 C24.628,141.049 25.325,141.601 25.738,142.348 C38.580,165.511 42.384,176.562 62.335,177.936 L61.681,180.689 C40.992,181.927 39.841,174.805 20.424,139.871 ZM25.898,179.621 C24.930,180.421 23.716,180.857 22.461,180.857 L15.373,180.857 C15.439,180.768 15.512,180.684 15.595,180.606 L32.053,165.235 L35.852,171.330 C35.762,171.476 28.979,177.075 25.898,179.621 ZM40.983,177.418 C39.158,178.871 37.844,179.820 37.032,180.545 C36.810,180.744 36.525,180.857 36.226,180.856 C35.489,180.855 33.408,180.857 27.404,180.857 C38.922,170.573 36.333,172.243 40.983,177.418 ZM22.461,183.151 C23.716,183.151 24.930,183.588 25.898,184.387 C28.979,186.934 35.762,192.533 35.852,192.678 L32.053,198.773 L15.595,183.403 C15.512,183.325 15.439,183.240 15.373,183.151 L22.461,183.151 ZM27.404,183.151 C33.408,183.151 35.489,183.154 36.226,183.152 C36.525,183.151 36.810,183.264 37.032,183.463 C37.844,184.189 39.158,185.137 40.983,186.590 C36.333,191.765 38.922,193.435 27.404,183.151 ZM38.183,182.004 C43.949,177.888 40.842,177.828 49.660,182.004 C40.842,186.180 43.949,186.121 38.183,182.004 ZM27.881,157.334 C31.902,164.655 32.801,162.288 13.442,179.782 C12.677,180.473 11.683,180.857 10.652,180.857 L3.605,180.857 C7.407,176.548 22.946,161.816 27.881,157.334 ZM3.605,183.151 L10.652,183.151 C11.683,183.151 12.677,183.535 13.442,184.227 C32.801,201.720 31.902,199.353 27.881,206.674 C22.946,202.193 7.407,187.460 3.605,183.151 ZM61.681,183.320 L62.335,186.073 C42.384,187.447 38.580,198.497 25.738,221.661 C25.325,222.407 24.628,222.960 23.801,223.173 C22.667,223.466 21.543,223.790 20.424,224.138 C39.841,189.204 40.992,182.082 61.681,183.320 ZM21.005,226.307 C22.148,226.049 23.283,225.766 24.412,225.453 C25.234,225.225 26.114,225.355 26.846,225.794 C49.548,239.433 58.368,247.101 76.333,238.316 L77.144,241.027 C59.845,252.444 55.288,246.851 21.005,226.307 ZM44.408,262.771 C45.496,262.143 46.766,261.913 48.004,262.122 C51.945,262.786 60.619,264.244 60.769,264.325 L60.526,271.503 L38.589,266.421 C38.477,266.395 38.371,266.358 38.270,266.315 L44.408,262.771 ZM37.123,264.327 C37.136,264.218 37.157,264.108 37.190,263.998 L43.758,242.458 L50.095,245.837 C50.090,246.008 47.016,254.249 45.620,257.994 C45.182,259.170 44.348,260.156 43.261,260.783 L37.123,264.327 ZM47.542,258.311 C52.376,243.646 50.969,246.388 57.583,248.544 C56.729,250.714 56.065,252.193 55.725,253.227 C55.631,253.511 55.441,253.751 55.182,253.900 C54.543,254.267 52.742,255.309 47.542,258.311 ZM36.195,237.701 C43.337,242.030 42.932,239.532 34.914,264.361 C34.597,265.343 33.927,266.172 33.034,266.687 L26.932,270.211 C28.070,264.579 34.162,244.050 36.195,237.701 ZM28.079,272.199 L34.182,268.675 C35.075,268.159 36.128,267.994 37.136,268.211 C62.648,273.681 60.686,272.081 60.864,280.431 C54.350,279.017 33.526,274.029 28.079,272.199 ZM48.689,260.299 C53.889,257.296 55.692,256.258 56.330,255.888 C56.588,255.738 56.892,255.694 57.184,255.754 C58.249,255.977 59.862,256.141 62.168,256.487 C60.729,263.294 63.806,263.445 48.689,260.299 ZM57.450,253.915 C60.386,247.468 57.665,248.970 67.391,248.177 C61.841,256.203 64.502,254.598 57.450,253.915 ZM63.137,299.284 C62.487,259.321 59.922,252.578 78.459,243.305 L80.402,245.362 C63.811,256.528 66.041,268.000 66.502,294.482 C66.516,295.335 66.188,296.162 65.580,296.760 C64.744,297.581 63.932,298.423 63.137,299.284 ZM64.725,300.872 C65.586,300.077 66.428,299.265 67.249,298.429 C67.847,297.820 68.674,297.493 69.527,297.507 C96.008,297.968 107.480,300.199 118.645,283.606 L120.702,285.549 C111.429,304.087 104.686,301.522 64.725,300.872 ZM101.886,316.006 C102.094,317.244 101.865,318.514 101.237,319.601 L97.693,325.739 C97.650,325.638 97.613,325.532 97.587,325.421 L92.505,303.483 L99.683,303.240 C99.764,303.390 101.221,312.065 101.886,316.006 ZM107.520,301.840 C107.867,304.146 108.031,305.760 108.253,306.825 C108.314,307.118 108.270,307.421 108.119,307.679 C107.750,308.317 106.711,310.120 103.709,315.319 C100.563,300.202 100.714,303.280 107.520,301.840 ZM103.224,320.748 C103.852,319.661 104.837,318.827 106.013,318.389 C109.759,316.994 118.000,313.919 118.171,313.914 L121.548,320.252 L100.009,326.819 C99.900,326.853 99.790,326.873 99.680,326.886 L103.224,320.748 ZM105.696,316.467 C108.698,311.267 109.740,309.466 110.108,308.827 C110.256,308.568 110.497,308.377 110.780,308.284 C111.813,307.944 113.293,307.279 115.463,306.427 C117.620,313.041 120.361,311.633 105.696,316.467 ZM110.092,306.558 C109.410,299.506 107.805,302.167 115.831,296.618 C115.038,306.344 116.540,303.623 110.092,306.558 ZM91.809,335.931 C89.979,330.484 84.990,309.660 83.577,303.144 C91.927,303.322 90.327,301.361 95.797,326.873 C96.013,327.882 95.848,328.935 95.333,329.828 L91.809,335.931 ZM93.796,337.078 L97.320,330.975 C97.836,330.082 98.665,329.413 99.647,329.096 C124.475,321.077 121.976,320.672 126.306,327.815 C119.957,329.848 99.429,335.939 93.796,337.078 ZM138.554,339.598 C138.241,340.727 137.958,341.862 137.700,343.005 C117.156,308.722 111.563,304.165 122.980,286.865 L125.692,287.675 C116.906,305.641 124.574,314.461 138.212,337.164 C138.652,337.895 138.782,338.776 138.554,339.598 ZM148.440,307.259 C153.980,309.266 156.217,330.970 140.509,336.859 C129.851,323.905 142.639,306.227 148.440,307.259 ZM139.869,343.587 C140.217,342.467 140.540,341.343 140.833,340.209 C141.047,339.383 141.599,338.685 142.346,338.271 C165.509,325.429 176.559,321.625 177.933,301.674 L180.686,302.328 C181.924,323.018 174.802,324.168 139.869,343.587 ZM180.854,360.406 C176.545,356.604 161.813,341.063 157.332,336.129 C164.652,332.107 162.286,331.209 179.779,350.568 C180.470,351.333 180.854,352.328 180.854,353.358 L180.854,360.406 ZM180.854,348.638 C180.765,348.571 180.681,348.499 180.603,348.415 L165.233,331.957 L171.328,328.158 C171.473,328.247 177.072,335.031 179.618,338.112 C180.417,339.079 180.854,340.294 180.854,341.549 L180.854,348.638 ZM177.415,323.027 C178.868,324.851 179.817,326.166 180.542,326.977 C180.741,327.200 180.854,327.485 180.854,327.784 C180.852,328.521 180.854,330.602 180.854,336.606 C170.570,325.088 172.240,327.677 177.415,323.027 ZM182.001,314.349 C186.177,323.168 186.117,320.061 182.001,325.827 C177.885,320.061 177.825,323.168 182.001,314.349 ZM183.148,336.606 C183.148,330.602 183.151,328.521 183.149,327.784 C183.148,327.485 183.261,327.200 183.460,326.977 C184.185,326.166 185.134,324.851 186.587,323.027 C191.761,327.677 193.432,325.088 183.148,336.606 ZM192.674,328.158 L198.770,331.957 L183.400,348.415 C183.321,348.499 183.237,348.571 183.148,348.638 L183.148,341.549 C183.148,340.294 183.585,339.079 184.384,338.112 C186.930,335.031 192.529,328.247 192.674,328.158 ZM183.148,360.406 L183.148,353.358 C183.148,352.328 183.533,351.333 184.224,350.568 C201.717,331.209 199.350,332.107 206.671,336.129 C202.189,341.063 187.457,356.604 183.148,360.406 ZM183.316,302.328 L186.069,301.674 C187.444,321.625 198.494,325.429 221.657,338.271 C222.403,338.685 222.955,339.383 223.168,340.209 C223.462,341.343 223.785,342.467 224.133,343.587 C189.200,324.168 182.079,323.018 183.316,302.328 ZM223.493,336.859 C207.786,330.970 210.021,309.266 215.562,307.259 C221.364,306.227 234.152,323.905 223.493,336.859 ZM226.302,343.005 C226.045,341.862 225.762,340.727 225.449,339.598 C225.221,338.776 225.351,337.895 225.790,337.164 C239.428,314.461 247.096,305.641 238.311,287.675 L241.022,286.865 C252.438,304.165 246.847,308.722 226.302,343.005 ZM248.539,306.427 C250.709,307.279 252.188,307.944 253.222,308.284 C253.506,308.377 253.746,308.568 253.895,308.827 C254.262,309.466 255.304,311.267 258.306,316.467 C243.641,311.633 246.382,313.041 248.539,306.427 ZM248.172,296.618 C256.197,302.167 254.592,299.506 253.910,306.558 C247.463,303.623 248.964,306.344 248.172,296.618 ZM262.765,319.601 C262.137,318.514 261.908,317.244 262.117,316.006 C262.781,312.065 264.238,303.390 264.319,303.240 L271.497,303.483 L266.415,325.421 C266.389,325.532 266.352,325.638 266.309,325.739 L262.765,319.601 ZM264.322,326.886 C264.212,326.873 264.102,326.853 263.993,326.819 L242.453,320.252 L245.832,313.914 C246.003,313.919 254.243,316.994 257.989,318.389 C259.165,318.827 260.150,319.661 260.778,320.748 L264.322,326.886 ZM260.293,315.319 C257.291,310.120 256.253,308.317 255.882,307.679 C255.732,307.421 255.688,307.118 255.749,306.825 C255.971,305.760 256.136,304.146 256.482,301.840 C263.288,303.280 263.439,300.202 260.293,315.319 ZM237.696,327.815 C242.026,320.672 239.527,321.077 264.356,329.096 C265.337,329.413 266.167,330.082 266.682,330.975 L270.206,337.078 C264.573,335.939 244.045,329.848 237.696,327.815 ZM272.193,335.931 L268.669,329.828 C268.154,328.935 267.989,327.882 268.205,326.873 C273.676,301.361 272.074,303.322 280.425,303.144 C279.012,309.660 274.023,330.484 272.193,335.931 ZM243.300,285.549 L245.357,283.606 C256.523,300.199 267.994,297.968 294.475,297.507 C295.328,297.493 296.155,297.820 296.754,298.429 C297.574,299.265 298.416,300.077 299.277,300.872 C259.316,301.522 252.573,304.087 243.300,285.549 ZM300.866,299.284 C300.070,298.423 299.258,297.581 298.422,296.760 C297.814,296.162 297.486,295.335 297.500,294.482 C297.960,268.000 300.192,256.528 283.600,245.362 L285.544,243.305 C304.080,252.578 301.515,259.321 300.866,299.284 ZM296.612,248.177 C306.337,248.970 303.616,247.468 306.551,253.915 C299.499,254.598 302.161,256.203 296.612,248.177 ZM320.741,260.783 C319.654,260.156 318.820,259.170 318.382,257.994 C316.987,254.249 313.912,246.008 313.907,245.837 L320.244,242.458 L326.812,263.998 C326.845,264.108 326.866,264.218 326.879,264.327 L320.741,260.783 ZM325.732,266.315 C325.630,266.358 325.525,266.395 325.414,266.421 L303.476,271.503 L303.233,264.325 C303.383,264.244 312.058,262.786 315.998,262.122 C317.236,261.913 318.506,262.143 319.594,262.771 L325.732,266.315 ZM316.460,258.311 C311.261,255.309 309.460,254.267 308.820,253.900 C308.561,253.751 308.371,253.511 308.277,253.227 C307.937,252.193 307.272,250.714 306.420,248.544 C313.034,246.388 311.626,243.646 316.460,258.311 ZM301.834,256.487 C304.140,256.141 305.753,255.977 306.818,255.754 C307.111,255.694 307.413,255.738 307.672,255.888 C308.310,256.258 310.113,257.296 315.312,260.299 C300.195,263.445 303.273,263.294 301.834,256.487 ZM303.138,280.431 C303.316,272.081 301.355,273.681 326.866,268.211 C327.874,267.994 328.927,268.159 329.820,268.675 L335.924,272.199 C330.476,274.029 309.653,279.017 303.138,280.431 ZM337.071,270.211 L330.967,266.687 C330.075,266.172 329.405,265.343 329.088,264.361 C321.070,239.532 320.665,242.030 327.807,237.701 C329.840,244.050 335.932,264.579 337.071,270.211 ZM286.858,241.027 L287.669,238.316 C305.634,247.101 314.453,239.433 337.156,225.794 C337.888,225.355 338.768,225.225 339.590,225.453 C340.719,225.766 341.855,226.049 342.998,226.307 C308.714,246.851 304.158,252.444 286.858,241.027 ZM343.579,224.138 C342.460,223.790 341.335,223.466 340.201,223.173 C339.375,222.960 338.678,222.407 338.264,221.661 C325.422,198.497 321.618,187.447 301.667,186.073 L302.321,183.320 C323.010,182.082 324.161,189.204 343.579,224.138 ZM336.121,206.674 C332.100,199.353 331.202,201.720 350.560,184.227 C351.324,183.535 352.319,183.151 353.351,183.151 L360.397,183.151 C356.595,187.460 341.055,202.193 336.121,206.674 Z"/>
</svg>