<svg 
 xmlns="http://www.w3.org/2000/svg"
 xmlns:xlink="http://www.w3.org/1999/xlink"
 width="820px" height="820px">
<path fill-rule="evenodd"  opacity="0.212" fill="rgb(196, 203, 221)"
 d="M721.084,646.525 L411.722,800.960 C324.095,844.704 217.218,809.003 173.473,721.375 L19.038,412.013 C-24.705,324.386 10.996,217.508 98.624,173.765 L407.985,19.330 C495.612,-24.414 602.490,11.288 646.233,98.915 L800.668,408.276 C844.412,495.904 808.711,602.781 721.084,646.525 ZM799.499,408.860 L645.064,99.498 C601.642,12.516 495.551,-22.923 408.568,20.499 L99.206,174.934 C12.224,218.356 -23.215,324.448 20.207,411.430 L174.643,720.792 C218.065,807.774 324.157,843.213 411.139,799.791 L720.500,645.356 C807.482,601.934 842.921,495.842 799.499,408.860 ZM710.698,592.496 L448.327,759.830 C443.535,762.888 438.636,765.659 433.659,768.143 C361.419,804.206 271.862,780.546 227.501,710.991 L60.168,448.618 C37.198,412.603 29.629,369.799 38.853,328.090 C48.078,286.382 72.993,250.763 109.008,227.793 L371.380,60.459 C407.399,37.491 450.200,29.920 491.908,39.144 C533.617,48.370 569.236,73.284 592.205,109.300 L759.538,371.671 C782.509,407.686 790.078,450.490 780.853,492.200 C771.629,533.908 746.714,569.527 710.698,592.496 ZM758.438,372.375 L591.104,110.002 C568.321,74.282 532.994,49.570 491.625,40.421 C455.803,32.498 419.162,37.066 386.787,53.228 C381.777,55.729 376.870,58.507 372.082,61.560 L109.710,228.894 C73.990,251.675 49.278,287.004 40.130,328.372 C30.980,369.740 38.487,412.195 61.270,447.916 L228.602,710.288 C272.597,779.270 361.429,802.733 433.076,766.974 C438.018,764.507 442.867,761.764 447.625,758.730 L709.996,591.395 C745.717,568.613 770.428,533.285 779.578,491.918 C788.727,450.550 781.220,408.095 758.438,372.375 ZM696.327,545.113 L477.228,719.570 C469.190,725.970 460.671,731.370 451.825,735.785 C392.312,765.495 317.944,750.694 274.886,696.618 L100.428,477.520 C50.971,415.406 61.267,324.636 123.380,275.178 L342.479,100.720 C404.591,51.267 495.362,61.559 544.821,123.671 L719.278,342.771 C743.237,372.860 754.043,410.478 749.708,448.695 C745.373,486.912 726.415,521.154 696.327,545.113 ZM718.255,343.584 L543.798,124.486 C501.133,70.904 427.433,56.235 368.465,85.672 C359.696,90.050 351.261,95.398 343.293,101.743 L124.194,276.201 C94.377,299.941 75.592,333.872 71.296,371.742 C67.001,409.613 77.709,446.889 101.450,476.706 L275.909,695.804 C324.917,757.355 414.865,767.558 476.414,718.548 L695.513,544.089 C757.062,495.079 767.265,405.135 718.255,343.584 ZM499.312,680.810 C489.373,690.587 478.233,698.437 466.384,704.353 C417.471,728.771 356.312,720.331 315.952,679.302 L139.189,499.605 C114.900,474.914 101.682,442.244 101.967,407.612 C102.252,372.979 116.005,340.531 140.697,316.243 L320.394,139.480 C345.083,115.192 377.753,101.973 412.386,102.258 C447.019,102.544 479.467,116.298 503.755,140.989 L680.518,320.686 C704.805,345.376 718.024,378.046 717.738,412.678 C717.454,447.311 703.699,479.759 679.009,504.047 L499.312,680.810 ZM679.586,321.602 L502.822,141.905 C462.872,101.292 402.323,92.936 353.906,117.105 C342.173,122.963 331.153,130.730 321.310,140.412 L141.612,317.175 C117.171,341.218 103.556,373.339 103.274,407.622 C102.991,441.906 116.077,474.247 140.119,498.688 L316.883,678.385 C340.926,702.826 373.047,716.443 407.330,716.724 C441.613,717.006 473.955,703.919 498.396,679.878 L678.092,503.115 C702.534,479.073 716.150,446.951 716.432,412.668 C716.715,378.386 703.630,346.044 679.586,321.602 ZM515.440,644.036 C504.736,657.034 491.782,667.123 477.608,674.199 C437.584,694.180 387.786,690.167 351.086,659.944 L175.964,515.730 C151.889,495.905 136.976,467.891 133.971,436.848 C130.965,405.805 140.230,375.451 160.055,351.376 L304.268,176.256 C324.092,152.179 352.106,137.266 383.150,134.262 C414.192,131.257 444.546,140.521 468.622,160.347 L643.743,304.559 C693.442,345.486 700.578,419.215 659.650,468.914 L515.440,644.036 ZM642.912,305.568 L467.791,161.355 C443.986,141.751 413.971,132.591 383.275,135.563 C368.949,136.950 355.270,140.903 342.767,147.144 C328.483,154.276 315.730,164.392 305.276,177.086 L161.064,352.207 C141.460,376.012 132.300,406.027 135.271,436.722 C138.243,467.417 152.988,495.118 176.793,514.722 L351.916,658.935 C401.058,699.404 473.960,692.344 514.429,643.204 L658.642,468.082 C699.111,418.941 692.054,346.036 642.912,305.568 ZM526.418,609.596 C516.100,625.201 502.145,637.509 485.844,645.647 C477.672,649.726 468.911,652.758 459.722,654.632 C432.202,660.245 404.144,654.805 380.715,639.315 L210.403,526.710 C186.974,511.219 170.980,487.533 165.367,460.013 C159.754,432.494 165.193,404.435 180.683,381.007 L293.288,210.695 C308.778,187.266 332.463,171.271 359.984,165.659 C387.504,160.045 415.563,165.485 438.991,180.976 L609.304,293.581 C632.732,309.071 648.726,332.757 654.339,360.276 C659.953,387.797 654.512,415.855 639.022,439.283 L526.418,609.596 ZM653.059,360.538 C647.516,333.360 631.720,309.967 608.584,294.670 L438.270,182.065 C415.134,166.768 387.423,161.395 360.246,166.939 C351.172,168.790 342.517,171.785 334.448,175.812 C318.347,183.850 304.569,196.003 294.378,211.416 L181.773,381.727 C166.475,404.864 161.104,432.574 166.648,459.752 C172.191,486.930 187.987,510.322 211.123,525.620 L381.437,638.226 C404.573,653.522 432.283,658.896 459.461,653.351 C486.638,647.810 510.030,632.011 525.328,608.875 L637.933,438.563 C653.231,415.425 658.603,387.716 653.059,360.538 ZM533.008,577.730 C523.682,595.668 509.218,609.845 491.474,618.703 C487.015,620.929 482.352,622.818 477.508,624.347 C453.388,631.967 427.744,629.736 405.302,618.067 L242.267,533.300 C219.824,521.632 203.269,501.922 195.650,477.800 C188.031,453.680 190.263,428.036 201.931,405.594 L286.699,242.560 C298.367,220.115 318.078,203.561 342.198,195.942 C366.318,188.322 391.962,190.554 414.405,202.223 L577.439,286.990 C599.882,298.658 616.438,318.369 624.056,342.489 C631.674,366.610 629.444,392.254 617.775,414.696 L533.008,577.730 ZM622.810,342.884 C615.297,319.095 598.971,299.657 576.837,288.149 L413.803,203.382 C386.252,189.058 354.772,189.859 328.911,202.769 C311.882,211.271 297.290,225.022 287.857,243.161 L203.091,406.196 C191.582,428.329 189.383,453.619 196.896,477.407 C204.409,501.195 220.737,520.633 242.869,532.141 L405.903,616.907 C428.037,628.416 453.327,630.615 477.115,623.101 C500.906,615.589 520.341,599.261 531.849,577.129 L616.616,414.094 C628.123,391.961 630.323,366.671 622.810,342.884 ZM535.911,548.584 C527.897,568.961 512.854,584.538 494.653,593.624 C473.761,604.054 448.706,605.939 425.316,596.739 L271.414,536.204 C227.647,518.989 206.044,469.376 223.259,425.608 L283.794,271.705 C301.010,227.937 350.623,206.336 394.390,223.551 L548.292,284.086 C592.060,301.301 613.662,350.915 596.447,394.682 L535.911,548.584 ZM547.814,285.301 L393.912,224.767 C370.883,215.709 346.207,217.566 325.637,227.834 C307.712,236.783 292.904,252.115 285.010,272.183 L224.475,426.086 C216.264,446.963 216.674,469.789 225.630,490.357 C234.584,510.926 251.015,526.777 271.892,534.987 L425.794,595.522 C468.890,612.474 517.744,591.202 534.697,548.107 L595.232,394.205 C612.182,351.107 590.910,302.254 547.814,285.301 ZM535.772,522.217 C529.733,544.034 514.809,561.054 495.991,570.448 C479.594,578.634 460.241,581.030 441.230,575.769 L297.782,536.062 C256.952,524.762 232.929,482.351 244.230,441.522 L283.935,298.073 C289.409,278.295 302.257,261.832 320.115,251.717 C337.969,241.601 358.698,239.048 378.477,244.522 L521.925,284.227 C541.703,289.701 558.165,302.550 568.281,320.407 C578.395,338.263 580.950,358.990 575.475,378.768 L535.772,522.217 ZM567.142,321.050 C557.201,303.498 541.018,290.867 521.576,285.486 L378.128,245.781 C359.442,240.609 340.415,242.965 324.298,251.011 C305.799,260.246 291.131,276.973 285.194,298.422 L245.489,441.870 C234.381,482.005 257.996,523.695 298.130,534.804 L441.579,574.509 C481.714,585.616 523.404,562.001 534.512,521.868 L574.216,378.419 C579.598,358.977 577.086,338.604 567.142,321.050 ZM533.166,498.622 C530.124,516.857 520.162,532.816 505.118,543.560 C502.097,545.716 498.944,547.612 495.686,549.238 C482.717,555.713 468.083,557.934 453.507,555.501 L321.377,533.458 C283.733,527.178 258.217,491.443 264.496,453.799 L286.540,321.668 C292.820,284.026 328.555,258.507 366.199,264.788 L498.330,286.832 C535.974,293.111 561.490,328.847 555.210,366.490 L533.166,498.622 ZM498.114,288.120 L365.984,266.077 C351.322,263.631 336.950,266.103 324.570,272.283 C305.764,281.671 291.544,299.612 287.828,321.883 L265.785,454.015 C262.801,471.905 266.962,489.889 277.503,504.650 C288.043,519.411 303.700,529.185 321.592,532.169 L453.722,554.213 C471.612,557.196 489.596,553.039 504.358,542.496 C519.119,531.957 528.893,516.298 531.878,498.407 L553.921,366.275 C560.082,329.342 535.047,294.283 498.114,288.120 ZM528.616,477.741 C527.607,494.367 520.184,509.604 507.716,520.648 C503.553,524.334 498.992,527.407 494.146,529.826 C484.478,534.653 473.672,536.880 462.597,536.207 L342.257,528.907 C307.936,526.825 281.709,497.210 283.790,462.889 L291.091,342.549 C292.100,325.924 299.521,310.686 311.991,299.643 C324.459,288.600 340.482,283.073 357.109,284.082 L477.449,291.382 C494.075,292.391 509.312,299.813 520.355,312.283 C531.398,324.752 536.924,340.775 535.916,357.400 L528.616,477.741 ZM519.376,313.149 C508.566,300.941 493.647,293.674 477.370,292.687 L357.029,285.387 C346.187,284.728 335.606,286.909 326.142,291.634 C321.397,294.003 316.933,297.011 312.856,300.621 C300.649,311.432 293.383,326.351 292.395,342.628 L285.095,462.968 C283.057,496.570 308.735,525.565 342.336,527.604 L462.677,534.905 C478.955,535.892 494.640,530.480 506.849,519.669 C519.057,508.857 526.324,493.939 527.312,477.662 L534.611,357.321 C535.599,341.045 530.189,325.357 519.376,313.149 ZM491.468,512.257 C484.645,515.663 477.022,517.726 468.924,518.083 L360.526,522.871 C345.533,523.533 331.179,518.316 320.108,508.182 C309.037,498.048 302.577,484.211 301.915,469.217 L297.128,360.817 C295.761,329.867 319.829,303.573 350.780,302.207 L459.181,297.420 C490.132,296.052 516.424,320.121 517.791,351.073 L522.578,459.472 C523.588,482.328 510.727,502.643 491.468,512.257 ZM521.274,459.530 L516.486,351.130 C515.151,320.899 489.470,297.390 459.239,298.725 L350.838,303.512 C342.933,303.861 335.483,305.878 328.820,309.203 C310.008,318.594 297.447,338.435 298.433,360.761 L303.220,469.160 C304.555,499.391 330.236,522.900 360.468,521.565 L468.866,516.778 C499.099,515.444 522.608,489.761 521.274,459.530 ZM487.966,496.513 C483.338,498.824 478.278,500.458 472.891,501.265 L376.316,515.746 C362.941,517.753 349.585,514.431 338.710,506.391 C327.833,498.351 320.739,486.558 318.733,473.183 L304.251,376.608 C300.110,348.996 319.208,323.165 346.815,319.025 L443.390,304.543 C471.000,300.402 496.832,319.497 500.972,347.107 L515.455,443.682 C518.787,465.907 507.066,486.979 487.966,496.513 ZM514.162,443.877 L499.680,347.302 C495.647,320.403 470.481,301.801 443.584,305.835 L347.010,320.318 C341.763,321.104 336.830,322.696 332.322,324.946 C313.714,334.235 302.296,354.761 305.543,376.413 L320.025,472.989 C321.979,486.018 328.890,497.508 339.486,505.340 C350.081,513.172 363.092,516.409 376.121,514.454 L472.697,499.973 C499.599,495.936 518.197,470.775 514.162,443.877 ZM483.889,482.462 C481.039,483.885 478.021,485.018 474.864,485.836 L389.786,507.885 C365.427,514.197 340.474,499.516 334.162,475.157 L312.113,390.078 C309.056,378.278 310.776,365.993 316.957,355.488 C323.139,344.982 333.043,337.511 344.841,334.453 L429.920,312.405 C454.279,306.093 479.231,320.774 485.544,345.133 L507.593,430.211 C510.650,442.012 508.930,454.296 502.749,464.803 C498.220,472.498 491.694,478.566 483.889,482.462 ZM501.622,464.139 C507.628,453.935 509.299,442.002 506.328,430.541 L484.279,345.461 C478.148,321.800 453.909,307.538 430.247,313.670 L345.169,335.719 C342.108,336.512 339.203,337.609 336.480,338.968 C318.158,348.114 308.041,369.151 313.379,389.750 L335.427,474.830 C341.558,498.489 365.797,512.750 389.458,506.619 L474.537,484.571 C485.999,481.601 495.619,474.346 501.622,464.139 ZM348.159,475.478 L320.420,401.402 C316.568,391.111 316.952,379.936 321.503,369.935 C326.055,359.935 334.223,352.303 344.519,348.451 L418.597,320.713 C428.887,316.859 440.062,317.244 450.064,321.796 C460.064,326.347 467.695,334.521 471.546,344.812 L499.286,418.889 C503.139,429.179 502.755,440.354 498.202,450.355 C494.262,459.015 487.603,465.899 479.207,470.089 C477.907,470.738 476.567,471.322 475.187,471.839 L401.110,499.578 C379.867,507.532 356.113,496.721 348.159,475.478 ZM497.013,449.813 C501.421,440.130 501.794,429.311 498.062,419.346 L470.324,345.269 C466.593,335.306 459.205,327.392 449.522,322.985 C439.838,318.578 429.018,318.205 419.055,321.936 L344.977,349.675 C343.643,350.175 342.344,350.741 341.085,351.368 C332.955,355.427 326.510,362.091 322.694,370.477 C318.286,380.159 317.913,390.980 321.644,400.943 L349.383,475.022 C357.084,495.588 380.083,506.055 400.652,498.354 L474.728,470.615 C484.692,466.884 492.606,459.497 497.013,449.813 ZM360.719,474.456 L328.924,410.761 C319.789,392.464 327.244,370.146 345.541,361.012 L409.237,329.215 C427.535,320.081 449.851,327.536 458.985,345.833 L490.783,409.528 C499.916,427.825 492.462,450.143 474.164,459.277 L410.469,491.075 C392.172,500.209 369.854,492.752 360.719,474.456 ZM473.580,458.108 C491.234,449.296 498.427,427.765 489.613,410.112 L457.816,346.417 C449.005,328.764 427.474,321.572 409.821,330.385 L346.125,362.182 C328.472,370.994 321.280,392.525 330.092,410.178 L361.888,473.872 C370.702,491.526 392.232,498.718 409.886,489.905 L473.580,458.108 ZM371.872,472.366 L337.419,418.345 C327.502,402.796 332.084,382.080 347.633,372.163 L401.653,337.711 C417.199,327.802 437.918,332.376 447.835,347.925 L482.287,401.945 C492.204,417.494 487.622,438.211 472.073,448.127 L418.053,482.579 C417.044,483.222 416.008,483.810 414.951,484.337 C408.126,487.745 400.400,488.707 392.847,487.037 C384.124,485.108 376.675,479.898 371.872,472.366 ZM417.351,481.478 L471.371,447.026 C486.311,437.496 490.714,417.587 481.186,402.647 L446.733,348.627 C437.819,334.650 419.820,329.895 405.303,337.141 C404.302,337.641 403.319,338.197 402.356,338.812 L348.335,373.264 C341.098,377.881 336.091,385.039 334.237,393.421 C332.383,401.803 333.904,410.405 338.520,417.643 L372.972,471.663 C377.589,478.901 384.748,483.908 393.129,485.761 C401.512,487.615 410.115,486.089 417.351,481.478 ZM350.547,381.951 L395.658,346.031 C408.671,335.672 427.687,337.826 438.048,350.839 L473.967,395.950 C478.986,402.254 481.250,410.134 480.342,418.141 C479.434,426.147 475.462,433.320 469.159,438.339 L424.048,474.260 C422.365,475.599 420.579,476.731 418.727,477.655 C406.259,483.882 390.679,480.779 381.658,469.450 L345.739,424.340 C335.377,411.327 337.535,392.311 350.547,381.951 ZM382.682,468.637 C392.595,481.086 410.789,483.154 423.233,473.236 L468.345,437.317 C474.376,432.516 478.174,425.653 479.043,417.993 C479.913,410.334 477.746,402.794 472.944,396.764 L437.025,351.654 C432.224,345.622 425.361,341.823 417.702,340.955 C412.091,340.318 406.543,341.310 401.606,343.774 C399.805,344.674 398.085,345.769 396.472,347.053 L351.361,382.973 C338.913,392.885 336.849,411.077 346.761,423.525 L382.682,468.637 ZM354.073,390.442 L391.070,354.047 C396.252,348.951 403.110,346.176 410.379,346.235 C417.647,346.295 424.458,349.182 429.556,354.364 L465.951,391.362 C471.048,396.544 473.823,403.401 473.763,410.671 C473.703,417.940 470.817,424.751 465.634,429.848 L428.635,466.243 C426.549,468.296 424.212,469.942 421.725,471.184 C411.458,476.308 398.621,474.538 390.150,465.926 L353.756,428.928 C348.657,423.745 345.883,416.888 345.943,409.619 C346.002,402.350 348.890,395.539 354.073,390.442 ZM354.687,428.012 L391.082,465.010 C401.099,475.194 417.537,475.332 427.720,465.312 L464.717,428.916 C469.651,424.063 472.399,417.579 472.457,410.660 C472.514,403.740 469.872,397.213 465.018,392.278 L428.624,355.280 C423.772,350.347 417.289,347.599 410.368,347.541 C406.219,347.508 402.211,348.444 398.602,350.245 C396.192,351.448 393.962,353.036 391.986,354.979 L354.988,391.374 C350.055,396.226 347.307,402.710 347.250,409.629 C347.193,416.549 349.834,423.078 354.687,428.012 ZM358.021,397.715 L387.714,361.659 C391.883,356.597 397.776,353.458 404.304,352.826 C410.834,352.194 417.219,354.143 422.282,358.314 L458.339,388.006 C463.402,392.175 466.539,398.067 467.171,404.597 C467.803,411.126 465.855,417.511 461.684,422.575 L431.994,458.631 C429.742,461.365 427.018,463.487 424.036,464.975 C415.618,469.178 405.143,468.334 397.423,461.977 L361.368,432.284 C350.915,423.677 349.413,408.169 358.021,397.715 ZM362.198,431.276 L398.255,460.969 C408.152,469.118 422.834,467.697 430.984,457.799 L460.675,421.744 C464.624,416.950 466.469,410.905 465.871,404.723 C465.273,398.542 462.303,392.963 457.508,389.014 L421.452,359.321 C416.658,355.374 410.613,353.529 404.431,354.127 C401.546,354.407 398.791,355.203 396.274,356.460 C393.396,357.896 390.828,359.933 388.722,362.490 L359.030,398.545 C350.879,408.442 352.301,423.126 362.198,431.276 ZM362.236,403.859 L385.420,368.794 C388.686,363.854 393.680,360.483 399.482,359.300 C405.284,358.116 411.199,359.262 416.138,362.528 L451.204,385.712 C456.144,388.979 459.515,393.971 460.699,399.774 C461.883,405.576 460.736,411.491 457.470,416.431 L434.286,451.496 C432.069,454.849 429.089,457.405 425.727,459.083 C418.865,462.508 410.411,462.285 403.568,457.761 L368.502,434.578 C363.563,431.311 360.191,426.318 359.007,420.516 C357.824,414.715 358.971,408.799 362.236,403.859 ZM360.288,420.255 C361.402,425.715 364.575,430.415 369.223,433.487 L404.288,456.671 C413.884,463.015 426.849,460.369 433.196,450.777 L456.379,415.709 C459.453,411.061 460.533,405.495 459.419,400.035 C458.305,394.575 455.132,389.875 450.484,386.803 L415.417,363.618 C410.770,360.544 405.203,359.465 399.743,360.579 C397.920,360.951 396.181,361.553 394.560,362.362 C391.326,363.977 388.558,366.418 386.510,369.515 L363.326,404.581 C360.253,409.228 359.174,414.796 360.288,420.255 ZM384.036,375.402 C386.502,370.658 390.669,367.161 395.767,365.548 C400.865,363.937 406.286,364.409 411.029,366.875 L444.596,384.328 C449.340,386.795 452.840,390.961 454.450,396.059 C456.061,401.158 455.589,406.578 453.123,411.321 L435.671,444.889 C433.649,448.776 430.521,451.723 426.872,453.545 C421.329,456.312 414.581,456.483 408.677,453.414 L375.110,435.961 C370.366,433.496 366.866,429.329 365.256,424.231 C363.646,419.133 364.117,413.712 366.584,408.969 L384.036,375.402 ZM366.502,423.838 C368.007,428.602 371.278,432.498 375.712,434.802 L409.279,452.255 C418.433,457.015 429.751,453.438 434.511,444.287 L451.963,410.719 C454.269,406.285 454.710,401.218 453.204,396.452 C451.699,391.687 448.428,387.792 443.994,385.488 L410.428,368.035 C405.993,365.730 400.926,365.288 396.161,366.794 C395.204,367.096 394.283,367.470 393.402,367.909 C389.895,369.659 387.038,372.460 385.195,376.003 L367.743,409.572 C365.438,414.005 364.997,419.072 366.502,423.838 ZM383.416,381.452 C385.184,376.958 388.595,373.418 393.024,371.493 C397.452,369.565 402.365,369.476 406.859,371.244 L438.546,383.708 C447.824,387.356 452.403,397.873 448.754,407.151 L436.290,438.837 C434.642,443.031 431.562,446.390 427.561,448.387 C427.273,448.531 426.980,448.668 426.683,448.796 C422.255,450.724 417.341,450.813 412.847,449.046 L381.160,436.582 C371.882,432.933 367.304,422.417 370.952,413.138 L383.416,381.452 ZM381.638,435.367 L413.325,447.829 C417.494,449.470 422.053,449.388 426.162,447.599 C430.272,445.811 433.435,442.529 435.074,438.361 L447.538,406.673 C449.177,402.504 449.096,397.945 447.307,393.837 C445.519,389.729 442.237,386.564 438.068,384.924 L406.381,372.460 C402.212,370.820 397.654,370.903 393.545,372.691 C393.269,372.810 392.998,372.937 392.731,373.071 C389.019,374.923 386.162,378.040 384.631,381.930 L372.168,413.617 C368.783,422.224 373.031,431.980 381.638,435.367 Z"/>
</svg>