<svg 
 xmlns="http://www.w3.org/2000/svg"
 xmlns:xlink="http://www.w3.org/1999/xlink"
 width="618px" height="618px">
<path fill-rule="evenodd"  opacity="0.678" fill="rgb(183, 190, 213)"
 d="M614.435,225.818 L561.015,501.026 C545.883,578.980 470.154,630.089 392.201,614.958 L116.991,561.538 C39.039,546.407 -12.071,470.678 3.060,392.724 L56.480,117.515 C71.611,39.562 147.342,-11.547 225.294,3.584 L500.503,57.004 C578.457,72.135 629.566,147.865 614.435,225.818 ZM500.302,58.044 L225.092,4.623 C147.713,-10.396 72.540,40.337 57.520,117.717 L4.100,392.926 C-10.920,470.306 39.813,545.478 117.193,560.498 L392.402,613.918 C469.782,628.938 544.955,578.205 559.975,500.825 L613.395,225.616 C628.415,148.236 577.681,73.064 500.302,58.044 ZM552.636,457.178 C549.627,491.681 533.361,522.947 506.835,545.217 C480.309,567.486 446.700,578.092 412.197,575.083 L160.840,553.159 C156.249,552.760 151.730,552.123 147.303,551.263 C83.037,538.789 37.122,479.356 42.935,412.721 L64.859,161.364 C67.869,126.859 84.134,95.595 110.659,73.324 C137.184,51.055 170.794,40.449 205.298,43.458 L456.655,65.382 C491.160,68.394 522.424,84.657 544.694,111.182 C566.962,137.708 577.569,171.318 574.560,205.821 L552.636,457.178 ZM543.882,111.864 C524.754,89.081 498.935,73.929 470.134,68.338 C465.677,67.473 461.150,66.837 456.563,66.437 L205.206,44.513 C170.985,41.528 137.649,52.048 111.341,74.136 C85.032,96.223 68.899,127.234 65.914,161.455 L43.990,412.812 C38.226,478.898 83.771,537.847 147.505,550.223 C151.901,551.077 156.374,551.707 160.932,552.105 L412.289,574.028 C446.510,577.012 479.846,566.493 506.153,544.406 C532.463,522.318 548.596,491.307 551.581,457.086 L573.505,205.729 C576.489,171.508 565.970,138.172 543.882,111.864 ZM426.349,537.513 L199.305,541.536 C190.976,541.684 182.831,540.950 174.962,539.423 C122.018,529.146 81.499,482.910 80.505,426.872 L76.482,199.828 C75.341,135.463 126.780,82.169 191.145,81.029 L418.190,77.005 C482.553,75.868 535.849,127.303 536.990,191.669 L541.012,418.714 C541.565,449.893 529.941,479.422 508.284,501.860 C486.628,524.299 457.528,536.960 426.349,537.513 ZM535.930,191.688 C534.946,136.163 494.790,90.340 442.332,80.158 C434.531,78.644 426.465,77.919 418.209,78.065 L191.164,82.089 C160.267,82.635 131.432,95.182 109.972,117.416 C88.512,139.652 76.994,168.912 77.542,199.810 L81.565,426.854 C82.695,490.636 135.505,541.608 199.286,540.477 L426.330,536.453 C490.113,535.323 541.083,482.514 539.952,418.731 L535.930,191.688 ZM435.487,502.553 L232.645,527.512 C221.426,528.893 210.385,528.442 199.844,526.396 C156.331,517.949 121.165,482.326 115.466,436.011 L90.506,233.169 C87.076,205.298 94.705,177.761 111.987,155.629 C129.270,133.496 154.136,119.418 182.007,115.989 L384.849,91.029 C412.719,87.599 440.257,95.227 462.389,112.510 C484.522,129.793 498.600,154.660 502.029,182.530 L526.989,385.372 C530.418,413.243 522.789,440.781 505.507,462.913 C488.224,485.045 463.358,499.122 435.487,502.553 ZM525.937,385.502 L500.977,182.660 C495.336,136.815 460.520,101.546 417.448,93.186 C407.011,91.159 396.089,90.714 384.978,92.080 L182.137,117.041 C154.546,120.435 129.931,134.371 112.823,156.280 C95.714,178.190 88.162,205.450 91.557,233.040 L116.517,435.882 C119.912,463.472 133.848,488.087 155.757,505.195 C177.666,522.304 204.927,529.855 232.516,526.461 L435.358,501.500 C462.947,498.106 487.563,484.169 504.672,462.261 C521.779,440.352 529.333,413.092 525.937,385.502 ZM440.383,470.400 L261.174,511.824 C247.872,514.898 234.560,514.992 221.950,512.544 C186.345,505.634 156.299,478.466 147.618,440.908 L106.196,261.697 C100.500,237.060 104.740,211.680 118.135,190.233 C131.529,168.784 152.473,153.837 177.111,148.141 L356.321,106.719 C380.958,101.022 406.338,105.262 427.785,118.658 C449.233,132.052 464.182,152.997 469.877,177.634 L511.300,356.844 C523.055,407.704 491.243,458.644 440.383,470.400 ZM510.267,357.082 L468.844,177.873 C463.213,153.511 448.432,132.801 427.224,119.557 C417.325,113.375 406.577,109.164 395.454,107.005 C382.746,104.538 369.550,104.748 356.560,107.751 L177.350,149.174 C152.988,154.806 132.278,169.586 119.034,190.794 C105.789,212.002 101.596,237.097 107.227,261.459 L148.650,440.670 C160.275,490.959 210.646,522.412 260.935,510.791 L440.145,469.367 C490.434,457.743 521.891,407.371 510.267,357.082 ZM441.747,441.158 L285.238,495.095 C270.898,500.037 255.846,501.063 241.345,498.248 C234.074,496.837 226.943,494.461 220.109,491.129 C199.639,481.152 184.279,463.800 176.860,442.271 L122.924,285.762 C115.503,264.233 116.912,241.102 126.889,220.632 C136.867,200.162 154.218,184.802 175.748,177.383 L332.256,123.447 C353.785,116.027 376.916,117.435 397.386,127.413 C417.856,137.390 433.216,154.742 440.635,176.271 L494.571,332.780 C501.991,354.309 500.583,377.439 490.605,397.910 C480.627,418.379 463.275,433.739 441.747,441.158 ZM493.571,333.125 L439.633,176.617 C432.306,155.355 417.137,138.219 396.921,128.366 C390.172,125.075 383.128,122.728 375.949,121.335 C361.626,118.555 346.764,119.567 332.601,124.448 L176.094,178.384 C154.831,185.712 137.695,200.880 127.842,221.097 C117.989,241.312 116.597,264.155 123.925,285.416 L177.862,441.926 C185.189,463.187 200.357,480.324 220.573,490.177 C240.787,500.031 263.632,501.420 284.893,494.093 L441.401,440.157 C462.664,432.830 479.799,417.661 489.653,397.445 C499.506,377.229 500.898,354.386 493.571,333.125 ZM440.221,414.855 L305.209,477.855 C290.356,484.787 274.054,486.763 258.268,483.699 C254.302,482.929 250.369,481.842 246.500,480.434 C227.226,473.426 211.835,459.329 203.163,440.744 L140.162,305.733 C131.490,287.147 130.573,266.298 137.583,247.023 C144.593,227.749 158.689,212.358 177.274,203.686 L312.285,140.686 C330.871,132.012 351.721,131.099 370.995,138.107 C390.269,145.116 405.660,159.212 414.332,177.797 L477.332,312.809 C486.005,331.394 486.920,352.244 479.912,371.518 C472.902,390.792 458.806,406.183 440.221,414.855 ZM476.372,313.256 L413.372,178.245 C402.726,155.431 382.086,140.404 359.079,135.938 C343.930,132.997 327.756,134.636 312.733,141.645 L177.722,204.645 C159.393,213.199 145.492,228.377 138.579,247.385 C131.666,266.394 132.570,286.956 141.121,305.285 L204.123,440.295 C212.675,458.625 227.854,472.526 246.862,479.438 C265.872,486.353 286.432,485.449 304.761,476.897 L439.773,413.896 C458.102,405.343 472.002,390.164 478.915,371.156 C485.829,352.148 484.926,331.586 476.372,313.256 ZM436.386,391.453 L321.467,460.543 C306.252,469.692 288.887,472.283 272.695,469.140 C254.109,465.532 237.065,454.375 226.564,436.910 L157.474,321.991 C137.826,289.310 148.428,246.737 181.109,227.088 L296.028,157.997 C328.708,138.349 371.281,148.952 390.930,181.632 L460.021,296.550 C479.669,329.231 469.067,371.804 436.386,391.453 ZM459.112,297.096 L390.023,182.178 C379.683,164.982 362.897,153.994 344.598,150.441 C328.651,147.346 311.557,149.896 296.573,158.904 L181.655,227.995 C166.066,237.368 155.060,252.250 150.665,269.900 C146.269,287.551 149.009,305.857 158.382,321.445 L227.472,436.363 C246.820,468.543 288.741,478.983 320.921,459.637 L435.840,390.546 C468.020,371.198 478.460,329.277 459.112,297.096 ZM430.756,370.864 L334.395,443.518 C319.740,454.567 301.739,458.145 284.999,454.895 C270.412,452.064 256.782,444.050 247.153,431.279 L174.501,334.919 C153.822,307.492 159.312,268.356 186.738,247.677 L283.099,175.024 C296.385,165.007 312.776,160.763 329.254,163.075 C345.732,165.383 360.324,173.977 370.342,187.262 L442.993,283.622 C453.010,296.908 457.254,313.299 454.943,329.778 C452.632,346.256 444.042,360.847 430.756,370.864 ZM442.148,284.260 L369.495,187.900 C360.031,175.348 346.630,167.468 332.293,164.686 C315.836,161.491 298.145,165.008 283.736,175.870 L187.376,248.523 C160.416,268.850 155.020,307.321 175.347,334.281 L247.999,430.642 C268.327,457.601 306.799,462.998 333.758,442.671 L430.118,370.018 C443.178,360.171 451.621,345.828 453.894,329.630 C456.166,313.433 451.994,297.319 442.148,284.260 ZM423.784,352.963 L344.370,427.056 C333.410,437.282 319.124,442.627 304.143,442.109 C301.136,442.004 298.172,441.667 295.274,441.104 C283.736,438.865 273.228,433.068 265.055,424.307 L190.962,344.893 C169.853,322.269 171.086,286.688 193.711,265.579 L273.125,191.485 C295.749,170.377 331.330,171.609 352.439,194.234 L426.533,273.648 C447.642,296.272 446.409,331.853 423.784,352.963 ZM425.758,274.370 L351.664,194.956 C343.443,186.145 332.979,180.638 321.966,178.501 C305.237,175.253 287.233,179.770 273.847,192.259 L194.433,266.354 C183.680,276.386 177.478,290.006 176.969,304.704 C176.459,319.402 181.704,333.418 191.737,344.171 L265.830,423.585 C275.863,434.336 289.480,440.541 304.180,441.050 C318.878,441.560 332.894,436.314 343.648,426.282 L423.061,352.188 C445.259,331.477 446.468,296.569 425.758,274.370 ZM351.753,411.380 C342.895,421.575 330.599,427.710 317.127,428.656 C312.629,428.971 308.178,428.696 303.868,427.859 C295.267,426.190 287.219,422.287 280.428,416.387 L206.637,352.276 C185.593,333.992 183.347,301.996 201.631,280.951 L265.742,207.161 C274.599,196.967 286.896,190.832 300.368,189.886 C313.839,188.940 326.873,193.297 337.067,202.154 L410.858,266.265 C421.051,275.123 427.187,287.419 428.132,300.891 C429.078,314.363 424.720,327.396 415.864,337.590 L351.753,411.380 ZM427.075,300.965 C426.149,287.776 420.143,275.737 410.162,267.065 L336.371,202.954 C329.724,197.178 321.843,193.357 313.423,191.722 C309.201,190.903 304.846,190.633 300.442,190.942 C287.253,191.869 275.213,197.875 266.542,207.856 L202.431,281.645 C184.530,302.250 186.729,333.575 207.332,351.477 L281.122,415.588 C291.103,424.260 303.863,428.524 317.053,427.599 C330.242,426.673 342.281,420.666 350.952,410.686 L415.064,336.896 C423.735,326.915 428.001,314.155 427.075,300.965 ZM356.890,396.650 C346.255,411.848 327.953,418.563 310.820,415.237 C304.750,414.059 298.829,411.622 293.445,407.854 L221.367,357.413 C211.397,350.437 204.742,339.993 202.625,328.011 C200.510,316.028 203.186,303.939 210.163,293.969 L260.605,221.891 C275.007,201.310 303.469,196.283 324.048,210.687 L396.127,261.129 C416.707,275.531 421.734,303.991 407.331,324.572 L356.890,396.650 ZM395.520,261.996 L323.441,211.554 C318.184,207.876 312.398,205.494 306.471,204.344 C289.735,201.095 271.861,207.654 261.473,222.498 L211.031,294.577 C196.963,314.679 201.873,342.478 221.975,356.545 L294.053,406.986 C314.154,421.056 341.954,416.145 356.022,396.044 L406.463,323.965 C420.530,303.863 415.622,276.064 395.520,261.996 ZM360.105,382.979 C351.275,398.917 333.332,406.682 316.342,403.384 C312.224,402.585 308.163,401.137 304.300,398.996 L235.040,360.627 C225.448,355.315 218.499,346.584 215.473,336.044 C212.448,325.503 213.708,314.416 219.021,304.824 L257.390,235.563 C268.360,215.760 293.395,208.577 313.194,219.545 L382.455,257.913 C402.256,268.882 409.442,293.917 398.473,313.718 L360.105,382.979 ZM381.942,258.840 L312.681,220.472 C308.919,218.388 304.960,216.976 300.950,216.197 C284.397,212.984 266.919,220.547 258.317,236.076 L219.948,305.337 C214.772,314.680 213.544,325.483 216.492,335.751 C219.439,346.019 226.208,354.525 235.553,359.701 L304.813,398.069 C324.107,408.755 348.492,401.756 359.178,382.466 L397.546,313.205 C408.232,293.914 401.232,269.526 381.942,258.840 ZM361.699,370.433 C357.839,379.532 350.668,386.583 341.505,390.288 C334.793,393.002 327.600,393.682 320.656,392.334 C318.121,391.842 315.620,391.080 313.187,390.048 L247.584,362.222 C228.802,354.255 220.003,332.493 227.969,313.711 L255.796,248.109 C259.655,239.010 266.827,231.958 275.989,228.254 C285.152,224.549 295.209,224.634 304.308,228.493 L369.910,256.320 C388.692,264.286 397.492,286.048 389.525,304.831 L361.699,370.433 ZM369.497,257.294 L303.893,229.468 C301.533,228.467 299.123,227.738 296.701,227.268 C280.402,224.104 263.509,232.638 256.772,248.522 L228.945,314.125 C221.206,332.368 229.753,353.507 247.998,361.246 L313.601,389.072 C322.439,392.822 332.207,392.906 341.108,389.305 C350.008,385.708 356.975,378.858 360.723,370.021 L388.549,304.417 C396.288,286.173 387.741,265.033 369.497,257.294 ZM361.947,359.050 C359.344,367.570 353.579,374.568 345.714,378.752 C338.904,382.375 331.223,383.515 323.754,382.065 C322.598,381.841 321.447,381.554 320.305,381.205 L258.968,362.471 C241.379,357.098 231.440,338.417 236.813,320.828 L255.548,259.492 C258.150,250.971 263.914,243.974 271.780,239.790 C279.644,235.606 288.667,234.730 297.190,237.336 L358.526,256.071 C367.047,258.673 374.043,264.439 378.229,272.303 C382.413,280.169 383.285,289.192 380.681,297.713 L361.947,359.050 ZM377.293,272.802 C373.241,265.186 366.467,259.604 358.217,257.084 L296.880,238.350 C295.775,238.013 294.660,237.735 293.541,237.517 C286.308,236.113 278.873,237.216 272.278,240.725 C264.663,244.776 259.080,251.552 256.561,259.801 L237.825,321.138 C232.624,338.168 242.248,356.255 259.278,361.457 L320.614,380.192 C328.864,382.712 337.601,381.868 345.217,377.816 C352.832,373.765 358.415,366.990 360.934,358.740 L379.669,297.403 C382.189,289.154 381.344,280.416 377.293,272.802 ZM361.100,348.832 C357.941,365.108 342.127,375.782 325.850,372.622 L269.186,361.623 C252.908,358.463 242.236,342.649 245.396,326.373 L256.395,269.710 C259.554,253.432 275.367,242.759 291.645,245.919 L348.309,256.918 C364.586,260.078 375.258,275.891 372.099,292.168 L361.100,348.832 ZM348.107,257.959 L291.443,246.960 C275.738,243.911 260.482,254.207 257.434,269.911 L246.435,326.574 C243.387,342.279 253.683,357.535 269.388,360.583 L326.052,371.581 C341.755,374.630 357.011,364.334 360.060,348.630 L371.059,291.967 C374.107,276.262 363.810,261.007 348.107,257.959 ZM359.381,339.760 C358.082,354.656 344.906,365.717 330.010,364.418 L278.258,359.904 C277.291,359.820 276.336,359.686 275.395,359.503 C269.323,358.324 263.879,355.129 259.846,350.326 C255.189,344.778 252.970,337.750 253.600,330.535 L258.114,278.782 C259.413,263.885 272.589,252.824 287.485,254.124 L339.236,258.637 C354.127,259.940 365.194,273.112 363.894,288.008 L359.381,339.760 ZM341.865,260.074 C340.974,259.901 340.068,259.773 339.145,259.692 L287.393,255.178 C280.458,254.574 273.704,256.705 268.374,261.181 C263.043,265.656 259.774,271.939 259.169,278.874 L254.654,330.626 C254.051,337.560 256.182,344.314 260.658,349.645 C265.133,354.976 271.419,358.243 278.350,358.849 L330.101,363.363 C344.416,364.611 357.077,353.981 358.325,339.668 L362.839,287.916 C364.008,274.526 354.779,262.580 341.865,260.074 ZM332.968,356.684 L286.221,357.514 C284.477,357.544 282.770,357.390 281.123,357.070 C270.030,354.918 261.541,345.231 261.333,333.491 L260.505,286.744 C260.266,273.260 271.042,262.095 284.526,261.857 L331.273,261.028 C344.757,260.792 355.922,271.565 356.161,285.050 L356.989,331.797 C357.104,338.329 354.670,344.514 350.133,349.216 C345.596,353.916 339.500,356.568 332.968,356.684 ZM355.101,285.069 C354.991,278.820 352.454,272.988 347.956,268.648 C344.661,265.467 340.605,263.367 336.213,262.514 C334.610,262.203 332.963,262.058 331.292,262.088 L284.545,262.916 C271.645,263.144 261.336,273.826 261.565,286.726 L262.393,333.473 C262.622,346.374 273.302,356.687 286.203,356.453 L332.949,355.625 C339.198,355.515 345.030,352.977 349.371,348.479 C353.711,343.983 356.040,338.064 355.930,331.815 L355.101,285.069 ZM334.894,349.483 L293.130,354.622 C290.774,354.913 288.458,354.817 286.246,354.388 C277.113,352.615 269.731,345.138 268.535,335.417 L263.396,293.653 C262.676,287.803 264.277,282.024 267.904,277.378 C271.531,272.732 276.752,269.778 282.601,269.058 L324.365,263.919 C330.213,263.200 335.994,264.801 340.639,268.428 C345.284,272.056 348.240,277.275 348.960,283.124 L354.099,324.888 C354.819,330.737 353.217,336.517 349.590,341.164 C345.962,345.809 340.743,348.764 334.894,349.483 ZM353.047,325.017 L347.908,283.254 C347.222,277.685 344.409,272.716 339.988,269.262 C337.336,267.192 334.296,265.815 331.085,265.192 C328.942,264.776 326.724,264.697 324.494,264.971 L282.730,270.110 C277.161,270.795 272.193,273.608 268.740,278.030 C265.286,282.453 263.762,287.954 264.447,293.525 L269.586,335.288 C271.000,346.783 281.504,354.988 293.001,353.571 L334.764,348.431 C340.333,347.746 345.302,344.933 348.755,340.511 C352.208,336.089 353.733,330.587 353.047,325.017 ZM335.944,342.856 L299.047,351.385 C296.250,352.031 293.449,352.051 290.797,351.536 C283.308,350.083 276.988,344.368 275.163,336.468 L266.634,299.570 C264.161,288.874 270.852,278.159 281.550,275.686 L318.447,267.158 C323.629,265.960 328.969,266.851 333.479,269.668 C337.990,272.486 341.134,276.891 342.332,282.073 L350.860,318.971 C352.059,324.153 351.167,329.491 348.350,334.002 C345.531,338.514 341.126,341.658 335.944,342.856 ZM349.829,319.210 L341.300,282.311 C340.165,277.406 337.189,273.234 332.919,270.567 C330.924,269.323 328.759,268.474 326.519,268.040 C323.960,267.543 321.303,267.584 318.686,268.189 L281.789,276.717 C271.659,279.059 265.325,289.203 267.665,299.331 L276.194,336.230 C278.536,346.358 288.679,352.693 298.809,350.352 L335.706,341.823 C340.612,340.689 344.783,337.712 347.451,333.441 C350.118,329.170 350.963,324.116 349.829,319.210 ZM336.268,336.823 L304.044,347.928 C300.963,348.990 297.785,349.162 294.794,348.582 C288.690,347.397 283.362,343.079 281.195,336.791 L270.090,304.568 C268.526,300.028 268.823,295.152 270.926,290.837 C273.029,286.521 276.688,283.283 281.227,281.718 L313.450,270.614 C317.989,269.049 322.865,269.347 327.182,271.450 C331.497,273.553 334.735,277.211 336.299,281.750 L347.405,313.973 C348.968,318.513 348.672,323.389 346.568,327.705 C344.465,332.021 340.807,335.258 336.268,336.823 ZM346.403,314.319 L335.297,282.095 C333.826,277.824 330.779,274.382 326.718,272.402 C325.361,271.741 323.946,271.269 322.504,270.990 C319.626,270.431 316.641,270.635 313.795,271.615 L281.572,282.721 C277.301,284.192 273.858,287.240 271.878,291.300 C269.899,295.362 269.620,299.951 271.092,304.223 L282.197,336.446 C285.236,345.264 294.881,349.963 303.699,346.927 L335.922,335.821 C340.194,334.349 343.637,331.302 345.616,327.240 C347.595,323.179 347.875,318.590 346.403,314.319 ZM335.994,331.390 L308.197,344.362 C304.978,345.864 301.511,346.216 298.264,345.585 C293.334,344.628 288.909,341.407 286.627,336.517 L273.656,308.720 C271.823,304.792 271.630,300.385 273.111,296.311 C274.592,292.237 277.572,288.984 281.500,287.151 L309.297,274.179 C313.226,272.346 317.632,272.155 321.707,273.634 C325.781,275.116 329.034,278.095 330.867,282.024 L343.838,309.821 C345.672,313.750 345.865,318.156 344.384,322.231 C342.902,326.305 339.923,329.558 335.994,331.390 ZM342.879,310.269 L329.907,282.472 C328.193,278.800 325.153,276.015 321.345,274.630 C320.581,274.352 319.804,274.137 319.020,273.984 C315.901,273.379 312.680,273.770 309.745,275.139 L281.948,288.111 C278.276,289.824 275.491,292.866 274.106,296.673 C272.722,300.481 272.903,304.601 274.616,308.272 L287.587,336.069 C291.124,343.651 300.169,346.938 307.749,343.403 L335.546,330.432 C339.218,328.718 342.003,325.676 343.388,321.868 C344.773,318.061 344.592,313.941 342.879,310.269 ZM335.244,326.552 L311.583,340.776 C308.453,342.660 304.813,343.299 301.254,342.608 C300.998,342.558 300.742,342.502 300.487,342.438 C296.688,341.492 293.484,339.122 291.467,335.768 L277.241,312.107 C273.076,305.179 275.323,296.154 282.251,291.989 L305.911,277.764 C309.267,275.747 313.208,275.155 317.007,276.103 C320.808,277.049 324.011,279.418 326.028,282.774 L340.253,306.435 C344.419,313.362 342.171,322.386 335.244,326.552 ZM339.346,306.980 L325.120,283.320 C323.248,280.207 320.276,278.009 316.752,277.131 C316.515,277.072 316.277,277.019 316.040,276.973 C312.739,276.332 309.362,276.926 306.457,278.672 L282.797,292.897 C276.370,296.762 274.285,305.134 278.149,311.561 L292.374,335.221 C294.246,338.335 297.218,340.533 300.743,341.411 C304.270,342.290 307.924,341.741 311.037,339.870 L334.698,325.644 C337.811,323.773 340.009,320.800 340.887,317.275 C341.764,313.750 341.217,310.094 339.346,306.980 Z"/>
</svg>