<svg 
xmlns="http://www.w3.org/2000/svg"
xmlns:xlink="http://www.w3.org/1999/xlink"
width="17px" height="17px">
<path fill-rule="evenodd"  fill="rgb(255, 255, 255)"
d="M8.500,17.000 C3.806,17.000 -0.000,13.194 -0.000,8.500 C-0.000,3.806 3.806,-0.000 8.500,-0.000 C13.194,-0.000 17.000,3.806 17.000,8.500 C17.000,13.194 13.194,17.000 8.500,17.000 ZM8.500,2.000 C4.910,2.000 2.000,4.910 2.000,8.500 C2.000,12.090 4.910,15.000 8.500,15.000 C12.090,15.000 15.000,12.090 15.000,8.500 C15.000,4.910 12.090,2.000 8.500,2.000 ZM8.386,11.984 L5.906,11.984 L5.906,5.315 L8.386,5.315 C10.466,5.315 11.876,6.695 11.876,8.655 C11.876,10.615 10.466,11.984 8.386,11.984 ZM8.386,6.345 L7.076,6.345 L7.076,10.955 L8.386,10.955 C9.836,10.955 10.676,9.915 10.676,8.655 C10.676,7.365 9.876,6.345 8.386,6.345 Z"/>
</svg>