<svg 
 xmlns="http://www.w3.org/2000/svg"
 xmlns:xlink="http://www.w3.org/1999/xlink"
 width="10px" height="10px">
<path fill-rule="evenodd"  fill="rgb(255, 255, 255)"
 d="M8.887,-0.000 L2.679,-0.000 C2.066,-0.000 1.566,0.499 1.566,1.113 C1.566,1.726 2.066,2.226 2.679,2.226 L6.201,2.226 L0.326,8.100 C0.116,8.310 0.000,8.589 0.000,8.887 C0.000,9.184 0.116,9.464 0.326,9.673 C0.537,9.884 0.816,10.000 1.113,10.000 C1.410,10.000 1.690,9.884 1.900,9.674 L7.774,3.799 L7.774,7.321 C7.774,7.935 8.274,8.434 8.887,8.434 C9.501,8.434 10.000,7.935 10.000,7.321 L10.000,1.113 C10.000,0.499 9.501,-0.000 8.887,-0.000 Z"/>
</svg>