<svg xmlns="http://www.w3.org/2000/svg" width="346" height="346">
    <path fill-rule="evenodd" d="M335.109 157.422l-.176-1.732 10.256-1.053.177 1.731-10.257 1.054zm-2.933-18.749l10.084-2.13.362 1.699-10.088 2.131-.358-1.7zm-4.542-16.633l9.804-3.185.535 1.655-9.804 3.184-.535-1.654zm-6.278-16.057l9.413-4.205.707 1.588-9.409 4.204-.711-1.587zm-.765-13.191a4.11 4.11 0 0 1-5.612-1.501 4.108 4.108 0 0 1 1.506-5.612 4.108 4.108 0 0 1 5.611 1.502 4.113 4.113 0 0 1-1.505 5.611zM304.52 77.146l8.356-6.04 1.021 1.412-8.356 6.039-1.021-1.411zm-.049 15.494l.959-.555 1.88 3.258-.959.551-.156-.271c-.181-.309-.736-.288-1.662.057-.617.231-1.975.955-4.09 2.173l-22.87 13.206c-1.786 1.029-2.954 1.736-3.493 2.115-.416.284-.741.58-.983.88-.325.404-.432.688-.329.865l.16.275-.963.555-1.88-3.258.963-.556.152.272c.185.317.741.296 1.666-.049.613-.231 1.971-.955 4.086-2.177l22.87-13.206c1.786-1.029 2.954-1.736 3.493-2.115.411-.288.745-.58.987-.876.321-.407.428-.696.321-.877l-.152-.267zm-10.845-28.853l7.669-6.887 1.16 1.292-7.668 6.892-1.161-1.297zm-12.248-12.128l6.896-7.665 1.292 1.165-6.896 7.66-1.292-1.16zm-13.465-10.771l6.048-8.348 1.407 1.02-6.048 8.348-1.407-1.02zm2.806 194.07l-.153.267c-.185.317.112.79.873 1.419.51.416 1.814 1.226 3.933 2.449l22.866 13.202c1.786 1.032 2.983 1.691 3.58 1.97.456.214.876.354 1.255.416.51.078.814.025.917-.156l.156-.272.959.555-1.88 3.259-.959-.556.156-.275c.177-.309-.115-.778-.88-1.407-.506-.42-1.81-1.234-3.925-2.452l-22.871-13.207c-1.785-1.028-2.982-1.687-3.575-1.966-.461-.218-.876-.354-1.259-.412-.51-.082-.81-.032-.913.148l-.156.272-.963-.551 1.88-3.259.959.556zm4.505 77.918l-1.412 1.02-6.039-8.356 1.411-1.016 6.04 8.352zm-16.074 9.22a4.115 4.115 0 0 1-5.612-1.506 4.106 4.106 0 0 1 1.506-5.608 4.104 4.104 0 0 1 5.607 1.502 4.11 4.11 0 0 1-1.501 5.612zm-4.106-290.745a4.109 4.109 0 0 1-1.506-5.611 4.109 4.109 0 0 1 5.612-1.502 4.103 4.103 0 0 1 1.501 5.607 4.103 4.103 0 0 1-5.607 1.506zm-.876 272.844l.555.963-3.102 1.789-.552-.962c.26-.362.326-.77.202-1.23-.127-.457-.366-.996-.732-1.625-.498-.864-1.37-2.173-2.604-3.913l-13.878-19.579 10.002 21.472c.991 2.118 1.707 3.566 2.16 4.348.284.498.625.955.991 1.345.379.4.749.622 1.115.659.029.008.079.016.14.024l.556.963-2.325 1.341-.555-.958c.131-.387.107-.906-.091-1.559-.292-.967-.876-2.383-1.744-4.242l-14.704-31.564.205-.12 20.419 28.8c1.049 1.489 1.708 2.39 1.967 2.699.407.489.769.851 1.086 1.082.309.222.605.312.889.267zM251.51 40.6c-.309-.177-.782.119-1.412.88-.415.506-1.23 1.815-2.452 3.929l-13.202 22.867c-1.033 1.786-1.691 2.983-1.971 3.579-.213.457-.353.877-.411 1.255-.082.51-.029.811.152.918l.272.156-.556.958-3.258-1.879.555-.959.272.156c.313.181.79-.115 1.419-.876.412-.506 1.226-1.814 2.448-3.929l13.202-22.871c1.033-1.785 1.691-2.983 1.967-3.575.214-.461.354-.876.42-1.255.074-.514.02-.814-.16-.921l-.268-.153.555-.963 3.255 1.881-.556.962-.271-.16zm-12.594-16.268l4.217-9.404 1.584.711-4.213 9.405-1.588-.712zm-16.115-6.121l3.193-9.8 1.653.543-3.196 9.8-1.65-.543zm4.678 319.226l-1.654.536-3.188-9.801 1.654-.538 3.188 9.803zM206.126 13.829l2.14-10.084 1.703.362-2.143 10.084-1.7-.362zm3.666 328.43l-1.703.362-2.131-10.084 1.703-.361 2.131 10.083zM189.081 11.237L190.143.985l1.732.176-1.065 10.257-1.729-.181zm2.613 333.952l-1.732.177-1.049-10.257 1.728-.177 1.053 10.257zM178.393 57.785h.309c.366 0 .629-.494.793-1.469.104-.646.153-2.185.153-4.624V25.283c0-2.061-.029-3.427-.082-4.082-.046-.506-.132-.933-.268-1.295-.189-.482-.387-.716-.596-.716h-.309v-1.111h3.76v1.111h-.317c-.357 0-.617.489-.781 1.465-.107.65-.161 2.184-.161 4.628v26.409c0 2.061.029 3.427.083 4.081.045.502.131.934.271 1.292.185.485.383.72.588.72h.317v1.106h-3.76v-1.106zm-4.41 0h.308c.366 0 .63-.494.794-1.469.103-.646.157-2.185.157-4.624V25.283c0-2.061-.033-3.427-.087-4.082-.045-.506-.132-.933-.267-1.295-.189-.482-.387-.716-.597-.716h-.308v-1.111h3.76v1.111h-.317c-.358 0-.617.489-.782 1.465-.107.65-.16 2.184-.16 4.628v26.409c0 2.061.029 3.427.082 4.081.046.502.136.934.272 1.292.189.485.382.72.588.72h.317v1.106h-3.76v-1.106zm-.819-48.375a4.106 4.106 0 1 1 .005-8.213 4.106 4.106 0 0 1-.005 8.213zm-5.453 10.57a5.737 5.737 0 0 0-.187 1.538c0 .749.1 1.835.306 3.271l1.347 9.348 1.545-9.171c.181-1.09.29-1.839.333-2.238.039-.399.062-.823.062-1.243 0-.419-.027-.798-.08-1.114-.064-.424-.144-.72-.245-.897-.099-.173-.304-.264-.613-.284v-1.111h3.108v1.111c-.247.061-.444.234-.601.543-.232.461-.446 1.086-.641 1.868-.194.777-.467 2.225-.819 4.328l-1.738 10.363 1.882 13.071c.523 3.608.91 5.888 1.162 6.842.253.954.57 1.477.961 1.58v1.106h-3.769v-1.106a.674.674 0 0 0 .556-.358c.092-.185.166-.453.222-.823.062-.37.089-.749.089-1.127 0-.461-.019-.914-.06-1.374-.029-.342-.146-1.222-.354-2.638l-1.492-10.404-1.828 10.845c-.193 1.168-.309 1.95-.35 2.341-.037.386-.055.798-.055 1.218 0 .637.055 1.172.173 1.592.117.432.339.666.666.728v1.106h-3.11v-1.106c.218-.103.407-.309.568-.638.265-.51.522-1.218.762-2.102.241-.88.517-2.234.827-4.061l2.039-12.088-1.695-11.819c-.469-3.201-.868-5.303-1.195-6.299-.327-1.004-.704-1.527-1.132-1.588v-1.111h4.065v1.111c-.345.061-.58.317-.709.79zM154.636 1.145l1.732-.177 1.051 10.253-1.73.177-1.053-10.253zm2.617 333.948l-1.064 10.256-1.73-.181 1.063-10.252 1.731.177zM136.54 4.07l1.701-.358 2.133 10.084-1.703.358L136.54 4.07zm3.668 328.43l-2.142 10.084-1.701-.361 2.143-10.085 1.7.362zM118.853 8.896l1.654-.539 3.186 9.804-1.651.535-3.189-9.8zm1.356 60.787c.401.325.687.432.866.329l.273-.16.554.962-3.257 1.881-.553-.963.269-.153c.315-.185.296-.74-.047-1.666-.235-.613-.959-1.97-2.181-4.085l-13.204-22.871c-1.031-1.785-1.738-2.954-2.112-3.493-.291-.415-.583-.744-.879-.987-.405-.325-.695-.428-.874-.325l-.272.156-.553-.959 3.258-1.879.554.958-.274.156c-.31.182-.288.737.056 1.662.23.613.954 1.971 2.176 4.086l13.203 22.871c1.032 1.785 1.738 2.953 2.114 3.497.288.411.582.74.883.983zm-18.432-54.118l1.588-.712 4.205 9.414-1.586.707-4.207-9.409zm-3.454 25.8c.222.774.708 2.16 1.453 4.16l3.677 9.841 8.165 10.38c2.259 2.863 3.734 4.645 4.427 5.344.695.7 1.234.992 1.621.889l.555.958-3.262 1.885-.555-.959a.667.667 0 0 0 .302-.593c-.013-.201-.082-.473-.218-.818a7.095 7.095 0 0 0-.485-1.025 17.757 17.757 0 0 0-.741-1.16c-.193-.275-.739-.983-1.625-2.106l-6.495-8.261 3.841 10.306c.418 1.106.706 1.843.866 2.197.165.357.352.723.562 1.09.316.547.633.983.946 1.287.317.313.626.408.942.297l.553.962-2.694 1.556-.556-.963c.138-.198.2-.469.175-.831-.026-.58-.158-1.321-.391-2.205-.232-.885-.67-2.193-1.314-3.933l-4.279-11.483-7.377-9.389c-2.005-2.538-3.404-4.159-4.184-4.859-.786-.707-1.374-.97-1.775-.81l-.556-.959 3.522-2.032.554.958c-.267.227-.344.564-.218 1.037.119.465.322.938.604 1.428.375.65 1.006 1.538 1.905 2.682l5.838 7.418-3.248-8.714a44.76 44.76 0 0 0-.829-2.102 12.6 12.6 0 0 0-.568-1.107 6.46 6.46 0 0 0-.627-.929c-.265-.334-.486-.548-.658-.65-.173-.103-.397-.079-.675.057l-.553-.959 2.693-1.555.553.959c-.183.177-.272.428-.251.773.031.515.158 1.165.38 1.938zM91.29 31.351a4.105 4.105 0 0 1-5.609-1.506 4.106 4.106 0 1 1 5.609 1.506zm-20.182 2.102l1.411-1.016 6.038 8.352-1.409 1.02-6.04-8.356zm4.464 77.989l.961.555-1.885 3.263-.96-.555a.663.663 0 0 0-.033-.659c-.115-.173-.309-.37-.599-.605a7.278 7.278 0 0 0-.934-.642c-.399-.23-.8-.44-1.219-.633-.309-.148-1.132-.481-2.461-1.012l-9.756-3.908 8.479 7.002c.915.753 1.532 1.242 1.849 1.473.321.226.665.448 1.031.658.549.321 1.04.539 1.462.646.432.115.747.041.965-.214l.961.555-1.558 2.695-.96-.555c.02-.239-.062-.506-.266-.807-.312-.489-.795-1.065-1.44-1.715-.643-.65-1.678-1.564-3.106-2.749l-9.446-7.804-11.083-4.444c-3.006-1.193-5.028-1.9-6.052-2.114-1.035-.218-1.677-.156-1.944.185l-.959-.555 2.033-3.518.958.551c-.119.329-.014.663.33 1.008.337.342.75.654 1.24.934.648.379 1.639.831 2.989 1.37l8.765 3.509-7.169-5.924c-.852-.703-1.446-1.173-1.771-1.407a12.867 12.867 0 0 0-1.043-.675 6.837 6.837 0 0 0-1.01-.489c-.395-.157-.693-.235-.897-.235-.197-.004-.381.132-.553.387l-.961-.555 1.555-2.691.961.551c-.072.247-.021.506.168.794.287.432.72.93 1.298 1.49.578.559 1.694 1.517 3.339 2.875l8.105 6.686 12.26 4.904c3.388 1.354 5.554 2.156 6.507 2.415.952.259 1.565.247 1.849-.041zM56.9 45.039l1.294-1.164 6.887 7.669-1.292 1.16-6.889-7.665zM43.996 58.056l1.164-1.292 7.661 6.9-1.163 1.292-7.662-6.9zM32.542 72.374l1.018-1.411 8.35 6.047-1.02 1.407-8.348-6.043zm-6.8 20.418a4.107 4.107 0 1 1 4.108-7.113 4.107 4.107 0 0 1-4.108 7.113zm-1.41 14.622l-9.404-4.213.711-1.588 9.407 4.217-.714 1.584zm-6.12 16.119l-9.799-3.196.539-1.654 9.8 3.197-.54 1.653zm-4.381 16.675l-10.084-2.143.362-1.699 10.084 2.143-.362 1.699zm-2.592 17.045L.985 156.188l.179-1.728 10.254 1.061-.179 1.732zm-10.04 15.91a4.107 4.107 0 1 1 8.213.004 4.106 4.106 0 1 1-8.213-.004zM11.4 190.64l-10.255 1.053-.177-1.728 10.255-1.053.177 1.728zm2.756 17.02l-10.084 2.131-.36-1.703 10.084-2.131.36 1.703zm4.542 16.63l-9.802 3.188-.537-1.654 9.802-3.188.537 1.654zm6.276 16.057l-9.411 4.205-.71-1.584 9.412-4.209.709 1.588zm.768 13.195a4.105 4.105 0 1 1 4.105 7.109 4.105 4.105 0 1 1-4.105-7.109zm16.067 15.641l-8.354 6.04-1.018-1.411 8.354-6.035 1.018 1.406zm33.099-37.665l-.961.555-.157-.271c-.182-.313-.74-.296-1.664.049-.613.235-1.97.959-4.087 2.181l-22.868 13.202c-1.786 1.033-2.954 1.741-3.493 2.115a4.92 4.92 0 0 0-.988.876c-.323.407-.428.696-.323.877l.155.267-.959.556-1.88-3.255.959-.555.158.271c.177.313.734.293 1.66-.058.615-.226 1.973-.95 4.087-2.172l22.871-13.202c1.786-1.033 2.954-1.741 3.495-2.115.413-.288.74-.584.983-.88.325-.403.432-.691.329-.868l-.158-.276.958-.551 1.883 3.254zM72.7 227.7l-.958.556-.157-.272c-.181-.313-.738-.296-1.666.05-.613.23-1.968.958-4.083 2.18l-22.871 13.202c-1.785 1.033-2.953 1.736-3.495 2.115-.413.288-.74.58-.985.876-.323.408-.428.696-.323.877l.156.267-.96.555-1.882-3.258.96-.551.158.271c.18.309.737.288 1.661-.057.615-.231 1.972-.951 4.089-2.172l22.869-13.207c1.785-1.029 2.954-1.736 3.493-2.111.415-.288.742-.584.985-.884.325-.399.432-.687.327-.868l-.156-.272.958-.551 1.88 3.254zm-13.807-47.992h-1.109v-.313c0-.361-.491-.625-1.466-.789-.646-.103-2.185-.157-4.627-.157H25.285c-2.064 0-3.429.029-4.084.087-.504.045-.934.131-1.293.263-.482.193-.718.391-.718.596v.313h-1.109v-3.76h1.109v.317c0 .354.491.617 1.466.777.648.111 2.185.165 4.629.165h26.406c2.064 0 3.428-.029 4.084-.086.502-.042.933-.132 1.294-.272.481-.185.715-.379.715-.584v-.317h1.109v3.76zm-4.647-6.5c.389.037.801.058 1.222.058.634 0 1.169-.058 1.588-.173.432-.12.669-.337.728-.667h1.109v3.11h-1.109c-.1-.217-.306-.407-.633-.567-.514-.268-1.222-.523-2.104-.761-.883-.243-2.237-.518-4.063-.831l-12.086-2.037-11.82 1.695c-3.2.469-5.303.868-6.298 1.198-1.004.324-1.529.703-1.59 1.131h-1.109v-4.065h1.109c.061.341.317.58.79.707.462.128.972.19 1.538.19.749 0 1.837-.103 3.273-.309l9.347-1.345-9.172-1.547c-1.088-.181-1.837-.292-2.236-.333a13.628 13.628 0 0 0-1.243-.062c-.419 0-.8.029-1.116.078-.422.066-.72.149-.895.247-.173.099-.266.305-.286.613h-1.109v-3.11h1.109c.061.247.236.448.543.605.462.23 1.088.444 1.867.637.78.193 2.226.469 4.331.823l10.361 1.736 13.071-1.88c3.612-.523 5.889-.913 6.842-1.164.954-.251 1.479-.572 1.579-.959h1.109v3.769h-1.109a.657.657 0 0 0-.357-.555c-.186-.095-.453-.169-.821-.227a7.44 7.44 0 0 0-1.129-.086c-.461 0-.912.02-1.375.057-.339.029-1.22.149-2.637.358l-10.402 1.49 10.844 1.826c1.169.194 1.949.313 2.339.35zm13.411 47.971l.96-.555 1.88 3.258-.96.552-.157-.268c-.181-.317-.738-.296-1.666.045-.611.235-1.968.963-4.083 2.181L40.76 239.598c-1.785 1.029-2.952 1.737-3.493 2.111a5.075 5.075 0 0 0-.987.88c-.323.408-.428.696-.323.877l.154.267-.959.556-1.879-3.259.96-.555.156.275c.179.309.735.288 1.662-.057.613-.23 1.973-.95 4.088-2.173l22.869-13.206c1.787-1.029 2.953-1.736 3.494-2.115.414-.288.743-.58.983-.88.328-.403.433-.687.33-.868l-.158-.272zm-27.845 31.177l.958-.551c.387.132.904.107 1.562-.09.966-.297 2.382-.877 4.239-1.745l31.564-14.704.119.206-28.798 20.414c-1.49 1.054-2.389 1.712-2.702 1.971-.487.407-.847.77-1.08 1.086-.224.309-.312.605-.267.889l-.961.551-1.789-3.098.958-.555c.363.259.772.329 1.23.201.461-.127.998-.366 1.63-.728.861-.498 2.17-1.37 3.91-2.604l19.577-13.877-21.471 10.001c-2.119.988-3.563 1.708-4.345 2.156-.5.288-.955.629-1.347.996-.399.374-.622.749-.661 1.111a4.188 4.188 0 0 0-.024.144l-.959.555-1.343-2.329zm12.893 30.19l-7.666 6.887-1.163-1.292 7.667-6.891 1.162 1.296zm12.252 12.129l-6.897 7.665-1.292-1.165 6.896-7.664 1.293 1.164zm13.464 10.771l-6.048 8.343-1.407-1.016 6.048-8.347 1.407 1.02zm12.867 9.536a4.103 4.103 0 0 1 1.504 5.608 4.108 4.108 0 0 1-5.61 1.502 4.104 4.104 0 0 1-1.501-5.608 4.104 4.104 0 0 1 5.607-1.502zm16.42-46.379l.555-.958 3.256 1.88-.555.958-.267-.156c-.317-.181-.79.115-1.422.876-.411.507-1.226 1.815-2.446 3.93l-13.204 22.87c-1.031 1.786-1.689 2.983-1.968 3.58-.215.456-.354.872-.416 1.25-.076.514-.023.819.156.922l.27.152-.554.963-3.256-1.88.553-.963.274.16c.31.177.781-.119 1.409-.88.418-.506 1.232-1.81 2.454-3.925l13.205-22.871c1.03-1.785 1.688-2.982 1.968-3.579.214-.457.352-.876.411-1.255.08-.51.029-.811-.15-.917l-.273-.157zM92.23 304.232l.272.161c.311.177.782-.12 1.411-.881.415-.506 1.232-1.81 2.452-3.929l13.204-22.867c1.031-1.785 1.689-2.982 1.969-3.579.216-.457.352-.876.411-1.255.083-.51.031-.814-.148-.913l-.274-.16.554-.959 3.256 1.88-.553.959-.27-.156c-.314-.182-.787.115-1.419.876-.413.506-1.226 1.814-2.448 3.929l-13.204 22.87c-1.031 1.786-1.687 2.983-1.969 3.575-.212.461-.352.877-.415 1.256-.076.514-.021.814.158.921l.269.152-.553.963-3.258-1.884.555-.959zm4.995 1.275c.691-.74 1.625-1.954 2.797-3.632l19.983-28.516.208.12-14.733 32.078c-.763 1.658-1.212 2.678-1.354 3.057-.22.596-.349 1.09-.392 1.481-.039.378.032.683.213.905l-.555.959-3.1-1.79.553-.963c.445.045.831-.099 1.167-.436.335-.341.681-.819 1.045-1.448.495-.86 1.195-2.271 2.085-4.209l10.014-21.809-13.593 19.398c-1.339 1.913-2.232 3.258-2.684 4.04a7.254 7.254 0 0 0-.669 1.535c-.156.526-.162.959-.014 1.296.008.029.025.074.047.131l-.553.963-2.325-1.345.554-.959c.401-.078.835-.358 1.306-.856zm10.191 16.49l-4.215 9.409-1.586-.712 4.217-9.409 1.584.712zm16.119 6.122l-3.197 9.8-1.654-.539 3.197-9.8 1.654.539zm46.625-39.574h-.31c-.364 0-.625.493-.792 1.469-.105.645-.154 2.184-.154 4.628v26.405c0 2.065.028 3.431.084 4.085.043.502.132.934.265 1.292.192.481.389.72.597.72h.31v1.107h-3.76v-1.107h.317c.358 0 .617-.494.78-1.469.109-.646.162-2.184.162-4.628v-26.405c0-2.065-.029-3.427-.084-4.085-.041-.503-.132-.934-.272-1.292-.185-.482-.378-.72-.586-.72h-.317v-1.107h3.76v1.107zm3.004 48.374a4.108 4.108 0 1 1 .005 8.215 4.108 4.108 0 0 1-.005-8.215zm.07-9.87l.111.095v1.107h-2.684v-1.107c.308-.267.545-.728.703-1.395.228-.987.432-2.505.607-4.546l3.048-34.687h.239l3.279 35.148c.168 1.814.288 2.925.358 3.324.107.626.238 1.119.399 1.477.156.35.37.576.638.679v1.107h-3.584v-1.107c.408-.185.671-.506.794-.967.115-.461.177-1.045.177-1.773 0-.996-.099-2.563-.296-4.69l-2.23-23.895-2.073 23.599c-.204 2.328-.305 3.937-.305 4.842 0 .576.064 1.14.185 1.662.128.535.342.913.634 1.127zm71.319 3.719l-1.588.708-4.205-9.409 1.588-.712 4.205 9.413zm44.877-29.473l-1.292 1.164-6.887-7.669 1.292-1.164 6.887 7.669zm12.906-13.022l-1.164 1.292-7.661-6.895 1.164-1.292 7.661 6.895zm11.454-14.313l-1.021 1.407-8.347-6.048 1.02-1.407 8.348 6.048zm6.801-20.418a4.104 4.104 0 0 1 1.501 5.607 4.104 4.104 0 0 1-5.607 1.502 4.105 4.105 0 1 1 4.106-7.109zm1.406-14.626l9.409 4.212-.711 1.588-9.409-4.217.711-1.583zm6.254-59.463h-1.111v-.312c0-.358-.49-.618-1.464-.782-.646-.107-2.185-.16-4.629-.16h-26.409c-2.061 0-3.427.028-4.081.082-.502.041-.934.131-1.292.271-.481.185-.72.379-.72.589v.312h-1.107v-3.76h1.107v.313c0 .366.494.629 1.469.794.646.102 2.185.152 4.624.152h26.409c2.061 0 3.427-.025 4.086-.083.501-.045.934-.131 1.291-.267.482-.189.716-.386.716-.596v-.313h1.111v3.76zm0-4.406h-1.111v-.317c0-.358-.49-.617-1.464-.781-.646-.107-2.185-.161-4.629-.161h-26.409c-2.061 0-3.427.029-4.081.086a4.785 4.785 0 0 0-1.292.268c-.481.185-.72.383-.72.588v.317h-1.107v-3.761h1.107v.309c0 .366.494.63 1.469.794.646.103 2.185.157 4.624.157h26.409c2.061 0 3.427-.029 4.086-.087.501-.045.934-.131 1.291-.267.482-.189.716-.387.716-.597v-.309h1.111v3.761zm-21.575 74.825l.157-.272c.176-.308-.115-.782-.881-1.411-.506-.416-1.81-1.23-3.925-2.452l-22.87-13.203c-1.786-1.032-2.983-1.69-3.579-1.97a4.8 4.8 0 0 0-1.256-.412c-.51-.078-.81-.028-.913.152l-.16.272-.959-.556 1.88-3.254.959.551-.156.272c-.181.313.115.79.876 1.419.51.412 1.814 1.226 3.929 2.449l22.871 13.202c1.785 1.033 2.982 1.691 3.579 1.97a5 5 0 0 0 1.251.416c.514.074.818.02.921-.16l.156-.268.959.555-1.88 3.255-.959-.555zm-28.622-24.681c.506.411 1.814 1.226 3.929 2.443l22.871 13.207c1.785 1.028 2.982 1.687 3.579 1.966.457.214.872.354 1.251.416.514.078.818.025.921-.156l.157-.268.958.551-1.88 3.259-.963-.555.161-.272c.177-.309-.119-.782-.88-1.411-.506-.416-1.811-1.23-3.926-2.452l-22.87-13.203c-1.786-1.032-2.983-1.691-3.579-1.97-.457-.214-.873-.354-1.255-.412-.51-.082-.811-.029-.918.148l-.156.276-.958-.555 1.879-3.255.959.552-.152.271c-.185.313.111.786.872 1.42zm25.693 26.82c-.506-.42-1.81-1.234-3.925-2.456l-22.87-13.203c-1.786-1.032-2.983-1.691-3.58-1.97a4.736 4.736 0 0 0-1.255-.412c-.51-.078-.81-.029-.913.153l-.156.271-.963-.555 1.88-3.255.959.552-.152.271c-.186.317.111.79.872 1.42.51.415 1.814 1.226 3.929 2.447l22.87 13.203c1.786 1.032 2.983 1.691 3.58 1.971a5.2 5.2 0 0 0 1.25.415c.515.074.819.021.922-.161l.156-.267.959.556-1.88 3.254-.959-.551.157-.276c.181-.309-.115-.782-.881-1.407zm2.929-155.553l.959-.551 1.88 3.254-.959.556-.16-.276c-.177-.309-.732-.288-1.658.057-.613.231-1.975.955-4.089 2.173l-22.871 13.206c-1.786 1.029-2.954 1.736-3.493 2.115-.416.288-.74.58-.983.88-.325.403-.432.687-.329.868l.156.272-.959.556-1.88-3.259.959-.551.156.267c.181.317.741.296 1.667-.045.613-.235 1.97-.959 4.085-2.181l22.87-13.206c1.786-1.029 2.954-1.736 3.493-2.111.416-.292.741-.584.988-.88.321-.403.427-.695.325-.872l-.157-.272zm21.575 70.418v3.76h-1.111v-.316c0-.354-.49-.617-1.464-.782-.646-.107-2.185-.16-4.629-.16h-26.409c-2.061 0-3.427.028-4.081.086-.502.041-.934.132-1.292.272-.481.185-.72.378-.72.584v.316h-1.107v-3.76h1.107v.313c0 .362.494.625 1.469.79.646.103 2.185.156 4.624.156h26.409c2.061 0 3.427-.028 4.086-.086.501-.046.934-.132 1.291-.263.482-.194.716-.391.716-.597v-.313h1.111zm-.132 55.924l9.8 3.193-.539 1.654-9.8-3.197.539-1.65zm4.382-16.674l10.084 2.139-.362 1.703-10.084-2.143.362-1.699zm4.418-32.959c0-2.271 1.84-4.11 4.106-4.11a4.109 4.109 0 0 1 0 8.216 4.108 4.108 0 0 1-4.106-4.106zm-1.826 15.914l10.256 1.061-.181 1.728-10.252-1.062.177-1.727z"/>
</svg>
